<svg width="545" height="634" viewBox="0 0 545 634" fill="none" xmlns="http://www.w3.org/2000/svg">
<path d="M342.792 589.172L10.1201 389.93L202.183 44.8525L534.855 244.094L342.792 589.172ZM12.0954 389.376L342.286 587.125L532.928 244.624L202.713 46.876L12.0954 389.376Z" fill="url(#paint0_linear)"/>
<path d="M328.965 592.618L328.363 592.209L6.7959 375.599L7.18126 374.972L216.011 41.4092L216.613 41.8187L538.18 258.429L537.794 259.055L328.965 592.618ZM8.79534 375.141L328.555 590.547L536.204 258.862L216.444 43.4568L8.79534 375.141Z" fill="url(#paint1_linear)"/>
<path d="M314.994 595.289L314.415 594.855L4.21875 361.07L230.007 38.708L230.585 39.1416L540.782 272.927L314.994 595.289ZM6.21819 360.757L314.656 593.217L538.758 273.265L230.32 40.8038L6.21819 360.757Z" fill="url(#paint2_linear)"/>
<path d="M300.876 597.22L2.33887 346.451L2.79657 345.873L244.098 36.7842L542.636 287.553L542.178 288.131L300.876 597.22ZM4.38654 346.234L300.684 595.124L540.612 287.77L244.315 38.8799L4.38654 346.234Z" fill="url(#paint3_linear)"/>
<path d="M286.713 598.375L1.23145 331.756L258.263 35.627L543.744 302.246L286.713 598.375ZM3.27897 331.635L286.616 596.255L541.721 302.343L258.384 37.7468L3.27897 331.635Z" fill="url(#paint4_linear)"/>
<path d="M272.5 598.759L0.870117 317.012L272.5 35.2402L544.13 317.012L272.5 598.759ZM2.89367 317.012L272.5 596.639L542.082 316.988L272.5 37.3601L2.89367 317.012Z" fill="url(#paint5_linear)"/>
<path d="M258.288 598.375L1.25586 302.246L286.713 35.627L543.745 331.756L258.288 598.375ZM3.27927 302.367L258.384 596.279L541.721 331.659L286.616 37.7468L3.27927 302.367Z" fill="url(#paint6_linear)"/>
<path d="M244.1 597.22L243.642 596.641L2.36426 287.553L300.902 36.7842L301.359 37.3623L542.661 346.451L244.1 597.22ZM4.38782 287.77L244.316 595.124L540.613 346.234L300.685 38.8799L4.38782 287.77Z" fill="url(#paint7_linear)"/>
<path d="M230.007 595.289L229.573 594.687L4.19434 272.927L4.77245 272.494L314.969 38.708L315.403 39.3102L540.781 361.07L540.203 361.503L230.007 595.289ZM6.21789 273.265L230.32 593.217L538.758 360.757L314.68 40.8038L6.21789 273.265Z" fill="url(#paint8_linear)"/>
<path d="M216.011 592.618L6.7959 258.429L328.965 41.4092L538.18 375.599L216.011 592.618ZM8.79534 258.862L216.444 590.547L536.204 375.141L328.555 43.4568L8.79534 258.862Z" fill="url(#paint9_linear)"/>
<path d="M202.183 589.172L10.1201 244.094L342.792 44.8525L534.855 389.93L202.183 589.172ZM12.0954 244.624L202.737 587.125L532.928 389.376L342.262 46.876L12.0954 244.624Z" fill="url(#paint10_linear)"/>
<path d="M188.548 584.982L188.211 584.308L14.1426 229.931L14.793 229.594L356.426 49.0215L356.763 49.696L530.832 404.072L530.181 404.41L188.548 584.982ZM16.0938 230.582L189.175 582.959L528.881 403.422L355.8 51.045L16.0938 230.582Z" fill="url(#paint11_linear)"/>
<path d="M175.156 580.041L174.867 579.367L18.9131 216.029L369.845 53.957L370.134 54.6315L526.087 417.969L175.156 580.041ZM20.8162 216.776L175.878 578.066L524.184 417.198L369.098 55.9323L20.8162 216.776Z" fill="url(#paint12_linear)"/>
<path d="M162.003 574.404L24.3574 202.395L382.997 59.5938L520.667 431.603L162.003 574.404ZM26.2123 203.262L162.846 572.477L518.788 430.76L382.154 61.5209L26.2123 203.262Z" fill="url(#paint13_linear)"/>
<path d="M149.187 568.045L148.97 567.347L30.4756 189.098L395.812 65.9541L396.029 66.6527L514.524 444.901L149.187 568.045ZM32.2823 190.038L150.103 566.166L512.717 443.962L394.897 67.8331L32.2823 190.038Z" fill="url(#paint14_linear)"/>
<path d="M136.685 561.011L37.2686 176.114L408.315 72.9883L507.731 457.886L136.685 561.011ZM39.0272 177.174L137.696 559.181L505.972 456.826L407.303 74.8191L39.0272 177.174Z" fill="url(#paint15_linear)"/>
<path d="M124.545 553.301L44.665 163.538L420.409 80.6953L500.264 470.459L124.545 553.301ZM46.3995 164.694L125.677 551.543L498.602 469.326L419.324 82.4779L46.3995 164.694Z" fill="url(#paint16_linear)"/>
<path d="M112.837 544.944L52.7344 151.399L432.139 89.0557L492.242 482.625L112.837 544.944ZM54.3965 152.627L114.041 543.233L490.604 481.372L430.959 90.766L54.3965 152.627Z" fill="url(#paint17_linear)"/>
<path d="M101.563 535.96L61.4062 139.692L443.437 98.042L483.594 494.333L101.563 535.96ZM62.9721 141.017L102.816 534.322L481.98 492.984L442.16 99.6801L62.9721 141.017Z" fill="url(#paint18_linear)"/>
<path d="M90.7472 526.393L90.6992 525.647L70.6328 128.464L454.253 107.603L454.301 108.349L474.368 505.532L90.7472 526.393ZM72.1504 129.885L92.0962 524.828L472.826 504.135L452.88 109.192L72.1504 129.885Z" fill="url(#paint19_linear)"/>
<path d="M464.564 516.229H80.4375V117.77H464.588V516.229H464.564ZM81.8587 514.736H463.119V119.263H81.8587V514.736Z" fill="url(#paint20_linear)"/>
<defs>
<linearGradient id="paint0_linear" x1="272.488" y1="44.8525" x2="272.488" y2="589.172" gradientUnits="userSpaceOnUse">
<stop stop-color="#008FB8"/>
<stop offset="1" stop-color="#21D6FF"/>
</linearGradient>
<linearGradient id="paint1_linear" x1="272.488" y1="41.4092" x2="272.488" y2="592.618" gradientUnits="userSpaceOnUse">
<stop stop-color="#008FB8"/>
<stop offset="1" stop-color="#21D6FF"/>
</linearGradient>
<linearGradient id="paint2_linear" x1="272.5" y1="38.708" x2="272.5" y2="595.289" gradientUnits="userSpaceOnUse">
<stop stop-color="#008FB8"/>
<stop offset="1" stop-color="#21D6FF"/>
</linearGradient>
<linearGradient id="paint3_linear" x1="272.487" y1="36.7842" x2="272.487" y2="597.22" gradientUnits="userSpaceOnUse">
<stop stop-color="#008FB8"/>
<stop offset="1" stop-color="#21D6FF"/>
</linearGradient>
<linearGradient id="paint4_linear" x1="272.488" y1="35.627" x2="272.488" y2="598.375" gradientUnits="userSpaceOnUse">
<stop stop-color="#008FB8"/>
<stop offset="1" stop-color="#21D6FF"/>
</linearGradient>
<linearGradient id="paint5_linear" x1="272.5" y1="35.2402" x2="272.5" y2="598.759" gradientUnits="userSpaceOnUse">
<stop stop-color="#008FB8"/>
<stop offset="1" stop-color="#21D6FF"/>
</linearGradient>
<linearGradient id="paint6_linear" x1="272.5" y1="35.627" x2="272.5" y2="598.375" gradientUnits="userSpaceOnUse">
<stop stop-color="#008FB8"/>
<stop offset="1" stop-color="#21D6FF"/>
</linearGradient>
<linearGradient id="paint7_linear" x1="272.513" y1="36.7842" x2="272.513" y2="597.22" gradientUnits="userSpaceOnUse">
<stop stop-color="#008FB8"/>
<stop offset="1" stop-color="#21D6FF"/>
</linearGradient>
<linearGradient id="paint8_linear" x1="272.488" y1="38.708" x2="272.488" y2="595.289" gradientUnits="userSpaceOnUse">
<stop stop-color="#008FB8"/>
<stop offset="1" stop-color="#21D6FF"/>
</linearGradient>
<linearGradient id="paint9_linear" x1="272.488" y1="41.4092" x2="272.488" y2="592.618" gradientUnits="userSpaceOnUse">
<stop stop-color="#008FB8"/>
<stop offset="1" stop-color="#21D6FF"/>
</linearGradient>
<linearGradient id="paint10_linear" x1="272.488" y1="44.8525" x2="272.488" y2="589.172" gradientUnits="userSpaceOnUse">
<stop stop-color="#008FB8"/>
<stop offset="1" stop-color="#21D6FF"/>
</linearGradient>
<linearGradient id="paint11_linear" x1="272.487" y1="49.0215" x2="272.487" y2="584.982" gradientUnits="userSpaceOnUse">
<stop stop-color="#008FB8"/>
<stop offset="1" stop-color="#21D6FF"/>
</linearGradient>
<linearGradient id="paint12_linear" x1="272.5" y1="53.957" x2="272.5" y2="580.041" gradientUnits="userSpaceOnUse">
<stop stop-color="#008FB8"/>
<stop offset="1" stop-color="#21D6FF"/>
</linearGradient>
<linearGradient id="paint13_linear" x1="272.512" y1="59.5937" x2="272.512" y2="574.404" gradientUnits="userSpaceOnUse">
<stop stop-color="#008FB8"/>
<stop offset="1" stop-color="#21D6FF"/>
</linearGradient>
<linearGradient id="paint14_linear" x1="272.5" y1="65.9541" x2="272.5" y2="568.045" gradientUnits="userSpaceOnUse">
<stop stop-color="#008FB8"/>
<stop offset="1" stop-color="#21D6FF"/>
</linearGradient>
<linearGradient id="paint15_linear" x1="272.5" y1="72.9883" x2="272.5" y2="561.011" gradientUnits="userSpaceOnUse">
<stop stop-color="#008FB8"/>
<stop offset="1" stop-color="#21D6FF"/>
</linearGradient>
<linearGradient id="paint16_linear" x1="272.465" y1="80.6953" x2="272.465" y2="553.301" gradientUnits="userSpaceOnUse">
<stop stop-color="#008FB8"/>
<stop offset="1" stop-color="#21D6FF"/>
</linearGradient>
<linearGradient id="paint17_linear" x1="272.488" y1="89.0557" x2="272.488" y2="544.944" gradientUnits="userSpaceOnUse">
<stop stop-color="#008FB8"/>
<stop offset="1" stop-color="#21D6FF"/>
</linearGradient>
<linearGradient id="paint18_linear" x1="272.5" y1="98.042" x2="272.5" y2="535.96" gradientUnits="userSpaceOnUse">
<stop stop-color="#008FB8"/>
<stop offset="1" stop-color="#21D6FF"/>
</linearGradient>
<linearGradient id="paint19_linear" x1="272.5" y1="107.603" x2="272.5" y2="526.393" gradientUnits="userSpaceOnUse">
<stop stop-color="#008FB8"/>
<stop offset="1" stop-color="#21D6FF"/>
</linearGradient>
<linearGradient id="paint20_linear" x1="272.513" y1="117.77" x2="272.513" y2="516.229" gradientUnits="userSpaceOnUse">
<stop stop-color="#008FB8"/>
<stop offset="1" stop-color="#21D6FF"/>
</linearGradient>
</defs>
</svg>
