<svg width="543" height="634" viewBox="0 0 543 634" fill="none" xmlns="http://www.w3.org/2000/svg">
<path d="M235.097 131.63L536.884 425.504L535.827 425.809L131.489 539.936L131.747 538.879L235.097 131.63ZM534.442 424.894L235.778 134.048L133.226 538.128L534.442 424.894Z" fill="url(#paint0_linear)"/>
<path d="M111.767 525.685L250.569 127.968L525.59 447.034L111.767 525.685ZM251.039 130.456L113.669 524.065L523.219 446.236L251.039 130.456Z" fill="url(#paint1_linear)"/>
<path d="M93.3838 509.793L93.8299 508.807L266.323 125.692L512.49 467.509L93.3838 509.793ZM266.581 128.181L95.4264 508.314L510.212 466.476L266.581 128.181Z" fill="url(#paint2_linear)"/>
<path d="M76.4561 492.367L282.217 124.795L282.781 125.734L497.675 486.779L496.595 486.802L76.4561 492.367ZM282.241 127.284L78.6161 491.052L495.468 485.511L282.241 127.284Z" fill="url(#paint3_linear)"/>
<path d="M61.1016 473.516L298.112 125.267L481.194 504.648L61.1016 473.516ZM297.924 127.779L63.3555 472.412L479.104 503.239L297.924 127.779Z" fill="url(#paint4_linear)"/>
<path d="M47.4609 453.393L48.1417 452.548L313.913 127.143L463.233 521.033L47.4609 453.393ZM313.514 129.608L49.8087 452.501L461.284 519.437L313.514 129.608Z" fill="url(#paint5_linear)"/>
<path d="M35.6279 432.171L329.502 130.385L443.911 535.78L442.854 535.521L35.6279 432.171ZM328.892 132.803L38.0461 431.49L442.126 534.042L328.892 132.803Z" fill="url(#paint6_linear)"/>
<path d="M25.6733 409.985L344.739 134.964L423.391 548.787L25.6733 409.985ZM343.918 137.335L28.1385 409.516L421.747 546.886L343.918 137.335Z" fill="url(#paint7_linear)"/>
<path d="M17.6909 387.025L359.507 140.858L401.791 559.964L400.805 559.518L17.6909 387.025ZM358.498 143.136L20.2031 386.767L400.335 557.922L358.498 143.136Z" fill="url(#paint8_linear)"/>
<path d="M11.7505 363.453L12.6897 362.889L373.735 147.995L379.322 569.191L11.7505 363.453ZM372.514 150.202L14.2627 363.429L378.031 567.054L372.514 150.202Z" fill="url(#paint9_linear)"/>
<path d="M7.87695 339.458L387.258 156.376L356.126 576.468L7.87695 339.458ZM385.849 158.466L10.3891 339.645L355.023 574.214L385.849 158.466Z" fill="url(#paint10_linear)"/>
<path d="M6.11621 315.229L400.007 165.909L332.367 581.681L6.11621 315.229ZM398.434 167.834L8.60487 315.628L331.498 579.334L398.434 167.834Z" fill="url(#paint11_linear)"/>
<path d="M6.4917 290.906L7.54824 290.601L411.91 176.475L308.278 584.804L307.503 584.053L6.4917 290.906ZM410.149 178.306L8.9335 291.54L307.621 582.386L410.149 178.306Z" fill="url(#paint12_linear)"/>
<path d="M8.95752 266.723L422.805 188.071L284.002 585.789L8.95752 266.723ZM420.903 189.715L11.3523 267.544L283.533 583.324L420.903 189.715Z" fill="url(#paint13_linear)"/>
<path d="M13.5352 242.869L432.641 200.585L259.702 584.685L13.5352 242.869ZM430.622 202.041L15.8361 243.878L259.467 582.173L430.622 202.041Z" fill="url(#paint14_linear)"/>
<path d="M20.1797 219.486L21.2597 219.463L441.375 213.875L235.614 581.447L20.1797 219.486ZM439.215 215.166L22.3631 220.707L235.59 578.958L439.215 215.166Z" fill="url(#paint15_linear)"/>
<path d="M28.8193 196.757L448.911 227.889L211.901 576.138L28.8193 196.757ZM446.657 228.992L30.9089 198.166L212.089 573.626L446.657 228.992Z" fill="url(#paint16_linear)"/>
<path d="M39.4077 174.873L455.18 242.513L188.728 568.764L39.4077 174.873ZM452.855 243.405L41.3798 176.47L189.15 566.298L452.855 243.405Z" fill="url(#paint17_linear)"/>
<path d="M51.875 154.005L52.9315 154.263L460.181 257.637L166.307 559.423L51.875 154.005ZM457.763 258.318L53.6829 155.766L166.917 556.981L457.763 258.318Z" fill="url(#paint18_linear)"/>
<path d="M66.103 134.306L463.821 273.108L144.754 548.129L66.103 134.306ZM461.355 273.577L67.7465 136.207L145.576 545.758L461.355 273.577Z" fill="url(#paint19_linear)"/>
<path d="M82.021 115.923L83.007 116.369L466.121 288.862L124.305 535.029L82.021 115.923ZM463.609 289.12L83.4766 117.965L125.314 532.751L463.609 289.12Z" fill="url(#paint20_linear)"/>
<path d="M99.4414 98.9971L467.013 304.758L466.074 305.322L105.029 520.216L105.006 519.136L99.4414 98.9971ZM464.501 304.782L100.733 101.157L106.273 518.009L464.501 304.782Z" fill="url(#paint21_linear)"/>
<path d="M118.294 83.6406L466.544 320.651L87.1626 503.733L118.294 83.6406ZM464.032 320.463L119.398 85.8945L88.5714 501.643L464.032 320.463Z" fill="url(#paint22_linear)"/>
<path d="M138.415 69.9971L139.26 70.678L464.666 336.449L70.7749 485.769L138.415 69.9971ZM462.2 336.05L139.307 72.3449L72.3714 483.82L462.2 336.05Z" fill="url(#paint23_linear)"/>
<path d="M159.639 58.168L461.425 352.042L460.369 352.347L56.0068 466.474L56.2651 465.418L159.639 58.168ZM459.007 351.432L160.32 60.5862L57.7677 464.666L459.007 351.432Z" fill="url(#paint24_linear)"/>
<path d="M43.0234 445.929L181.825 48.2119L456.847 367.278L43.0234 445.929ZM182.295 50.6771L44.9252 444.286L454.476 366.456L182.295 50.6771Z" fill="url(#paint25_linear)"/>
<defs>
<linearGradient id="paint0_linear" x1="334.186" y1="131.63" x2="334.186" y2="539.936" gradientUnits="userSpaceOnUse">
<stop stop-color="#008FB8"/>
<stop offset="1" stop-color="#21D6FF"/>
</linearGradient>
<linearGradient id="paint1_linear" x1="318.679" y1="127.968" x2="318.679" y2="525.685" gradientUnits="userSpaceOnUse">
<stop stop-color="#008FB8"/>
<stop offset="1" stop-color="#21D6FF"/>
</linearGradient>
<linearGradient id="paint2_linear" x1="302.937" y1="125.692" x2="302.937" y2="509.793" gradientUnits="userSpaceOnUse">
<stop stop-color="#008FB8"/>
<stop offset="1" stop-color="#21D6FF"/>
</linearGradient>
<linearGradient id="paint3_linear" x1="287.066" y1="124.795" x2="287.066" y2="492.367" gradientUnits="userSpaceOnUse">
<stop stop-color="#008FB8"/>
<stop offset="1" stop-color="#21D6FF"/>
</linearGradient>
<linearGradient id="paint4_linear" x1="271.148" y1="125.267" x2="271.148" y2="504.648" gradientUnits="userSpaceOnUse">
<stop stop-color="#008FB8"/>
<stop offset="1" stop-color="#21D6FF"/>
</linearGradient>
<linearGradient id="paint5_linear" x1="255.347" y1="127.143" x2="255.347" y2="521.033" gradientUnits="userSpaceOnUse">
<stop stop-color="#008FB8"/>
<stop offset="1" stop-color="#21D6FF"/>
</linearGradient>
<linearGradient id="paint6_linear" x1="239.769" y1="130.385" x2="239.769" y2="535.78" gradientUnits="userSpaceOnUse">
<stop stop-color="#008FB8"/>
<stop offset="1" stop-color="#21D6FF"/>
</linearGradient>
<linearGradient id="paint7_linear" x1="224.532" y1="134.964" x2="224.532" y2="548.787" gradientUnits="userSpaceOnUse">
<stop stop-color="#008FB8"/>
<stop offset="1" stop-color="#21D6FF"/>
</linearGradient>
<linearGradient id="paint8_linear" x1="209.741" y1="140.858" x2="209.741" y2="559.964" gradientUnits="userSpaceOnUse">
<stop stop-color="#008FB8"/>
<stop offset="1" stop-color="#21D6FF"/>
</linearGradient>
<linearGradient id="paint9_linear" x1="195.536" y1="147.995" x2="195.536" y2="569.191" gradientUnits="userSpaceOnUse">
<stop stop-color="#008FB8"/>
<stop offset="1" stop-color="#21D6FF"/>
</linearGradient>
<linearGradient id="paint10_linear" x1="197.567" y1="156.376" x2="197.567" y2="576.468" gradientUnits="userSpaceOnUse">
<stop stop-color="#008FB8"/>
<stop offset="1" stop-color="#21D6FF"/>
</linearGradient>
<linearGradient id="paint11_linear" x1="203.061" y1="165.909" x2="203.061" y2="581.681" gradientUnits="userSpaceOnUse">
<stop stop-color="#008FB8"/>
<stop offset="1" stop-color="#21D6FF"/>
</linearGradient>
<linearGradient id="paint12_linear" x1="209.201" y1="176.475" x2="209.201" y2="584.804" gradientUnits="userSpaceOnUse">
<stop stop-color="#008FB8"/>
<stop offset="1" stop-color="#21D6FF"/>
</linearGradient>
<linearGradient id="paint13_linear" x1="215.881" y1="188.071" x2="215.881" y2="585.789" gradientUnits="userSpaceOnUse">
<stop stop-color="#008FB8"/>
<stop offset="1" stop-color="#21D6FF"/>
</linearGradient>
<linearGradient id="paint14_linear" x1="223.088" y1="200.585" x2="223.088" y2="584.685" gradientUnits="userSpaceOnUse">
<stop stop-color="#008FB8"/>
<stop offset="1" stop-color="#21D6FF"/>
</linearGradient>
<linearGradient id="paint15_linear" x1="230.777" y1="213.875" x2="230.777" y2="581.447" gradientUnits="userSpaceOnUse">
<stop stop-color="#008FB8"/>
<stop offset="1" stop-color="#21D6FF"/>
</linearGradient>
<linearGradient id="paint16_linear" x1="238.865" y1="196.757" x2="238.865" y2="576.138" gradientUnits="userSpaceOnUse">
<stop stop-color="#008FB8"/>
<stop offset="1" stop-color="#21D6FF"/>
</linearGradient>
<linearGradient id="paint17_linear" x1="247.294" y1="174.873" x2="247.294" y2="568.764" gradientUnits="userSpaceOnUse">
<stop stop-color="#008FB8"/>
<stop offset="1" stop-color="#21D6FF"/>
</linearGradient>
<linearGradient id="paint18_linear" x1="256.028" y1="154.005" x2="256.028" y2="559.423" gradientUnits="userSpaceOnUse">
<stop stop-color="#008FB8"/>
<stop offset="1" stop-color="#21D6FF"/>
</linearGradient>
<linearGradient id="paint19_linear" x1="264.962" y1="134.306" x2="264.962" y2="548.129" gradientUnits="userSpaceOnUse">
<stop stop-color="#008FB8"/>
<stop offset="1" stop-color="#21D6FF"/>
</linearGradient>
<linearGradient id="paint20_linear" x1="274.071" y1="115.923" x2="274.071" y2="535.029" gradientUnits="userSpaceOnUse">
<stop stop-color="#008FB8"/>
<stop offset="1" stop-color="#21D6FF"/>
</linearGradient>
<linearGradient id="paint21_linear" x1="283.227" y1="98.9971" x2="283.227" y2="520.216" gradientUnits="userSpaceOnUse">
<stop stop-color="#008FB8"/>
<stop offset="1" stop-color="#21D6FF"/>
</linearGradient>
<linearGradient id="paint22_linear" x1="276.853" y1="83.6406" x2="276.853" y2="503.733" gradientUnits="userSpaceOnUse">
<stop stop-color="#008FB8"/>
<stop offset="1" stop-color="#21D6FF"/>
</linearGradient>
<linearGradient id="paint23_linear" x1="267.72" y1="69.9971" x2="267.72" y2="485.769" gradientUnits="userSpaceOnUse">
<stop stop-color="#008FB8"/>
<stop offset="1" stop-color="#21D6FF"/>
</linearGradient>
<linearGradient id="paint24_linear" x1="258.716" y1="58.168" x2="258.716" y2="466.474" gradientUnits="userSpaceOnUse">
<stop stop-color="#008FB8"/>
<stop offset="1" stop-color="#21D6FF"/>
</linearGradient>
<linearGradient id="paint25_linear" x1="249.935" y1="48.2119" x2="249.935" y2="445.929" gradientUnits="userSpaceOnUse">
<stop stop-color="#008FB8"/>
<stop offset="1" stop-color="#21D6FF"/>
</linearGradient>
</defs>
</svg>
