<svg width="543" height="634" viewBox="0 0 543 634" fill="none" xmlns="http://www.w3.org/2000/svg">
<path d="M375.986 556.63C365.895 556.63 356.094 552.845 348.405 545.641L100.587 314.561C89.8164 304.518 85.3773 289.963 88.6763 275.627C91.9997 261.291 102.358 250.156 116.452 245.863L440.463 146.794C454.533 142.5 469.354 145.92 480.125 155.939C490.895 165.982 495.334 180.536 492.035 194.873L415.817 524.997C412.518 539.334 402.136 550.468 388.066 554.762C384.064 556.023 379.988 556.63 375.986 556.63ZM101.557 313.542L349.351 544.622C359.733 554.325 374.07 557.624 387.654 553.476C401.238 549.328 411.257 538.582 414.459 524.731L490.677 194.606C493.879 180.755 489.585 166.709 479.179 157.006C468.796 147.303 454.46 144.004 440.876 148.176L116.864 247.221C103.28 251.369 93.2611 262.115 90.059 275.967C86.857 289.794 91.1506 303.863 101.557 313.542Z" fill="url(#paint0_linear)"/>
<path d="M306.026 579.914C305.541 579.914 305.032 579.914 304.547 579.89C289.846 579.38 276.941 571.303 270.028 558.325L110.945 259.153C104.031 246.151 104.565 230.941 112.376 218.473C120.163 206.004 133.577 198.848 148.326 199.358L486.941 211.171C501.641 211.68 514.546 219.758 521.46 232.736C528.373 245.738 527.84 260.948 520.029 273.417L340.472 560.775C332.952 572.831 320.144 579.914 306.026 579.914ZM146.822 200.74C133.189 200.74 120.818 207.581 113.541 219.225C106.021 231.281 105.487 245.957 112.182 258.498L271.241 557.645C277.911 570.187 290.38 577.973 304.571 578.483C318.762 578.992 331.74 572.079 339.284 560.023L518.84 272.689C526.36 260.633 526.894 245.957 520.223 233.415C513.552 220.874 501.083 213.087 486.893 212.578L148.253 200.764C147.793 200.764 147.307 200.74 146.822 200.74Z" fill="url(#paint1_linear)"/>
<path d="M232.113 579.191C227.188 579.191 222.216 578.293 217.388 576.426C203.658 571.162 194.076 559.324 191.772 544.793L138.769 210.157C136.464 195.626 141.922 181.411 153.348 172.145C164.797 162.878 179.813 160.501 193.543 165.765L509.865 287.175C523.595 292.439 533.177 304.277 535.481 318.807C537.785 333.338 532.328 347.553 520.902 356.819L257.583 570.046C250.185 576.086 241.234 579.191 232.113 579.191ZM178.843 164.431C170.037 164.431 161.401 167.439 154.221 173.236C143.184 182.187 137.92 195.893 140.127 209.938L193.13 544.575C195.362 558.62 204.604 570.021 217.873 575.116C231.142 580.21 245.649 577.905 256.686 568.978L520.005 355.752C531.042 346.801 536.306 333.095 534.098 319.05C531.867 305.005 522.624 293.604 509.355 288.509L193.033 167.099C188.424 165.304 183.597 164.431 178.843 164.431Z" fill="url(#paint2_linear)"/>
<path d="M162.153 554.371C152.789 554.371 143.644 551.096 136.124 544.789C124.844 535.329 119.653 521.041 122.2 506.535L181.05 172.869C183.597 158.387 193.397 146.719 207.224 141.673C221.051 136.627 236.042 139.271 247.322 148.732L506.881 366.519C518.161 375.979 523.352 390.267 520.805 404.773C518.258 419.255 508.458 430.923 494.631 435.969L176.247 551.848C171.589 553.546 166.859 554.371 162.153 554.371ZM221.269 140.581C216.733 140.581 212.148 141.382 207.685 143.007C194.343 147.859 184.883 159.114 182.432 173.111L123.583 506.777C121.109 520.774 126.13 534.577 137.022 543.722C147.914 552.867 162.371 555.414 175.737 550.538L494.121 434.659C507.463 429.807 516.924 418.552 519.398 404.555C521.872 390.558 516.851 376.755 505.959 367.61L246.4 149.824C239.147 143.735 230.317 140.581 221.269 140.581Z" fill="url(#paint3_linear)"/>
<path d="M104.444 508.16C90.0345 508.16 77.0323 500.81 69.5852 488.414C62.0167 475.8 61.7499 460.59 68.8817 447.709L233.156 151.376L233.762 151.715L233.156 151.376C240.287 138.495 253.338 130.66 268.038 130.417C282.69 130.174 296.056 137.549 303.649 150.163L478.16 440.577C485.728 453.191 485.995 468.401 478.863 481.282C471.731 494.163 458.681 501.998 443.98 502.241L105.22 508.16C104.953 508.16 104.711 508.16 104.444 508.16ZM268.79 131.8C268.548 131.8 268.305 131.8 268.063 131.8C253.848 132.042 241.258 139.611 234.369 152.055L70.1189 448.388C63.2296 460.808 63.4965 475.509 70.7981 487.686C78.1239 499.863 91.0048 506.995 105.171 506.753L443.932 500.834C458.147 500.591 470.737 493.023 477.626 480.579C484.515 468.159 484.248 453.458 476.947 441.281L302.436 150.866C295.256 138.883 282.69 131.8 268.79 131.8Z" fill="url(#paint4_linear)"/>
<path d="M387.266 550.445C383.021 550.445 378.727 549.766 374.531 548.408L52.2655 443.711C38.2688 439.175 28.0805 427.846 25.024 413.461C21.9675 399.077 26.6735 384.595 37.6138 374.746L289.41 148.032L289.871 148.542L289.41 148.032C300.35 138.184 315.245 135.03 329.217 139.566C343.214 144.103 353.402 155.431 356.459 169.816L426.903 501.226C429.96 515.611 425.254 530.093 414.313 539.942C406.672 546.831 397.115 550.445 387.266 550.445ZM316.482 138.911C306.973 138.911 297.73 142.405 290.332 149.051L38.5356 375.765C27.9835 385.274 23.4473 399.246 26.3824 413.146C29.3419 427.046 39.1663 437.962 52.6779 442.352L374.919 547.049C388.43 551.44 402.815 548.383 413.367 538.874C423.92 529.365 428.48 515.393 425.521 501.493L355.1 170.107C352.141 156.207 342.316 145.291 328.805 140.901C324.729 139.566 320.581 138.911 316.482 138.911Z" fill="url(#paint5_linear)"/>
<path d="M318.204 577.684C309.568 577.684 301.053 574.895 293.824 569.437L23.2285 365.526C11.4634 356.672 5.52029 342.65 7.31537 328.047C9.11045 313.444 18.2556 301.291 31.8158 295.542L343.699 163.167C357.259 157.418 372.347 159.261 384.112 168.14C395.877 176.994 401.82 191.015 400.025 205.618L358.738 541.904C356.943 556.507 347.798 568.661 334.238 574.41C329.023 576.593 323.589 577.684 318.204 577.684ZM343.965 163.798L344.232 164.453L32.3494 296.827C19.2745 302.383 10.4204 314.123 8.69806 328.217C6.97576 342.311 12.7006 355.847 24.0533 364.41L294.649 568.321C306.002 576.884 320.581 578.655 333.656 573.1C346.731 567.545 355.585 555.804 357.307 541.71L398.594 205.424C400.316 191.33 394.591 177.794 383.239 169.231C371.886 160.693 357.307 158.898 344.232 164.453L343.965 163.798Z" fill="url(#paint6_linear)"/>
<path d="M244.29 581.005C230.73 581.005 218.334 574.432 210.644 563.055L21.1908 282.173C12.9674 269.972 11.9001 254.786 18.3526 241.566C24.8052 228.345 37.4193 219.831 52.0953 218.812L390.079 195.185C404.755 194.166 418.437 200.837 426.66 213.039C434.884 225.24 435.951 240.426 429.498 253.646L280.968 558.179C274.515 571.399 261.901 579.914 247.225 580.933C246.255 580.957 245.285 581.005 244.29 581.005ZM390.152 195.84L390.201 196.543L52.2165 220.17C38.05 221.165 25.8483 229.388 19.6383 242.148C13.404 254.932 14.4471 269.584 22.3794 281.349L211.833 562.23C219.79 574.019 233.01 580.448 247.152 579.453C261.319 578.458 273.521 570.235 279.731 557.475L428.261 252.943C434.495 240.183 433.477 225.507 425.52 213.742C417.564 201.953 404.367 195.525 390.201 196.519L390.152 195.84Z" fill="url(#paint7_linear)"/>
<path d="M173.627 560.147C170.061 560.147 166.471 559.686 162.905 558.716C148.69 554.908 137.92 544.137 134.111 529.922L46.4193 202.684C42.6108 188.469 46.5406 173.769 56.9472 163.362C67.3538 152.956 82.054 149.026 96.2691 152.834L423.531 240.526C437.746 244.335 448.517 255.105 452.325 269.32C456.134 283.535 452.204 298.236 441.797 308.642L202.227 548.213C194.441 555.999 184.228 560.147 173.627 560.147ZM85.5714 152.786C75.3346 152.786 65.486 156.813 57.966 164.333C47.9233 174.375 44.1148 188.566 47.802 202.296L135.494 529.558C139.181 543.288 149.564 553.671 163.293 557.358C177.023 561.045 191.214 557.236 201.257 547.194L440.827 307.623C450.87 297.581 454.678 283.39 450.991 269.66C447.304 255.93 436.922 245.548 423.192 241.861L95.9295 154.169C92.4849 153.247 88.9918 152.786 85.5714 152.786Z" fill="url(#paint8_linear)"/>
<path d="M113.079 517.33C105.147 517.33 97.2876 514.977 90.3741 510.319C78.1724 502.096 71.5015 488.415 72.5203 473.739L96.1475 135.754C97.1663 121.078 105.681 108.464 118.926 102.012C132.146 95.5592 147.331 96.6266 159.533 104.85L440.414 294.304C452.616 302.527 459.287 316.208 458.268 330.884C457.249 345.56 448.735 358.174 435.49 364.627L130.982 513.158C125.257 515.947 119.144 517.33 113.079 517.33ZM136.828 99.1979C130.957 99.1979 125.063 100.532 119.532 103.225C106.772 109.459 98.549 121.636 97.5544 135.803L73.9273 473.787C72.9327 487.954 79.3853 501.174 91.1503 509.107C102.94 517.063 117.591 518.082 130.375 511.848L434.908 363.317C447.668 357.083 455.891 344.905 456.885 330.739C457.88 316.572 451.427 303.352 439.662 295.419L158.781 105.966C152.086 101.478 144.493 99.1979 136.828 99.1979Z" fill="url(#paint9_linear)"/>
<path d="M69.9008 457.148C57.1897 457.148 45.3761 451.302 37.5408 440.92C28.6867 429.155 26.8189 414.066 32.568 400.506L164.967 88.6234C170.716 75.0875 182.869 65.9181 197.473 64.123C212.1 62.3279 226.097 68.2711 234.951 80.0361L438.862 350.632C447.716 362.373 449.584 377.485 443.811 391.046C438.062 404.581 425.909 413.751 411.305 415.546L75.0192 456.833C73.3211 457.027 71.5988 457.148 69.9008 457.148ZM202.615 65.2146C200.99 65.2146 199.341 65.3116 197.667 65.5299C183.573 67.2522 171.832 76.1063 166.277 89.1813L33.8779 401.064C28.3229 414.139 30.118 428.718 38.681 440.071C47.244 451.423 60.7556 457.148 74.8736 455.426L411.16 414.139C425.254 412.417 436.994 403.563 442.549 390.488C448.104 377.413 446.309 362.834 437.746 351.481L233.835 80.8851C226.291 70.8667 214.89 65.2146 202.615 65.2146Z" fill="url(#paint10_linear)"/>
<path d="M380.522 456.71C377.66 456.71 374.773 456.419 371.862 455.788L40.4516 385.343C26.0668 382.287 14.7383 372.099 10.2021 358.102C5.64167 344.105 8.81945 329.211 18.6681 318.27L245.382 66.4986C255.23 55.5583 269.712 50.8523 284.097 53.9088C298.482 56.9653 309.81 67.1535 314.347 81.1503L419.043 403.391C423.58 417.388 420.426 432.282 410.577 443.223C402.718 451.955 391.899 456.71 380.522 456.71ZM275.461 54.3939C264.473 54.3939 254.042 58.9787 246.425 67.4204L19.7112 319.216C10.2021 329.769 7.14565 344.154 11.5363 357.665C15.927 371.177 26.843 381.001 40.7427 383.961L372.153 454.405C386.053 457.365 400.025 452.829 409.534 442.252C419.043 431.7 422.1 417.315 417.709 403.804L313.012 81.5869C308.622 68.0753 297.706 58.2509 283.806 55.2915C281.016 54.685 278.227 54.3939 275.461 54.3939Z" fill="url(#paint11_linear)"/>
<path d="M342.413 486.889C335.184 486.889 327.98 484.924 321.454 481.018L31.0398 306.507C18.4257 298.939 11.0513 285.621 11.2939 270.897C11.5607 256.172 19.396 243.146 32.2526 236.014L328.586 71.7645C341.467 64.6327 356.677 64.8995 369.291 72.468C381.905 80.0364 389.279 93.354 389.037 108.078L383.118 446.839C382.851 461.563 375.016 474.59 362.159 481.722C355.949 485.166 349.181 486.889 342.413 486.889ZM348.356 67.9803C341.831 67.9803 335.281 69.6298 329.29 72.9774L32.9561 237.227C20.5361 244.116 12.9677 256.706 12.7008 270.921C12.4583 285.136 19.5658 297.993 31.7675 305.295L322.182 479.805C334.36 487.131 349.06 487.374 361.48 480.485C373.9 473.595 381.468 461.005 381.735 446.79L382.439 446.815L381.735 446.79L387.654 108.03C387.896 93.8149 380.789 80.9582 368.587 73.6566C362.305 69.8724 355.342 67.9803 348.356 67.9803Z" fill="url(#paint12_linear)"/>
<path d="M296.59 503.021C284.679 503.021 273.472 497.854 265.588 488.466L47.8018 228.908C38.3413 217.628 35.6972 202.637 40.7428 188.81C45.7884 174.983 57.4322 165.207 71.9383 162.635L405.605 103.81C420.087 101.263 434.399 106.454 443.859 117.734C453.32 129.014 455.964 144.005 450.918 157.832L335.039 476.216C330.017 490.043 318.349 499.819 303.843 502.39C301.417 502.803 298.991 503.021 296.59 503.021ZM412.858 104.586C410.553 104.586 408.2 104.78 405.847 105.193L72.1809 164.018C58.1841 166.492 46.9285 175.929 42.077 189.295C37.2254 202.637 39.7725 217.118 48.8934 228.01L266.68 487.569C275.825 498.461 289.628 503.482 303.625 501.008C317.621 498.533 328.877 489.097 333.729 475.731L334.384 475.974L333.729 475.731L449.608 157.347C454.46 144.005 451.913 129.523 442.792 118.632C435.175 109.584 424.332 104.586 412.858 104.586Z" fill="url(#paint13_linear)"/>
<path d="M248.535 503.433C246.376 503.433 244.193 503.263 241.986 502.923C227.455 500.619 215.617 491.037 210.354 477.307L88.9431 160.985C83.6792 147.255 86.0565 132.215 95.3229 120.766C104.589 109.316 118.805 103.882 133.335 106.187L467.971 159.19C482.502 161.494 494.34 171.076 499.604 184.806C504.868 198.536 502.49 213.576 493.224 225.001L279.998 488.32L279.464 487.883L279.998 488.32C272.138 498.047 260.713 503.433 248.535 503.433ZM126.761 107.06C115.02 107.06 103.983 112.275 96.3903 121.639C87.4392 132.676 85.1589 147.207 90.2531 160.451L211.663 476.773C216.758 490.042 228.183 499.285 242.204 501.516C256.225 503.748 269.955 498.484 278.906 487.422L492.132 224.104C501.083 213.067 503.364 198.536 498.27 185.291C493.175 172.022 481.75 162.78 467.729 160.548L133.092 107.569C130.958 107.23 128.847 107.06 126.761 107.06Z" fill="url(#paint14_linear)"/>
<path d="M202.469 488.126C195.944 488.126 189.395 486.525 183.33 483.298C170.328 476.385 162.274 463.48 161.765 448.779L149.951 110.165C149.442 95.4643 156.574 82.0255 169.066 74.2145C181.535 66.4277 196.745 65.894 209.747 72.7832L508.894 231.842C521.896 238.755 529.95 251.66 530.459 266.361C530.969 281.061 523.837 294.5 511.344 302.311L224.01 481.867C217.34 486.015 209.917 488.126 202.469 488.126ZM190.583 69.3629C183.379 69.3629 176.198 71.3763 169.794 75.4031C157.738 82.923 150.849 95.9009 151.334 110.116L163.148 448.731C163.633 462.922 171.42 475.39 183.985 482.061C196.526 488.732 211.227 488.223 223.258 480.678L223.622 481.285L223.258 480.678L510.592 301.122C522.648 293.602 529.538 280.624 529.052 266.409C528.567 252.218 520.781 239.75 508.215 233.079L209.068 74.0204C203.197 70.9154 196.89 69.3629 190.583 69.3629Z" fill="url(#paint15_linear)"/>
<path d="M163.827 458.604C152.717 458.604 142.092 454.043 134.257 445.626C124.214 434.855 120.794 420.034 125.087 405.964L224.156 81.9526C228.45 67.8831 239.584 57.5007 253.92 54.2017C268.257 50.8783 282.811 55.3418 292.854 66.1122L523.934 313.906C533.977 324.676 537.397 339.498 533.104 353.567C528.81 367.637 517.676 378.019 503.339 381.343L173.215 457.561L173.069 456.881L173.215 457.561C170.037 458.24 166.908 458.604 163.827 458.604ZM263.26 54.517C260.276 54.517 257.244 54.8566 254.236 55.5601C240.385 58.7621 229.638 68.7806 225.49 82.365L126.421 406.377C122.273 419.961 125.572 434.273 135.251 444.68C144.954 455.062 159 459.38 172.851 456.178L502.975 379.96C516.827 376.758 527.573 366.739 531.721 353.155C535.869 339.571 532.57 325.258 522.891 314.852L291.811 67.034C284.243 58.9077 273.982 54.517 263.26 54.517Z" fill="url(#paint16_linear)"/>
<path d="M474.4 453.607C472.944 453.607 471.465 453.534 470.009 453.364L133.044 417.948C118.416 416.42 106.093 407.468 100.102 394.03C94.1101 380.591 95.7111 365.454 104.347 353.543L303.504 79.43C312.164 67.5194 326.039 61.3336 340.691 62.8619C355.318 64.3901 367.641 73.3412 373.633 86.7801L511.441 396.31C517.433 409.749 515.832 424.885 507.196 436.796C499.41 447.518 487.378 453.607 474.4 453.607ZM336.3 64.0505C323.759 64.0505 312.139 69.9209 304.644 80.2547L105.487 354.368C97.1423 365.866 95.5898 380.469 101.387 393.472C107.161 406.45 119.047 415.085 133.189 416.565L470.155 451.982C484.273 453.461 497.712 447.494 506.056 435.996C514.401 424.497 515.953 409.894 510.156 396.892L372.347 87.3623C366.574 74.3843 354.688 65.7485 340.545 64.2688C339.114 64.1233 337.707 64.0505 336.3 64.0505Z" fill="url(#paint17_linear)"/>
<path d="M432.312 514.541C426.466 514.541 420.596 513.255 415.041 510.66L107.961 367.49C94.6194 361.28 85.8866 348.812 84.6009 334.136C83.3152 319.484 89.7435 305.681 101.8 297.24L379.333 102.91C391.39 94.4686 406.551 93.1344 419.892 99.3686C433.234 105.579 441.967 118.047 443.253 132.723L472.775 470.246C474.06 484.898 467.632 498.701 455.576 507.143C448.541 512.043 440.463 514.541 432.312 514.541ZM402.621 96.8944C394.737 96.8944 386.926 99.3201 380.158 104.05L102.6 298.38C90.9564 306.53 84.7464 319.848 85.9836 334.014C87.2207 348.181 95.6625 360.213 108.519 366.205L415.599 509.399C428.48 515.414 443.107 514.129 454.751 505.978C466.395 497.828 472.605 484.51 471.368 470.343L441.846 132.82C440.609 118.654 432.167 106.622 419.31 100.63C413.949 98.1315 408.249 96.8944 402.621 96.8944Z" fill="url(#paint18_linear)"/>
<path d="M372.492 558.425C362.134 558.425 352.14 554.447 344.402 546.951L100.684 311.602C90.1072 301.39 85.9106 286.738 89.4522 272.474C93.0181 258.186 103.595 247.246 117.737 243.195L443.422 149.802C457.565 145.751 472.338 149.439 482.914 159.651C493.49 169.864 497.687 184.491 494.145 198.779L412.178 527.521C408.612 541.809 398.036 552.749 383.894 556.8C380.109 557.892 376.277 558.425 372.492 558.425ZM454.823 149.584C451.161 149.584 447.473 150.094 443.81 151.137L118.125 244.529C104.468 248.435 94.2553 259.011 90.8107 272.814C87.366 286.592 91.4171 300.735 101.654 310.608L345.372 545.981C355.585 555.854 369.848 559.396 383.505 555.49C397.163 551.585 407.375 541.008 410.82 527.206L492.787 198.464C496.232 184.685 492.181 170.543 481.944 160.67C474.472 153.417 464.818 149.584 454.823 149.584Z" fill="url(#paint19_linear)"/>
<path d="M302.169 580.503C301.442 580.503 300.69 580.479 299.962 580.455C285.262 579.679 272.502 571.407 265.831 558.283L111.988 256.371C105.317 243.247 106.093 228.062 114.123 215.714C122.128 203.367 135.688 196.454 150.388 197.23L488.736 214.962C503.436 215.739 516.196 224.011 522.867 237.134C529.538 250.258 528.762 265.443 520.732 277.79L336.227 561.971C328.61 573.687 315.996 580.503 302.169 580.503ZM113.249 255.74L267.068 557.628C273.521 570.291 285.844 578.296 300.035 579.048C314.25 579.8 327.325 573.129 335.063 561.194L519.592 277.038C527.33 265.128 528.107 250.452 521.654 237.789C515.201 225.126 502.879 217.121 488.688 216.369L150.34 198.637C136.149 197.909 123.05 204.556 115.311 216.491C107.549 228.401 106.797 243.077 113.249 255.74Z" fill="url(#paint20_linear)"/>
<path d="M228.256 578.484C223.113 578.484 217.898 577.49 212.876 575.452C199.219 569.945 189.855 557.938 187.818 543.383L140.661 207.849C138.623 193.27 144.324 179.176 155.919 170.104C167.514 161.031 182.578 158.921 196.235 164.427L510.374 291.344C524.031 296.851 533.395 308.859 535.432 323.413C537.47 337.992 531.769 352.086 520.174 361.158L253.193 569.751C245.867 575.525 237.134 578.484 228.256 578.484ZM142.068 207.655L189.225 543.165C191.214 557.234 200.238 568.805 213.434 574.142C226.606 579.454 241.161 577.417 252.368 568.66L519.349 360.067C530.557 351.31 536.063 337.701 534.074 323.632C532.109 309.562 523.061 297.991 509.865 292.654L195.726 165.737C182.554 160.425 167.999 162.463 156.792 171.22C145.585 179.952 140.078 193.585 142.068 207.655Z" fill="url(#paint21_linear)"/>
<path d="M158.732 552.432C149.126 552.432 139.763 548.987 132.17 542.389C121.06 532.734 116.111 518.35 118.925 503.892L183.572 171.293C186.386 156.835 196.356 145.361 210.28 140.558C224.204 135.779 239.123 138.666 250.233 148.321L505.934 370.595C517.045 380.25 521.993 394.635 519.179 409.092C516.365 423.55 506.395 435.024 492.471 439.827L172.123 550.127C167.732 551.68 163.196 552.432 158.732 552.432ZM184.276 171.438L184.955 171.584L120.308 504.183C117.591 518.131 122.37 532.031 133.116 541.346C143.838 550.661 158.271 553.475 171.71 548.842L492.059 438.541C505.498 433.908 515.128 422.822 517.845 408.874C520.562 394.926 515.783 381.026 505.037 371.711L249.335 149.412C238.613 140.097 224.18 137.283 210.741 141.917C197.302 146.55 187.672 157.636 184.955 171.584L184.276 171.438Z" fill="url(#paint22_linear)"/>
<path d="M440.705 505.224H101.896C87.1719 505.224 73.9999 497.607 66.6498 484.872C59.2997 472.137 59.2997 456.903 66.6498 444.167L236.066 150.745C243.417 138.01 256.613 130.393 271.313 130.393C286.038 130.393 299.21 138.01 306.56 150.745L475.976 444.167C483.326 456.903 483.326 472.137 475.976 484.872C468.602 497.607 455.43 505.224 440.705 505.224ZM237.255 151.424L67.8627 444.847C60.7551 457.145 60.7551 471.846 67.8627 484.144C74.9702 496.443 87.6813 503.793 101.896 503.793H440.705C454.92 503.793 467.632 496.443 474.739 484.144C481.847 471.846 481.847 457.145 474.739 444.847L305.347 151.424C298.239 139.125 285.504 131.775 271.313 131.775C257.098 131.775 244.363 139.125 237.255 151.424Z" fill="url(#paint23_linear)"/>
<defs>
<linearGradient id="paint0_linear" x1="290.356" y1="144.977" x2="290.356" y2="556.63" gradientUnits="userSpaceOnUse">
<stop stop-color="#008FB8"/>
<stop offset="1" stop-color="#21D6FF"/>
</linearGradient>
<linearGradient id="paint1_linear" x1="316.202" y1="199.332" x2="316.202" y2="579.914" gradientUnits="userSpaceOnUse">
<stop stop-color="#008FB8"/>
<stop offset="1" stop-color="#21D6FF"/>
</linearGradient>
<linearGradient id="paint2_linear" x1="337.125" y1="163.014" x2="337.125" y2="579.191" gradientUnits="userSpaceOnUse">
<stop stop-color="#008FB8"/>
<stop offset="1" stop-color="#21D6FF"/>
</linearGradient>
<linearGradient id="paint3_linear" x1="321.503" y1="139.158" x2="321.503" y2="554.371" gradientUnits="userSpaceOnUse">
<stop stop-color="#008FB8"/>
<stop offset="1" stop-color="#21D6FF"/>
</linearGradient>
<linearGradient id="paint4_linear" x1="273.872" y1="130.411" x2="273.872" y2="508.16" gradientUnits="userSpaceOnUse">
<stop stop-color="#008FB8"/>
<stop offset="1" stop-color="#21D6FF"/>
</linearGradient>
<linearGradient id="paint5_linear" x1="225.964" y1="137.533" x2="225.964" y2="550.445" gradientUnits="userSpaceOnUse">
<stop stop-color="#008FB8"/>
<stop offset="1" stop-color="#21D6FF"/>
</linearGradient>
<linearGradient id="paint6_linear" x1="203.67" y1="159.871" x2="203.67" y2="577.684" gradientUnits="userSpaceOnUse">
<stop stop-color="#008FB8"/>
<stop offset="1" stop-color="#21D6FF"/>
</linearGradient>
<linearGradient id="paint7_linear" x1="223.926" y1="195.083" x2="223.926" y2="581.005" gradientUnits="userSpaceOnUse">
<stop stop-color="#008FB8"/>
<stop offset="1" stop-color="#21D6FF"/>
</linearGradient>
<linearGradient id="paint8_linear" x1="249.372" y1="151.409" x2="249.372" y2="560.147" gradientUnits="userSpaceOnUse">
<stop stop-color="#008FB8"/>
<stop offset="1" stop-color="#21D6FF"/>
</linearGradient>
<linearGradient id="paint9_linear" x1="265.394" y1="97.8301" x2="265.394" y2="517.33" gradientUnits="userSpaceOnUse">
<stop stop-color="#008FB8"/>
<stop offset="1" stop-color="#21D6FF"/>
</linearGradient>
<linearGradient id="paint10_linear" x1="238.199" y1="63.8076" x2="238.199" y2="457.148" gradientUnits="userSpaceOnUse">
<stop stop-color="#008FB8"/>
<stop offset="1" stop-color="#21D6FF"/>
</linearGradient>
<linearGradient id="paint11_linear" x1="214.617" y1="52.9941" x2="214.617" y2="456.71" gradientUnits="userSpaceOnUse">
<stop stop-color="#008FB8"/>
<stop offset="1" stop-color="#21D6FF"/>
</linearGradient>
<linearGradient id="paint12_linear" x1="200.165" y1="66.5977" x2="200.165" y2="486.889" gradientUnits="userSpaceOnUse">
<stop stop-color="#008FB8"/>
<stop offset="1" stop-color="#21D6FF"/>
</linearGradient>
<linearGradient id="paint13_linear" x1="245.831" y1="103.174" x2="245.831" y2="503.021" gradientUnits="userSpaceOnUse">
<stop stop-color="#008FB8"/>
<stop offset="1" stop-color="#21D6FF"/>
</linearGradient>
<linearGradient id="paint14_linear" x1="294.273" y1="105.666" x2="294.273" y2="503.433" gradientUnits="userSpaceOnUse">
<stop stop-color="#008FB8"/>
<stop offset="1" stop-color="#21D6FF"/>
</linearGradient>
<linearGradient id="paint15_linear" x1="340.205" y1="67.9707" x2="340.205" y2="488.126" gradientUnits="userSpaceOnUse">
<stop stop-color="#008FB8"/>
<stop offset="1" stop-color="#21D6FF"/>
</linearGradient>
<linearGradient id="paint16_linear" x1="329.095" y1="53.123" x2="329.095" y2="458.604" gradientUnits="userSpaceOnUse">
<stop stop-color="#008FB8"/>
<stop offset="1" stop-color="#21D6FF"/>
</linearGradient>
<linearGradient id="paint17_linear" x1="305.772" y1="62.6328" x2="305.772" y2="453.607" gradientUnits="userSpaceOnUse">
<stop stop-color="#008FB8"/>
<stop offset="1" stop-color="#21D6FF"/>
</linearGradient>
<linearGradient id="paint18_linear" x1="278.688" y1="95.4844" x2="278.688" y2="514.541" gradientUnits="userSpaceOnUse">
<stop stop-color="#008FB8"/>
<stop offset="1" stop-color="#21D6FF"/>
</linearGradient>
<linearGradient id="paint19_linear" x1="291.799" y1="148.189" x2="291.799" y2="558.425" gradientUnits="userSpaceOnUse">
<stop stop-color="#008FB8"/>
<stop offset="1" stop-color="#21D6FF"/>
</linearGradient>
<linearGradient id="paint20_linear" x1="317.427" y1="197.171" x2="317.427" y2="580.503" gradientUnits="userSpaceOnUse">
<stop stop-color="#008FB8"/>
<stop offset="1" stop-color="#21D6FF"/>
</linearGradient>
<linearGradient id="paint21_linear" x1="338.047" y1="161.41" x2="338.047" y2="578.484" gradientUnits="userSpaceOnUse">
<stop stop-color="#008FB8"/>
<stop offset="1" stop-color="#21D6FF"/>
</linearGradient>
<linearGradient id="paint22_linear" x1="319.052" y1="138.296" x2="319.052" y2="552.432" gradientUnits="userSpaceOnUse">
<stop stop-color="#008FB8"/>
<stop offset="1" stop-color="#21D6FF"/>
</linearGradient>
<linearGradient id="paint23_linear" x1="271.313" y1="130.393" x2="271.313" y2="505.224" gradientUnits="userSpaceOnUse">
<stop stop-color="#008FB8"/>
<stop offset="1" stop-color="#21D6FF"/>
</linearGradient>
</defs>
</svg>
