<svg width="543" height="634" viewBox="0 0 543 634" fill="none" xmlns="http://www.w3.org/2000/svg">
<path d="M159.644 467.895C149.374 467.895 141.196 465.036 135.531 459.266C121.662 445.105 124.653 414.561 143.737 375.493C180.978 299.211 268.404 210.7 338.598 178.196C370.652 163.347 395.109 162.13 407.443 174.729C421.312 188.89 418.322 219.434 399.238 258.502C361.996 334.784 274.571 423.295 204.376 455.799C187.013 463.845 171.846 467.895 159.644 467.895ZM338.942 178.911L339.286 179.626C269.383 211.997 182.301 300.163 145.192 376.181C126.426 414.64 123.329 444.523 136.696 458.154C148.554 470.25 172.376 468.901 203.767 454.369C273.671 421.998 360.752 333.831 397.861 257.814C416.628 219.355 419.724 189.472 406.358 175.841C394.5 163.744 370.705 165.094 339.286 179.626L338.942 178.911Z" fill="url(#paint0_linear)"/>
<path d="M152.259 469.96C140.242 469.96 130.899 466.519 124.864 459.611C110.73 443.491 115.918 410.194 139.104 368.294C182.857 289.233 277.641 201.675 350.403 173.142C382.35 160.595 406.41 161.045 418.109 174.412C432.243 190.531 427.056 223.829 403.843 265.729C360.09 344.79 265.306 432.348 192.544 460.881C177.113 466.916 163.508 469.96 152.259 469.96ZM390.741 165.598C379.703 165.598 366.31 168.589 351.011 174.597C278.54 203.025 184.127 290.265 140.507 369.035C117.664 410.326 112.397 442.962 126.055 458.552C137.278 471.363 160.702 471.654 191.988 459.373C264.459 430.945 358.872 343.705 402.493 264.935C425.335 223.644 430.602 191.008 416.944 175.418C411.201 168.88 402.281 165.598 390.741 165.598Z" fill="url(#paint1_linear)"/>
<path d="M145.509 471.526C131.348 471.526 120.628 467.344 114.17 459.086C99.8506 440.77 107.5 404.667 135.16 360.041C185.635 278.57 287.698 192.759 362.657 168.752C394.313 158.615 417.817 160.785 428.855 174.893C443.174 193.209 435.525 229.312 407.865 273.938C357.39 355.409 255.327 441.22 180.368 465.227C167.239 469.435 155.514 471.526 145.509 471.526ZM397.516 164.041C387.67 164.041 376.129 166.105 363.133 170.261C288.466 194.189 186.8 279.682 136.483 360.888C109.194 404.905 101.518 440.346 115.414 458.133C126.002 471.685 148.897 473.67 179.865 463.744C254.533 439.817 356.199 354.323 406.515 273.118C433.804 229.101 441.48 193.659 427.584 175.872C421.444 168.011 411.147 164.041 397.516 164.041Z" fill="url(#paint2_linear)"/>
<path d="M139.184 472.715C122.562 472.715 110.413 467.633 103.478 457.601C89.1318 436.823 99.481 397.888 131.905 350.747C189.289 267.319 298.445 184.075 375.231 165.176C406.86 157.395 429.094 161.259 439.549 176.373C453.895 197.15 443.546 236.086 411.122 283.226C353.738 366.655 244.582 449.899 167.796 468.797C157.156 471.418 147.601 472.715 139.184 472.715ZM403.843 162.847C395.558 162.847 386.109 164.144 375.601 166.738C299.133 185.557 190.401 268.536 133.202 351.674C101.175 398.232 90.8258 436.532 104.775 456.728C114.806 471.259 136.484 474.911 167.426 467.289C243.894 448.469 352.626 365.49 409.825 282.353C441.852 235.795 452.201 197.495 438.252 177.299C431.609 167.691 419.909 162.847 403.843 162.847Z" fill="url(#paint3_linear)"/>
<path d="M134.207 473.378C114.302 473.378 100.168 467.184 92.8628 455.088C78.6492 431.584 91.9894 389.79 129.469 340.4C193.893 255.515 309.905 175.712 388.04 162.504L388.173 163.272L388.04 162.504C419.008 157.264 440.474 162.954 450.135 178.888C464.349 202.392 451.009 244.186 413.529 293.577C349.105 378.461 233.093 458.264 154.958 471.472C147.494 472.742 140.559 473.378 134.207 473.378ZM408.792 162.187C402.545 162.187 395.69 162.795 388.278 164.066C310.487 177.221 194.926 256.732 130.686 341.352C94.1598 389.472 80.502 431.69 94.1862 454.267C103.477 469.619 124.413 475.045 154.693 469.937C232.511 456.782 348.046 377.27 412.285 292.65C448.812 244.53 462.47 202.313 448.786 179.735C441.771 168.116 428.114 162.187 408.792 162.187Z" fill="url(#paint4_linear)"/>
<path d="M130.66 473.67C106.626 473.67 90.057 466.073 82.3811 451.383C68.7498 425.259 85.7691 379.495 127.933 328.94C199.531 243.129 322.027 167.693 401.036 160.811C431.184 158.191 451.776 165.708 460.59 182.569C474.222 208.693 457.202 254.457 415.038 305.012C343.441 390.823 220.944 466.259 141.935 473.141C138.018 473.511 134.259 473.67 130.66 473.67ZM401.116 161.606L401.195 162.4C322.557 169.255 200.51 244.426 129.151 329.972C87.4102 379.998 70.4438 425.127 83.7839 450.669C92.2804 466.92 112.344 474.173 141.803 471.605C220.441 464.75 342.488 389.579 413.847 304.033C455.588 254.007 472.554 208.878 459.214 183.336C450.718 167.085 430.654 159.832 401.195 162.4L401.116 161.606Z" fill="url(#paint5_linear)"/>
<path d="M128.861 473.751C128.834 473.751 128.834 473.751 128.834 473.751C99.6396 473.751 80.0264 464.301 72.1653 446.409C59.2222 417.002 79.8676 368.406 127.432 316.395C206.202 230.266 334.813 160.204 414.139 160.204C414.165 160.204 414.166 160.204 414.166 160.204C443.36 160.204 462.974 169.653 470.835 187.546C483.778 216.953 463.132 265.575 415.568 317.56C336.798 403.688 208.187 473.751 128.861 473.751ZM414.113 161.819C335.183 161.819 207.102 231.643 128.57 317.507C81.4557 369.015 60.8896 417.002 73.5945 445.826C81.191 463.084 100.301 472.216 128.834 472.216H128.861C207.79 472.216 335.872 402.391 414.404 316.527C461.518 265.02 482.084 217.032 469.379 188.208C461.782 170.95 442.672 161.819 414.139 161.819C414.165 161.819 414.139 161.819 414.113 161.819Z" fill="url(#paint6_linear)"/>
<path d="M128.966 473.775C124.387 473.775 119.967 473.563 115.705 473.166C87.5428 470.466 69.0413 459.032 62.2389 440.027C50.3809 407.021 74.9702 355.725 128.013 302.814C214.01 217.003 348.285 153.32 427.32 160.837C455.482 163.537 473.984 174.971 480.786 193.976C492.644 226.982 468.055 278.278 415.012 331.189C333.647 412.368 209.06 473.748 128.966 473.775ZM413.98 161.79C334.256 161.79 210.198 222.985 129.098 303.9C76.5054 356.36 52.0749 407.048 63.6946 439.472C70.2853 457.841 88.3104 468.958 115.838 471.578C194.449 479.069 328.142 415.597 413.874 330.077C466.467 277.616 490.897 226.929 479.277 194.505C472.687 176.136 454.662 165.019 427.134 162.399C422.899 162.002 418.506 161.79 413.98 161.79Z" fill="url(#paint7_linear)"/>
<path d="M131.243 473.882C121.026 473.882 111.471 473.035 102.657 471.261C75.6061 465.835 58.3221 452.257 52.7108 431.982C42.4939 395.085 71.2917 341.301 129.734 288.099C222.904 203.32 362.234 147.074 440.29 162.717C467.341 168.143 484.625 181.722 490.236 201.997C500.453 238.894 471.655 292.678 413.213 345.88C330.578 421.103 211.575 473.882 131.243 473.882ZM411.651 161.685C331.742 161.685 213.216 214.278 130.819 289.263C72.8268 342.042 44.1879 395.243 54.2459 431.558C59.6985 451.224 76.559 464.406 103.001 469.7C111.736 471.447 121.238 472.293 131.375 472.293C211.284 472.293 329.81 419.7 412.207 344.715C470.199 291.937 498.838 238.735 488.78 202.42C483.328 182.754 466.467 169.573 440.025 164.279C431.291 162.532 421.762 161.685 411.651 161.685Z" fill="url(#paint8_linear)"/>
<path d="M136.14 474.331C119.015 474.331 103.372 472.267 89.8465 467.979C63.9338 459.721 47.9997 443.866 43.7647 422.109C35.7977 381.083 69.0951 325.102 132.779 272.376C232.988 189.397 376.713 141.675 453.128 166.026C479.04 174.284 494.974 190.138 499.209 211.896C507.176 252.922 473.905 308.903 410.195 361.628C327.746 429.944 215.784 474.331 136.14 474.331ZM406.755 161.208C327.508 161.208 216.022 205.49 133.811 273.567C70.5773 325.949 37.4917 381.347 45.3528 421.791C49.4555 442.94 65.019 458.397 90.3494 466.47C166.341 490.689 309.377 443.099 409.216 360.411C472.45 308.029 505.535 252.631 497.674 212.187C493.571 191.038 478.008 175.581 452.677 167.508C439.258 163.246 423.747 161.208 406.755 161.208Z" fill="url(#paint9_linear)"/>
<path d="M143.947 475.444C118.431 475.444 95.642 471.5 77.3522 463.216C52.5776 451.967 38.1258 433.597 35.5583 410.093C30.6087 364.832 68.5911 307.078 137.171 255.596C244.236 175.211 391.587 137.176 465.62 170.791C490.394 182.04 504.846 200.409 507.413 223.913C512.363 269.175 474.381 326.929 405.801 378.41C325.204 438.918 221.738 475.444 143.947 475.444ZM398.945 160.098C321.551 160.098 218.483 196.519 138.124 256.867C69.9939 308.004 32.2497 365.229 37.1464 409.934C39.6609 432.856 53.7952 450.775 78.0139 461.786C151.57 495.19 298.206 457.234 404.874 377.166C473.004 326.029 510.748 268.804 505.852 224.099C503.337 201.177 489.203 183.258 464.984 172.247C446.853 163.989 424.276 160.098 398.945 160.098Z" fill="url(#paint10_linear)"/>
<path d="M154.827 477.507C119.333 477.507 88.2059 470.863 65.3371 456.835C41.7271 442.357 28.9428 421.208 28.3605 395.64C27.2488 346.144 70.1014 287.172 143.022 237.834C256.705 160.943 406.834 133.707 477.664 177.115C501.274 191.594 514.059 212.742 514.641 238.311C515.753 287.807 472.9 346.779 399.979 396.116C323.009 448.206 229.283 477.507 154.827 477.507ZM388.121 158.005C314.009 158.005 220.655 187.226 143.896 239.158C71.4513 288.177 28.8369 346.646 29.9221 395.613C30.4779 420.6 42.9976 441.324 66.1576 455.512C136.511 498.655 285.873 471.419 399.106 394.846C471.55 345.826 514.164 287.357 513.079 238.39C512.523 213.404 500.004 192.679 476.844 178.492C454.187 164.596 423.324 158.005 388.121 158.005Z" fill="url(#paint11_linear)"/>
<path d="M168.563 480.946C121.608 480.946 80.8466 470.49 53.9016 448.813C31.4562 430.761 20.6042 406.437 22.457 378.433C26.0302 324.966 73.8589 265.412 150.353 219.198C270.309 146.701 422.265 131.428 489.071 185.159C511.517 203.211 522.369 227.536 520.516 255.539C516.943 309.006 469.114 368.56 392.62 414.774C321.022 458.05 238.043 480.946 168.563 480.946ZM374.436 154.562C305.273 154.562 222.586 177.404 151.2 220.548C75.1294 266.524 27.5918 325.575 24.045 378.539C22.1922 405.987 32.8856 429.861 54.9074 447.569C121.238 500.929 272.373 485.604 391.826 413.424C467.896 367.448 515.434 308.397 518.981 255.433C520.833 227.985 510.14 204.111 488.118 186.403C461.412 164.937 420.994 154.562 374.436 154.562Z" fill="url(#paint12_linear)"/>
<path d="M184.63 486.078C125.023 486.078 73.3562 470.461 43.2349 439.043C22.0336 416.942 13.4314 388.965 18.3545 358.182C27.4332 301.221 80.1587 241.985 159.353 199.715C285.211 132.564 437.908 130.42 499.791 194.95C520.993 217.051 529.595 245.029 524.672 275.812C515.593 332.772 462.868 392.009 383.674 434.279C319.09 468.741 247.44 486.078 184.63 486.078ZM358.423 149.424C295.877 149.424 224.465 166.708 160.067 201.091C81.2968 243.123 28.889 301.936 19.8897 358.42C15.046 388.727 23.5159 416.227 44.3467 437.958C105.754 502.012 257.63 499.736 382.906 432.902C461.676 390.87 514.084 332.057 523.084 275.573C527.927 245.267 519.457 217.766 498.627 196.035C468.797 164.908 417.58 149.424 358.423 149.424Z" fill="url(#paint13_linear)"/>
<path d="M201.94 493.259C128.913 493.259 65.4418 470.734 33.4413 427.458C13.6428 400.698 7.76673 368.566 16.4484 334.554C31.6943 274.893 89.0782 216.901 169.966 179.421C301.197 118.623 453.55 130.772 509.558 206.499C529.356 233.258 535.232 265.391 526.551 299.403C511.305 359.063 453.921 417.056 373.033 454.535C316.787 480.607 256.677 493.259 201.94 493.259ZM341.138 142.259C286.613 142.259 226.688 154.885 170.628 180.851C90.1634 218.118 33.0972 275.74 17.9836 334.951C9.40783 368.486 15.2044 400.143 34.7117 426.532C90.2957 501.702 241.775 513.64 372.371 453.133C452.836 415.865 509.902 358.243 525.015 299.033C533.591 265.497 527.795 233.841 508.287 207.451C476.578 164.572 413.609 142.259 341.138 142.259Z" fill="url(#paint14_linear)"/>
<path d="M219.251 502.734C132.62 502.734 56.9195 471.184 24.7073 414.011C6.5763 381.826 4.06184 344.981 17.402 307.475C39.2121 246.174 100.857 190.484 182.328 158.51C318.376 105.097 469.114 132.677 518.293 219.997C536.424 252.183 538.939 289 525.598 326.533C503.788 387.834 442.143 443.524 360.673 475.498C313.691 493.946 264.936 502.734 219.251 502.734ZM323.855 132.809C278.329 132.809 229.759 141.57 182.91 159.966C101.863 191.781 40.5355 247.127 18.8842 308.005C5.70288 345.087 8.19093 381.482 26.0837 413.244C74.9182 499.902 224.757 527.191 360.117 474.042C441.164 442.227 502.491 386.881 524.143 326.003C537.324 288.921 534.836 252.527 516.943 220.764C484.996 164.095 409.878 132.809 323.855 132.809Z" fill="url(#paint15_linear)"/>
<path d="M235.29 514.588C135.292 514.588 47.5754 471.444 17.1895 398.603C1.1496 360.17 2.71125 318.059 21.7421 276.874C50.1958 215.228 115.52 162.927 196.488 136.987C336.692 92.0437 484.465 136.167 525.862 235.371C541.902 273.803 540.341 315.915 521.31 357.1C492.856 418.745 427.532 471.047 346.564 496.986C309.27 508.95 271.473 514.588 235.29 514.588ZM307.761 120.947C271.711 120.947 234.073 126.585 196.911 138.496C116.367 164.329 51.4134 216.287 23.1186 277.535C4.29941 318.323 2.71124 359.959 18.5924 397.994C48.7401 470.253 135.848 513.026 235.185 513.026C271.235 513.026 308.873 507.388 346.035 495.477C426.579 469.644 491.533 417.686 519.827 356.438C538.647 315.65 540.208 274.015 524.354 235.98C494.206 163.747 407.098 120.947 307.761 120.947Z" fill="url(#paint16_linear)"/>
<path d="M249.055 528.908C136.22 528.908 37.3861 471.286 11.0234 381.213C-2.34319 335.555 4.22102 287.779 29.9749 242.995C65.3634 181.508 131.852 134.871 212.423 115.019C356.041 79.6307 499.395 141.408 531.978 252.735C545.344 298.393 538.78 346.169 513.026 390.954C477.664 452.44 411.149 499.078 330.578 518.929C303.157 525.705 275.709 528.908 249.055 528.908ZM293.972 106.629C267.424 106.629 240.135 109.831 212.793 116.554C132.646 136.3 66.5015 182.673 31.3513 243.789C5.80911 288.177 -0.702178 335.529 12.5586 380.764C38.7095 470.148 136.934 527.32 249.055 527.32C275.603 527.32 302.892 524.117 330.234 517.394C410.381 497.649 476.526 451.276 511.676 390.16C537.218 345.772 543.73 298.42 530.469 253.185C504.292 163.827 406.093 106.629 293.972 106.629Z" fill="url(#paint17_linear)"/>
<path d="M259.881 545.663C134.79 545.663 26.4013 470.413 6.41755 361.839C-3.34935 308.796 9.48797 253.53 42.5472 206.284C83.7852 147.338 152.206 105.968 230.236 92.7863C376.395 68.0647 513.82 148.503 536.583 272.137C546.35 325.18 533.513 380.42 500.453 427.693C459.215 486.639 390.794 528.009 312.765 541.19C294.951 544.208 277.244 545.663 259.881 545.663ZM283.12 89.9013C265.836 89.9013 248.234 91.3571 230.5 94.3481C152.868 107.476 84.8439 148.609 43.8441 207.21C11.0231 254.112 -1.70822 308.929 7.97927 361.575C27.8307 469.355 135.558 544.102 259.881 544.102C277.164 544.102 294.766 542.646 312.5 539.655C390.132 526.527 458.156 485.395 499.156 426.793C531.977 379.891 544.709 325.075 535.021 272.429C515.196 164.622 407.469 89.9013 283.12 89.9013Z" fill="url(#paint18_linear)"/>
<path d="M267.423 564.72C130.554 564.72 14.7278 468.48 3.53156 340.425C-8.35283 204.456 102.18 83.3094 249.954 70.3662C321.525 64.0932 391.058 83.8653 445.742 126.003C500.452 168.141 533.75 227.642 539.52 293.549C545.29 359.429 522.818 423.801 476.26 474.832C429.728 525.837 364.669 557.361 293.098 563.608C284.469 564.349 275.893 564.72 267.423 564.72ZM275.867 70.8162C267.317 70.8162 258.715 71.1868 250.06 71.9544C103.159 84.8181 -6.73825 205.197 5.09319 340.293C16.2365 467.527 131.375 563.131 267.423 563.131C275.867 563.131 284.363 562.761 292.939 562.02C364.113 555.8 428.802 524.434 475.069 473.747C521.336 423.06 543.649 359.112 537.932 293.682C532.215 228.251 499.129 169.147 444.763 127.247C396.987 90.4559 337.803 70.8162 275.867 70.8162Z" fill="url(#paint19_linear)"/>
<path d="M271.5 586C123.17 586 2.5 465.33 2.5 317C2.5 168.67 123.17 48 271.5 48C419.83 48 540.5 168.67 540.5 317C540.5 465.33 419.83 586 271.5 586ZM271.5 49.5616C124.044 49.5616 4.06164 169.544 4.06164 317C4.06164 464.456 124.044 584.438 271.5 584.438C418.956 584.438 538.938 464.456 538.938 317C538.938 169.517 418.956 49.5616 271.5 49.5616Z" fill="url(#paint20_linear)"/>
<defs>
<linearGradient id="paint0_linear" x1="271.487" y1="166.095" x2="271.487" y2="467.895" gradientUnits="userSpaceOnUse">
<stop stop-color="#008FB8"/>
<stop offset="1" stop-color="#21D6FF"/>
</linearGradient>
<linearGradient id="paint1_linear" x1="271.486" y1="164.049" x2="271.486" y2="469.96" gradientUnits="userSpaceOnUse">
<stop stop-color="#008FB8"/>
<stop offset="1" stop-color="#21D6FF"/>
</linearGradient>
<linearGradient id="paint2_linear" x1="271.512" y1="162.464" x2="271.512" y2="471.526" gradientUnits="userSpaceOnUse">
<stop stop-color="#008FB8"/>
<stop offset="1" stop-color="#21D6FF"/>
</linearGradient>
<linearGradient id="paint3_linear" x1="271.513" y1="161.262" x2="271.513" y2="472.715" gradientUnits="userSpaceOnUse">
<stop stop-color="#008FB8"/>
<stop offset="1" stop-color="#21D6FF"/>
</linearGradient>
<linearGradient id="paint4_linear" x1="271.499" y1="160.61" x2="271.499" y2="473.378" gradientUnits="userSpaceOnUse">
<stop stop-color="#008FB8"/>
<stop offset="1" stop-color="#21D6FF"/>
</linearGradient>
<linearGradient id="paint5_linear" x1="271.486" y1="160.302" x2="271.486" y2="473.67" gradientUnits="userSpaceOnUse">
<stop stop-color="#008FB8"/>
<stop offset="1" stop-color="#21D6FF"/>
</linearGradient>
<linearGradient id="paint6_linear" x1="271.5" y1="160.204" x2="271.5" y2="473.751" gradientUnits="userSpaceOnUse">
<stop stop-color="#008FB8"/>
<stop offset="1" stop-color="#21D6FF"/>
</linearGradient>
<linearGradient id="paint7_linear" x1="271.513" y1="160.234" x2="271.513" y2="473.775" gradientUnits="userSpaceOnUse">
<stop stop-color="#008FB8"/>
<stop offset="1" stop-color="#21D6FF"/>
</linearGradient>
<linearGradient id="paint8_linear" x1="271.473" y1="160.105" x2="271.473" y2="473.882" gradientUnits="userSpaceOnUse">
<stop stop-color="#008FB8"/>
<stop offset="1" stop-color="#21D6FF"/>
</linearGradient>
<linearGradient id="paint9_linear" x1="271.487" y1="159.665" x2="271.487" y2="474.331" gradientUnits="userSpaceOnUse">
<stop stop-color="#008FB8"/>
<stop offset="1" stop-color="#21D6FF"/>
</linearGradient>
<linearGradient id="paint10_linear" x1="271.486" y1="158.555" x2="271.486" y2="475.444" gradientUnits="userSpaceOnUse">
<stop stop-color="#008FB8"/>
<stop offset="1" stop-color="#21D6FF"/>
</linearGradient>
<linearGradient id="paint11_linear" x1="271.501" y1="156.456" x2="271.501" y2="477.507" gradientUnits="userSpaceOnUse">
<stop stop-color="#008FB8"/>
<stop offset="1" stop-color="#21D6FF"/>
</linearGradient>
<linearGradient id="paint12_linear" x1="271.486" y1="153.048" x2="271.486" y2="480.946" gradientUnits="userSpaceOnUse">
<stop stop-color="#008FB8"/>
<stop offset="1" stop-color="#21D6FF"/>
</linearGradient>
<linearGradient id="paint13_linear" x1="271.513" y1="147.918" x2="271.513" y2="486.078" gradientUnits="userSpaceOnUse">
<stop stop-color="#008FB8"/>
<stop offset="1" stop-color="#21D6FF"/>
</linearGradient>
<linearGradient id="paint14_linear" x1="271.5" y1="140.71" x2="271.5" y2="493.259" gradientUnits="userSpaceOnUse">
<stop stop-color="#008FB8"/>
<stop offset="1" stop-color="#21D6FF"/>
</linearGradient>
<linearGradient id="paint15_linear" x1="271.5" y1="131.275" x2="271.5" y2="502.734" gradientUnits="userSpaceOnUse">
<stop stop-color="#008FB8"/>
<stop offset="1" stop-color="#21D6FF"/>
</linearGradient>
<linearGradient id="paint16_linear" x1="271.526" y1="119.389" x2="271.526" y2="514.588" gradientUnits="userSpaceOnUse">
<stop stop-color="#008FB8"/>
<stop offset="1" stop-color="#21D6FF"/>
</linearGradient>
<linearGradient id="paint17_linear" x1="271.501" y1="105.044" x2="271.501" y2="528.908" gradientUnits="userSpaceOnUse">
<stop stop-color="#008FB8"/>
<stop offset="1" stop-color="#21D6FF"/>
</linearGradient>
<linearGradient id="paint18_linear" x1="271.5" y1="88.3213" x2="271.5" y2="545.663" gradientUnits="userSpaceOnUse">
<stop stop-color="#008FB8"/>
<stop offset="1" stop-color="#21D6FF"/>
</linearGradient>
<linearGradient id="paint19_linear" x1="271.532" y1="69.2266" x2="271.532" y2="564.72" gradientUnits="userSpaceOnUse">
<stop stop-color="#008FB8"/>
<stop offset="1" stop-color="#21D6FF"/>
</linearGradient>
<linearGradient id="paint20_linear" x1="271.5" y1="48" x2="271.5" y2="586" gradientUnits="userSpaceOnUse">
<stop stop-color="#008FB8"/>
<stop offset="1" stop-color="#21D6FF"/>
</linearGradient>
</defs>
</svg>
