<svg width="500" height="422" fill="none" xmlns="http://www.w3.org/2000/svg" class="page-footer__background"><path opacity=".8" d="M144.475 12.089C164.889.303 196.731-1.315 233.32 4.815c36.539 6.122 77.613 19.935 116.328 38.768 38.717 18.834 75.027 42.663 102.062 68.786 27.057 26.144 44.702 54.466 46.365 82.281.738 12.355-3.141 25.861-10.758 39.97-7.614 14.104-18.931 28.751-32.98 43.363-28.098 29.223-67.032 58.213-108.812 82.334-41.78 24.122-86.353 43.345-125.71 53.067-19.679 4.861-38.022 7.339-54.044 6.881-16.027-.458-29.663-3.852-39.994-10.669-23.257-15.348-38.961-44.79-48.074-81.294-9.106-36.474-11.588-79.835-8.54-122.781 3.048-42.945 11.622-85.422 24.59-120.127 12.986-34.752 30.308-61.52 50.722-73.305z" stroke="url(#paint0_linear)" stroke-width="2"/><path opacity=".8" d="M297.035 10.33c22.769 6.101 46.428 27.473 67.967 57.68 21.508 30.166 40.784 68.977 54.843 109.669 14.059 40.695 22.884 83.22 23.529 120.808.646 37.619-6.903 70.122-25.396 90.966-8.214 9.259-20.507 16.066-35.87 20.657-15.357 4.589-33.717 6.943-53.983 7.341-40.532.796-88.561-6.236-135.161-18.722-46.599-12.486-91.71-30.412-126.414-51.367-17.352-10.478-32.075-21.696-43.08-33.349-11.009-11.657-18.251-23.699-20.736-35.824-5.593-27.298 4.121-59.221 23.49-91.477 19.353-32.23 48.258-64.645 80.781-92.858 32.522-28.211 68.62-52.185 102.33-67.555 33.756-15.39 64.931-22.07 87.7-15.969z" stroke="url(#paint1_linear)" stroke-width="2"/><defs><linearGradient id="paint0_linear" x1="143.975" y1="11.223" x2="346.025" y2="361.183" gradientUnits="userSpaceOnUse"><stop stop-color="#008FB8"/><stop offset="1" stop-color="#21D6FF"/></linearGradient><linearGradient id="paint1_linear" x1="297.294" y1="9.364" x2="192.705" y2="399.695" gradientUnits="userSpaceOnUse"><stop stop-color="#002682"/><stop offset="1" stop-color="#0369B8"/></linearGradient></defs></svg>