<svg width="742" height="477" viewBox="0 0 742 477" fill="none" xmlns="http://www.w3.org/2000/svg">
<path fill-rule="evenodd" clip-rule="evenodd" d="M321.552 1.10304C305.966 2.74504 294.319 5.81604 277.5 12.719C234.74 30.268 206.258 54.065 181.003 93.342C175.152 102.442 174.471 103.144 171.985 102.647C167.298 101.71 155.948 103.923 149.388 107.054C140.522 111.285 133.75 118.222 129.216 127.719C125.622 135.245 125.5 135.862 125.5 146.548C125.5 157.282 125.606 157.811 129.218 165.123C136.193 179.242 149.499 188.588 164.206 189.698C183.218 191.132 199.42 182.037 207.706 165.279C210.82 158.98 211.338 156.865 211.764 148.719C212.352 137.484 210.686 130.675 205.508 123.148C203.579 120.343 202 117.448 202 116.715C202 114.634 208.447 104.395 216.094 94.33C251.436 47.814 310.772 22.911 368.199 30.492C403.527 35.155 432.524 47.865 458.759 70.184C473.521 82.743 495.884 112.261 494.228 117C493.939 117.825 492.45 120.337 490.919 122.583C485.804 130.082 483.718 138.277 484.252 148.779C484.667 156.927 485.171 158.962 488.389 165.473C492.763 174.322 499.636 180.931 509.713 185.977C515.459 188.854 517.818 189.441 525.098 189.803C543.717 190.728 558.375 182.029 566.803 165.053C570.396 157.815 570.5 157.295 570.5 146.505C570.5 135.683 570.405 135.211 566.731 127.774C562.562 119.334 556.678 112.653 549.932 108.701C544.667 105.616 535.233 103 529.372 103C527.057 103 524.447 102.725 523.571 102.389C522.695 102.053 518.624 96.765 514.524 90.639C503.92 74.791 495.836 65.026 483.367 53C453.748 24.433 409.899 4.21003 370.696 1.03703C356.018 -0.151965 333.171 -0.120964 321.552 1.10304ZM346.5 86.89C337.216 91.175 335.657 95.249 333.041 122.058C331.89 133.851 330.284 148 329.472 153.5C328.66 159 325.975 182.175 323.505 205C317.394 261.471 317.04 264.36 316.12 265.28C314.652 266.748 313.245 263.671 306.16 243.5C302.296 232.5 296.366 215.85 292.982 206.5C289.597 197.15 284.808 183.425 282.339 176C275.777 156.264 272.947 150.816 267.32 147.088C259.625 141.992 252.233 143.07 243.879 150.508C240.672 153.362 212.287 186.163 199.501 201.789C196.221 205.798 192.629 209.298 191.518 209.567C190.408 209.836 171.315 209.931 149.09 209.778L108.679 209.5L105.114 203C100.465 194.524 94.861 189.032 86.925 185.175C74.587 179.178 60.878 179.061 48.514 184.846C36.196 190.611 28.345 200.299 24.877 214.015C22.984 221.501 22.896 223.057 23.985 229.807C26.252 243.859 29.497 249.65 39.695 257.833C49.5 265.703 54.64 267.511 67 267.439C75.344 267.391 78.629 266.93 83 265.196C93.047 261.21 100.695 253.91 107.203 242.093L108.907 239L154.703 238.956C202.817 238.91 205.34 238.7 210.185 234.345C211.314 233.33 216.557 227.325 221.836 221C227.114 214.675 234.826 205.675 238.973 201C243.12 196.325 247.698 190.971 249.148 189.101C252.524 184.748 254.459 185.448 256.325 191.698C257.114 194.339 262.488 209.55 268.268 225.5C274.048 241.45 281.928 264.175 285.778 276C301.981 325.765 306.614 334.441 318.091 336.514C325.478 337.849 334.924 332.916 338.602 325.803C339.451 324.16 340.944 315.232 342.045 305.202C343.114 295.466 344.638 282.55 345.431 276.5C346.224 270.45 347.132 262.8 347.448 259.5C352.354 208.399 358.208 159.567 359.607 158.083C359.823 157.854 360.291 157.958 360.647 158.314C361.297 158.963 379.041 215.397 388.1 245.621C394.61 267.342 396.652 272.534 400.337 276.731C405.899 283.066 414.536 284.776 422.5 281.119C430.084 277.637 430.784 276.187 444.547 235.5C452.276 212.652 455.082 205.5 456.319 205.5C457.915 205.5 461.404 208.301 485.287 228.75L497.258 239H542.58H587.903L592.394 245.943C600.688 258.763 608.426 264.488 621 267.104C640.952 271.256 659.956 261.804 669.33 243.066C673.58 234.571 674.621 227.538 673.12 217.447C670.225 197.986 655.645 183.924 635.387 181.055C617.543 178.528 601.586 186.68 592.032 203.205L588.393 209.5L549.718 209.762C520.327 209.961 510.333 209.721 508.084 208.762C506.456 208.068 498.961 201.875 491.428 195C468.636 174.199 456.772 166.002 449.5 166.032C444.623 166.052 438.371 169.505 435.142 173.962C433.355 176.429 430.491 183.371 427.993 191.289C419.805 217.241 418.846 219.926 416.863 222.447C415.758 223.851 414.464 225 413.986 225C413.508 225 410.358 216.337 406.985 205.75C403.613 195.162 397.032 174.8 392.362 160.5C387.692 146.2 381.418 126.204 378.421 116.064C375.424 105.924 371.81 95.645 370.39 93.222C365.937 85.624 355.332 82.814 346.5 86.89ZM174.806 134.148C184.773 138.973 185.266 152.209 175.696 158.044C168.145 162.648 157.725 158.756 154.93 150.288C153.343 145.478 154.49 140.901 158.247 137.058C163.716 131.465 167.786 130.75 174.806 134.148ZM535.149 134.577C547.244 140.832 541.281 160.704 527.4 160.403C518.602 160.213 511.76 151.318 514.004 142.987C516.621 133.265 525.661 129.67 535.149 134.577ZM72.329 211.364C77.351 213.463 81 218.408 81 223.117C81 234.044 70.979 241.296 61.608 237.151C58.244 235.663 56.798 234.214 55.028 230.557C51.316 222.89 53.685 215.518 61.071 211.752C65.199 209.646 67.988 209.55 72.329 211.364ZM638.451 213.091C644.385 218.302 645.201 227.016 640.394 233.856C638.562 236.462 633.319 239 629.767 239C623.442 239 616 230.753 616 223.744C616 216.092 622.403 210.131 630.715 210.044C634.037 210.009 635.676 210.655 638.451 213.091ZM169.423 256.363C166.081 257.606 161.758 259.604 159.817 260.804C154.094 264.341 147.101 272.566 143.685 279.777C140.703 286.072 140.5 287.203 140.5 297.552C140.5 308.309 140.6 308.806 144.253 316.197C152.972 333.84 170.394 343.445 188.999 340.866L196.295 339.855L202.398 346.659C211.284 356.566 212.668 357.93 221.656 365.637C237.012 378.804 259.109 391.886 278.861 399.504C291.02 404.194 311.922 409.5 324.313 411.042C336.592 412.57 366.633 411.783 380.5 409.57C420.72 403.151 459.237 382.908 489.374 352.35L500.898 340.664L512.199 340.51C528.725 340.285 537.919 336.058 546.497 324.743C553.383 315.66 555.384 309.445 555.447 296.948C555.498 286.717 555.386 286.165 551.741 278.79C540.271 255.583 512.95 247.248 490.397 260.076C484.954 263.172 477.795 270.26 474.313 276C467.331 287.512 467.27 305.863 474.169 319.1L476.2 322.997L468.965 330.748C456.278 344.341 446.575 351.903 428.5 362.284C405.095 375.725 370.366 384.065 344 382.575C312.125 380.774 289.666 374.387 264.32 359.916C247.416 350.265 224.055 330.051 222.46 323.695C222.135 322.402 222.799 317.704 223.935 313.255C228.85 294.003 224.572 274.627 213.381 265.456C208.524 261.476 199.431 256.745 193.5 255.112C186.852 253.282 176.227 253.834 169.423 256.363ZM192.287 286.567C204.242 295.296 195.341 314.35 180.6 311.585C168.101 309.24 165.869 290.027 177.5 284.9C180.752 283.466 189.37 284.438 192.287 286.567ZM521.615 287.063C524.541 289.761 527 294.787 527 298.067C527 304.544 519.033 312 512.112 312C502.05 312 495.394 301.014 499.863 291.783C502.792 285.735 506.144 283.854 513.236 284.281C517.619 284.544 519.596 285.201 521.615 287.063ZM1.571 379.571C0.188999 380.954 0 386.612 0 426.637C0 456.085 0.365004 472.814 1.035 474.066C1.836 475.562 3.137 475.997 6.785 475.985C14.696 475.959 14.461 476.602 14.808 454.038L15.117 434H23.058H31V453.066C31 464.296 31.425 472.926 32.035 474.066C32.843 475.575 34.149 476 37.978 476C46.355 476 46 478.167 46 427C46 375.833 46.355 378 37.978 378C34.149 378 32.843 378.425 32.035 379.934C31.425 381.074 31 389.704 31 400.934V420H23H15V401.223C15 379.148 14.63 378 7.515 378C4.874 378 2.521 378.622 1.571 379.571ZM79.641 380.25C78.389 382.254 74.87 396.772 63.337 447.5C57.592 472.772 57.588 472.798 58.987 474.485C59.795 475.458 61.983 476 65.099 476C71.33 476 72.109 474.813 75.27 460.5L77.699 449.5L84.5 449.201C88.241 449.036 91.678 449.278 92.137 449.737C92.597 450.197 94.103 455.684 95.485 461.932C96.867 468.18 98.503 473.901 99.121 474.646C100.523 476.335 109.151 476.449 110.8 474.8C111.46 474.14 112 472.582 112 471.338C112 469.105 95.412 395.598 92.534 385.074C90.834 378.861 89.928 378.036 84.773 378.015C81.981 378.004 80.694 378.564 79.641 380.25ZM133.45 379.326C128.01 381.419 124.314 384.843 122.225 389.722C115.838 404.644 119.861 418.094 134.137 429.548C149.315 441.726 153 446.094 153 451.903C153 460.764 143.914 465.271 137.38 459.651C135.058 457.654 134.584 456.343 134.21 450.901C133.666 442.964 132.136 441 126.5 441C120.083 441 118.548 443.286 119.398 451.578C121.16 468.781 127.212 475.123 142.5 475.786C149.685 476.098 151.059 475.846 155.985 473.317C160.522 470.987 161.948 469.572 164.235 465.136C166.55 460.644 167 458.521 167 452.082C167 439.451 163.408 434.176 144.344 418.807C136.583 412.55 134 408.359 134 402.022C134 391.628 147.055 388.275 151.452 397.54C152.303 399.334 153 403.086 153 405.878C153 410.199 153.375 411.199 155.519 412.605C158.351 414.46 164.721 413.973 166.218 411.785C166.701 411.078 166.931 406.675 166.728 402C166.197 389.788 162.358 383.137 153.768 379.548C149.413 377.728 137.928 377.603 133.45 379.326ZM179.2 379.2C177.472 380.928 177.472 473.072 179.2 474.8C180.83 476.43 189.476 476.337 190.855 474.674C191.55 473.837 192.056 466.189 192.228 453.924L192.5 434.5H200.5H208.5L208.772 453.924C208.944 466.189 209.45 473.837 210.145 474.674C211.524 476.337 220.17 476.43 221.8 474.8C223.528 473.072 223.528 380.928 221.8 379.2C220.17 377.57 211.524 377.663 210.145 379.326C209.45 380.163 208.944 387.811 208.772 400.076L208.5 419.5L200.25 419.79L192 420.081V400.24C192 386.142 191.653 380.053 190.8 379.2C189.244 377.644 180.756 377.644 179.2 379.2ZM482.2 379.2C481.301 380.099 481 392.121 481 427.143V473.887L483.223 475.443C485.01 476.695 488.587 477 501.5 477C520.569 477 522 476.477 522 469.515C522 462.593 520.81 462 506.929 462H495V421.035C495 381.558 494.93 380.033 493.066 379.035C490.431 377.625 483.673 377.727 482.2 379.2ZM532.2 379.2C531.301 380.099 531 392.128 531 427.177V473.954L533.426 475.544C535.459 476.875 538.64 477.082 553.009 476.817C568.632 476.528 570.292 476.326 571.583 474.559C573.651 471.726 573.355 466.355 571 464C569.222 462.222 567.667 462 557 462H545V448V434H555.429C563.576 434 566.201 433.656 567.429 432.429C569.442 430.416 569.449 425.086 567.443 422.223C566.004 420.167 565.101 420 555.443 420H545V406V392H557.429C571.585 392 573 391.372 573 385.084C573 378.381 571.836 378 551.371 378C538.727 378 533.044 378.356 532.2 379.2ZM584.571 379.571C583.188 380.955 583 386.686 583 427.449C583 469.393 583.157 473.884 584.661 475.128C586.88 476.96 607.949 476.924 613.381 475.078C619.236 473.088 624.594 467.697 626.69 461.687C628.281 457.128 628.5 452.87 628.5 426.5V396.5L625.5 390.5C620.486 380.472 614.943 378.014 597.321 378.006C588.487 378.001 585.813 378.33 584.571 379.571ZM654.5 379.896C649.587 382.171 645.681 386.221 643.309 391.5C641.746 394.98 641.468 399.207 641.169 424C640.793 455.236 641.312 459.946 645.93 467.228C653.166 478.638 674.341 479.703 683.258 469.105C687.512 464.05 689 457.278 689 442.973C689 426.967 689.026 427 676.244 427C667.605 427 667.04 427.133 665.073 429.635C662.323 433.13 662.455 436.546 665.455 439.545C667.174 441.265 669.015 442 671.599 442H675.289L674.685 448.472C673.73 458.694 671.363 462 665 462C656.352 462 656 460.61 656 426.473V397.846L658.923 394.923C662.03 391.816 665.266 391.253 669.343 393.11C672.468 394.534 673.715 397.358 674.574 404.954C675.091 409.521 675.797 411.445 677.356 412.537C680.112 414.467 683.996 414.391 686.909 412.351C689.139 410.789 689.236 410.267 688.749 402.451C688.034 391.004 684.654 384.698 677.136 380.789C670.493 377.335 660.852 376.955 654.5 379.896ZM701.571 379.571C700.188 380.955 700 386.692 700 427.515V473.887L702.223 475.443C704.017 476.7 707.635 477 721 477C740.629 477 742 476.51 742 469.5C742 462.852 740.153 462 725.749 462H713.944L714.222 448.25L714.5 434.5L725 434.227C736.825 433.919 738 433.262 738 426.964C738 421.006 736.003 420 724.171 420H714V406V392H726.429C740.585 392 742 391.372 742 385.084C742 378.401 740.797 378 720.743 378C706.076 378 702.881 378.262 701.571 379.571ZM610.839 395.383L613.5 398.042L613.806 424.271C613.975 438.697 613.833 452.013 613.49 453.862C612.454 459.454 609.031 462 602.545 462H597V427.667C597 408.783 597.337 392.99 597.75 392.57C598.163 392.15 600.678 392.013 603.339 392.265C606.851 392.598 608.908 393.453 610.839 395.383ZM87.459 423.046C89.504 435.659 89.643 435 84.933 435C81.538 435 80.947 434.711 81.358 433.25C81.63 432.288 82.368 428.125 83 424C84.269 415.713 84.993 412.659 85.554 413.221C85.758 413.425 86.616 417.847 87.459 423.046Z" fill="#000231"/>
</svg>
