<svg width="200" height="200" viewBox="0 0 200 200" fill="none" xmlns="http://www.w3.org/2000/svg">
<g clip-path="url(#clip0)">
<path d="M20.7724 169.622H20.7725C28.0854 178.829 38.5057 183.695 49.3659 182.92L160.556 175.019C163.264 174.827 165.885 174.288 168.358 173.433C175.581 170.933 181.625 165.728 185.525 158.451C192.216 146.034 191.351 130.701 183.286 118.438L183.013 118.598L183.286 118.438L116.048 16.257C108.679 5.05153 96.9668 -0.999063 84.7218 0.135346H84.7217C73.0164 1.22257 63.2707 8.79751 58.6577 20.3679L58.6576 20.3681L14.7052 130.45H14.705C9.54766 143.4 11.8704 158.409 20.7724 169.622ZM60.1654 20.5905L60.1589 20.5882C64.628 9.65187 73.8445 2.56439 84.8605 1.54605C96.5067 0.472043 107.695 6.23372 114.789 17.0156L182.027 119.196C189.83 131.051 190.658 145.854 184.206 157.836C179.183 167.178 170.513 172.916 160.443 173.635L49.2524 181.537C38.927 182.27 28.9809 177.641 21.955 168.792C13.3575 157.959 11.1037 143.456 16.0996 130.956H16.0997L60.0523 20.8737L60.1654 20.5905Z" fill="url(#paint0_linear)" stroke="url(#paint1_linear)" stroke-width="0.5"/>
<path d="M95.8 199.83H95.8013C107.936 200.896 118.75 196.917 125.433 188.876L193.88 106.57C195.547 104.567 196.883 102.392 197.872 100.108C200.76 93.4386 200.733 85.784 197.64 78.2354C192.386 65.3263 179.773 55.7127 164.734 53.1322L39.3994 31.6554C25.6576 29.2976 13.0467 33.3813 5.71597 42.6219H5.71584C-1.28929 51.4567 -1.88699 63.2552 4.09667 74.1589V74.159L60.9845 177.941H60.9846C67.6856 190.141 81.0232 198.529 95.8 199.83ZM5.28346 73.2623L5.27742 73.2653C-0.30546 62.8836 0.3196 51.7766 6.91599 43.4655C13.892 34.6805 25.9252 30.7661 39.1494 33.0332L39.2074 32.7374L39.1496 33.0332L164.485 54.51L164.542 54.2142L164.485 54.51C179.027 56.9995 191.2 66.2859 196.273 78.7384V78.7385C200.232 88.4418 198.915 98.2707 192.719 105.727L124.272 188.033C117.915 195.676 107.605 199.484 95.9438 198.458C81.669 197.199 68.7737 189.1 62.3174 177.312L5.42977 73.5292L5.28346 73.2623Z" fill="url(#paint2_linear)" stroke="url(#paint3_linear)" stroke-width="0.5"/>
<path d="M0.100425 118.897C0.936408 130.311 6.89867 139.686 16.4916 144.577L114.693 194.677C117.085 195.898 119.602 196.784 122.181 197.331C129.708 198.928 137.806 197.663 145.296 193.579C158.111 186.624 166.245 173.385 166.543 159.035L166.22 159.03L166.543 159.035L168.992 39.4543C169.264 26.3427 162.9 15.3206 151.932 10.0235C141.447 4.96265 128.86 6.31661 118.287 13.623L17.6361 83.1043L17.6358 83.1045C5.80659 91.2848 -0.91338 104.997 0.100425 118.897ZM119.427 14.5776L119.423 14.5724C129.51 7.72185 141.368 6.50502 151.233 11.2718C161.662 16.3139 167.752 26.8284 167.493 39.4457L167.816 39.4515L167.493 39.4457L165.044 159.026C164.762 172.901 156.903 185.68 144.543 192.394C134.911 197.63 124.294 197.999 115.397 193.465L17.196 143.365C8.0774 138.711 2.37729 129.776 1.576 118.808C0.598815 105.38 7.08474 92.1246 18.518 84.2376H18.5181L119.169 14.7562L119.427 14.5776Z" fill="url(#paint4_linear)" stroke="url(#paint5_linear)" stroke-width="0.5"/>
</g>
<defs>
<linearGradient id="paint0_linear" x1="50.0234" y1="11.5328" x2="112.604" y2="192.4" gradientUnits="userSpaceOnUse">
<stop stop-color="#008FB8"/>
<stop offset="1" stop-color="#21D6FF"/>
</linearGradient>
<linearGradient id="paint1_linear" x1="50.0234" y1="11.5328" x2="112.604" y2="192.4" gradientUnits="userSpaceOnUse">
<stop stop-color="#008FB8"/>
<stop offset="1" stop-color="#21D6FF"/>
</linearGradient>
<linearGradient id="paint2_linear" x1="-8.63405" y1="74.256" x2="174.404" y2="153.508" gradientUnits="userSpaceOnUse">
<stop stop-color="#008FB8"/>
<stop offset="1" stop-color="#21D6FF"/>
</linearGradient>
<linearGradient id="paint3_linear" x1="-8.63405" y1="74.256" x2="174.404" y2="153.508" gradientUnits="userSpaceOnUse">
<stop stop-color="#008FB8"/>
<stop offset="1" stop-color="#21D6FF"/>
</linearGradient>
<linearGradient id="paint4_linear" x1="116.123" y1="1.84508" x2="76.7643" y2="187.387" gradientUnits="userSpaceOnUse">
<stop stop-color="#008FB8"/>
<stop offset="1" stop-color="#21D6FF"/>
</linearGradient>
<linearGradient id="paint5_linear" x1="116.123" y1="1.84508" x2="76.7643" y2="187.387" gradientUnits="userSpaceOnUse">
<stop stop-color="#008FB8"/>
<stop offset="1" stop-color="#21D6FF"/>
</linearGradient>
<clipPath id="clip0">
<rect width="200" height="200" fill="white"/>
</clipPath>
</defs>
</svg>
