<?xml version="1.0" encoding="UTF-8" standalone="no"?>
<!DOCTYPE svg PUBLIC "-//W3C//DTD SVG 1.1//EN" "http://www.w3.org/Graphics/SVG/1.1/DTD/svg11.dtd">
<svg xmlns="http://www.w3.org/2000/svg" xmlns:xlink="http://www.w3.org/1999/xlink" version="1.1" width="613.2756pt" height="859.8898pt" viewBox="0 0 613.2756 859.8898">
<g enable-background="new">
<clipPath id="cp0">
<path transform="matrix(1,0,0,-1,9,850.8898)" d="M -9 -9 L 605 -9 L 605 851 L -9 851 Z " fill-rule="evenodd"/>
</clipPath>
<g clip-path="url(#cp0)">
<g id="Layer-1" data-name="Layer 1">
<path transform="matrix(1,0,0,-1,9,850.8898)" d="M 109.4545 358.2096 L 109.4545 379.0928 C 109.4545 380.7502 108.1284 382.0759 106.471 382.0759 L 104.1508 382.0759 C 102.4934 382.0759 101.1674 380.7502 101.1674 379.0928 L 101.1674 329.205 C 101.1674 327.5478 102.4934 326.2218 104.1508 326.2218 L 106.471 326.2218 C 108.1284 326.2218 109.4545 327.5478 109.4545 329.205 L 109.4545 350.0053 L 118.6529 350.0053 L 118.6529 329.205 C 118.6529 327.5478 119.9789 326.2218 121.6363 326.2218 L 123.9565 326.2218 C 125.6139 326.2218 126.94 327.5478 126.94 329.205 L 126.94 379.0928 C 126.94 380.7502 125.6139 382.0759 123.9565 382.0759 L 121.6363 382.0759 C 119.9789 382.0759 118.6529 380.7502 118.6529 379.0928 L 118.6529 358.2096 Z " fill="#231f20"/>
<path transform="matrix(1,0,0,-1,9,850.8898)" d="M 156.3585 328.5422 C 156.6901 327.299 158.0159 326.2218 159.2592 326.2218 L 161.6624 326.2218 C 163.6512 326.2218 164.9769 327.962 164.5628 329.868 L 153.1267 379.7558 C 152.8781 380.9988 151.4693 382.0759 150.2263 382.0759 L 148.4031 382.0759 C 147.1601 382.0759 145.8343 380.9988 145.5026 379.7558 L 137.9616 347.3535 L 133.9838 329.7852 C 133.5694 327.8792 134.8954 326.2218 136.8842 326.2218 L 139.2874 326.2218 C 140.5304 326.2218 141.8564 327.299 142.1878 328.5422 L 145.0882 341.4699 L 153.5411 341.4699 Z M 149.3147 362.933 C 150.8893 355.8892 150.7235 353.6518 151.6351 349.674 L 146.9942 349.674 Z " fill="#231f20"/>
<path transform="matrix(1,0,0,-1,9,850.8898)" d="M 168.4576 342.4643 C 168.4576 331.6082 173.0154 326.3046 182.1311 326.3046 C 190.9154 326.3046 195.8049 331.2768 195.8049 340.5583 C 195.8049 348.5965 190.2523 352.823 184.7832 357.0494 L 184.866 357.0494 C 180.8053 360.1984 176.7447 363.4302 176.7447 367.6567 C 176.7447 371.9659 178.6507 373.8719 182.1311 373.8719 C 185.7776 373.8719 187.5178 371.3859 187.5178 365.9165 L 187.5178 364.7563 C 187.5178 363.0988 188.8435 361.7728 190.5009 361.7728 L 192.8214 361.7728 C 194.4788 361.7728 195.8049 363.0988 195.8049 364.7563 L 195.8049 365.9165 C 195.8049 376.4409 191.0812 382.159 182.1311 382.159 C 173.3471 382.159 168.4576 376.7723 168.4576 367.4081 C 168.4576 359.204 174.1757 354.729 179.6451 350.4197 L 179.6451 350.5025 C 183.7057 347.3535 187.5178 344.2873 187.5178 340.3925 C 187.5178 336.0005 185.6117 334.5089 182.1311 334.5089 C 180.9711 334.5089 179.5623 334.6744 178.6507 335.586 C 177.4905 336.5804 176.7447 338.4865 176.7447 342.4643 L 176.7447 343.5415 C 176.7447 345.1989 175.3359 346.5249 173.7612 346.5249 L 171.4411 346.5249 C 169.7837 346.5249 168.4576 345.1989 168.4576 343.5415 Z " fill="#231f20"/>
<path transform="matrix(1,0,0,-1,9,850.8898)" d="M 209.7269 358.2096 L 209.7269 379.0928 C 209.7269 380.7502 208.4009 382.0759 206.7435 382.0759 L 204.4233 382.0759 C 202.7659 382.0759 201.4398 380.7502 201.4398 379.0928 L 201.4398 329.205 C 201.4398 327.5478 202.7659 326.2218 204.4233 326.2218 L 206.7435 326.2218 C 208.4009 326.2218 209.7269 327.5478 209.7269 329.205 L 209.7269 350.0053 L 218.9254 350.0053 L 218.9254 329.205 C 218.9254 327.5478 220.2514 326.2218 221.9088 326.2218 L 224.229 326.2218 C 225.8864 326.2218 227.2124 327.5478 227.2124 329.205 L 227.2124 379.0928 C 227.2124 380.7502 225.8864 382.0759 224.229 382.0759 L 221.9088 382.0759 C 220.2514 382.0759 218.9254 380.7502 218.9254 379.0928 L 218.9254 358.2096 Z " fill="#231f20"/>
<path transform="matrix(1,0,0,-1,9,850.8898)" d="M 396.2432 331.3664 C 396.2432 333.0238 394.9172 334.3496 393.2597 334.3496 L 380.9123 334.3496 L 380.9123 379.0165 C 380.9123 380.6739 379.5863 381.9997 378.0116 381.9997 L 375.6084 381.9997 C 373.951 381.9997 372.6252 380.6739 372.6252 379.0165 L 372.6252 329.1287 C 372.6252 327.4716 373.951 326.1455 375.6084 326.1455 L 393.2597 326.1455 C 394.9172 326.1455 396.2432 327.4716 396.2432 329.1287 Z " fill="#231f20"/>
<path transform="matrix(1,0,0,-1,9,850.8898)" d="M 403.867 381.9997 C 402.2099 381.9997 400.8838 380.6739 400.8838 379.0165 L 400.8838 329.1287 C 400.8838 327.4716 402.2099 326.1455 403.867 326.1455 L 421.7669 326.1455 C 423.4243 326.1455 424.7504 327.4716 424.7504 329.1287 L 424.7504 331.3664 C 424.7504 333.0238 423.4243 334.3496 421.7669 334.3496 L 409.0878 334.3496 L 409.0878 350.0121 L 419.5295 350.0121 C 421.187 350.0121 422.5127 351.3379 422.5127 352.9953 L 422.5127 355.2327 C 422.5127 356.8901 421.187 358.2162 419.5295 358.2162 L 409.0878 358.2162 L 409.0878 373.7957 L 421.7669 373.7957 C 423.4243 373.7957 424.7504 375.1214 424.7504 376.7788 L 424.7504 379.0165 C 424.7504 380.6739 423.4243 381.9997 421.7669 381.9997 Z " fill="#231f20"/>
<path transform="matrix(1,0,0,-1,9,850.8898)" d="M 441.8215 326.1455 C 451.7657 326.1455 456.4066 331.7808 456.4066 342.5539 L 456.4066 365.5916 C 456.4066 376.3647 451.7657 381.9997 441.8215 381.9997 L 433.3686 381.9997 C 431.7114 381.9997 430.3854 380.6739 430.3854 379.0165 L 430.3854 329.1287 C 430.3854 327.4716 431.7114 326.1455 433.3686 326.1455 Z M 441.8215 373.7957 C 446.2135 373.7957 448.0367 371.1438 448.0367 365.5916 L 448.0367 342.5539 C 448.0367 337.0014 446.2135 334.3496 441.8215 334.3496 L 438.5894 334.3496 L 438.5894 373.7957 Z " fill="#231f20"/>
<path transform="matrix(1,0,0,-1,9,850.8898)" d="M 479.2785 354.1555 C 474.3893 354.1555 474.6379 345.8684 479.2785 345.8684 L 482.1792 345.8684 L 482.1792 342.305 C 482.1792 336.9186 480.4387 334.3496 476.8753 334.3496 C 473.2291 334.3496 471.4889 336.9186 471.4889 342.305 C 471.4889 344.4596 471.4889 352.7467 471.4889 365.923 C 471.4889 369.735 472.2347 371.7238 473.3949 372.7182 C 474.3065 373.6298 475.7153 373.7957 476.8753 373.7957 C 478.0355 373.7957 479.3615 373.6298 480.3559 372.7182 C 481.3503 371.8069 482.1792 369.8178 482.1792 365.923 L 482.1792 364.7628 C 482.1792 363.1054 483.5049 361.7796 485.1624 361.7796 L 487.5656 361.7796 C 489.1402 361.7796 490.466 363.1054 490.466 364.7628 L 490.466 365.923 C 490.466 376.4475 485.9909 381.9997 476.8753 381.9997 C 467.7596 381.9997 463.2018 376.4475 463.2018 365.923 L 463.2018 342.305 C 463.2018 331.8636 467.7596 326.1455 476.8753 326.1455 C 485.9909 326.1455 490.466 331.7808 490.466 342.305 L 490.466 351.1721 C 490.466 352.8295 489.1402 354.1555 487.5656 354.1555 Z " fill="#231f20"/>
<path transform="matrix(1,0,0,-1,9,850.8898)" d="M 499.4158 381.9997 C 497.7587 381.9997 496.4326 380.6739 496.4326 379.0165 L 496.4326 329.1287 C 496.4326 327.4716 497.7587 326.1455 499.4158 326.1455 L 517.3157 326.1455 C 518.9732 326.1455 520.2992 327.4716 520.2992 329.1287 L 520.2992 331.3664 C 520.2992 333.0238 518.9732 334.3496 517.3157 334.3496 L 504.6367 334.3496 L 504.6367 350.0121 L 515.0784 350.0121 C 516.7358 350.0121 518.0615 351.3379 518.0615 352.9953 L 518.0615 355.2327 C 518.0615 356.8901 516.7358 358.2162 515.0784 358.2162 L 504.6367 358.2162 L 504.6367 373.7957 L 517.3157 373.7957 C 518.9732 373.7957 520.2992 375.1214 520.2992 376.7788 L 520.2992 379.0165 C 520.2992 380.6739 518.9732 381.9997 517.3157 381.9997 Z " fill="#231f20"/>
<path transform="matrix(1,0,0,-1,9,850.8898)" d="M 133.8338 474.7255 C 136.9905 477.4192 141.6991 477.3521 144.8688 474.2609 C 146.056 473.1032 146.7235 471.5135 146.8939 469.8278 C 147.3384 465.4329 144.5224 462.1425 141.1217 461.0795 C 132.7714 458.4696 128.0429 469.7844 133.8338 474.7255 Z M 304.5546 506.6966 C 306.5 502.2482 308.139 495.7999 309.7089 490.9612 L 317.1699 466.776 C 317.6569 465.2819 318.0886 464.3872 318.5036 463.0365 C 319.841 458.6825 323.4626 445.6911 324.9808 442.3946 C 329.6064 432.3521 340.7647 434.2751 344.3394 440.4022 C 346.1573 443.5183 351.7707 460.4686 352.7773 463.9547 L 358.3131 479.8667 C 360.8178 479.6853 364.7614 474.2218 367.5716 472.9637 C 367.6034 472.9133 367.6615 472.8949 367.6754 472.8189 C 367.6898 472.7409 367.7635 472.6959 367.7845 472.6721 L 380.4548 461.6674 C 382.1094 460.2254 382.0836 460.3584 385.0002 460.3793 L 427.9952 460.3839 C 435.1192 460.3884 432.8756 460.9259 435.8656 456.1965 C 438.1231 452.6257 441.023 448.8993 444.8548 446.9525 C 455.5233 441.5329 468.4385 443.4605 475.49 452.2768 C 479.359 457.1141 482.2421 461.7241 481.7673 469.8037 C 481.2721 478.2268 478.7093 481.6993 474.4429 486.5377 C 473.1267 487.4357 471.848 488.9044 470.1932 489.8177 C 460.1324 495.3702 448.4149 494.9626 439.9821 486.8048 C 435.8514 482.8088 435.4356 479.6986 433.4267 477.1117 C 427.9567 476.6377 398.1183 476.9994 390.1958 477.0116 C 386.7418 477.0167 385.4438 479.4219 383.5318 481.0167 C 377.816 485.8886 361.9602 502.1181 355.0289 501.7025 C 345.1235 501.1087 343.7963 489.8877 341.0725 481.7908 C 340.4364 479.8998 337.1389 466.4843 334.5205 468.4499 L 325.0746 498.0518 C 321.1733 509.8992 316.8193 522.7288 313.5776 534.6009 C 312.9372 536.9448 311.5709 541.7501 310.3106 542.8386 C 307.3927 549.5383 292.1391 549.8099 290.3726 537.5174 C 288.8872 527.1831 288.6644 516.3786 286.914 506.3791 C 286.1527 502.0285 285.5724 495.7291 285.1727 491.2897 L 280.474 448.6918 C 280.2691 446.9981 280.3728 446.0088 279.4757 444.8676 C 278.1204 445.6613 276.9729 449.8101 276.5103 451.2835 L 271.6325 464.9528 C 271.211 466.0988 270.9692 467.5127 270.5647 468.4382 C 268.5146 473.1301 266.3518 480.09 264.2641 485.4739 C 261.9014 491.5664 259.9455 499.074 257.4014 505.0117 C 256.3812 507.3925 256.2299 508.6281 254.5877 510.3893 C 247.2574 518.2526 240.374 512.7809 235.1676 506.6444 C 227.9857 498.1796 218.4817 487.3147 211.7151 478.9315 C 210.0263 476.8396 209.9585 477.0037 206.5204 477.023 C 199.1993 477.0646 166.9099 476.7146 162.6664 477.1165 C 161.699 478.4352 160.6533 480.6768 159.73 482.3096 C 152.045 495.9017 128.3743 499.1803 117.3861 480.7868 C 115.8627 478.237 116.0065 477.5961 115.077 474.567 C 113.4088 469.1299 114.5687 465.0883 115.8038 460.1171 C 117.462 453.4424 125.7523 446.5392 133.3035 444.5549 C 138.0549 443.3063 144.0717 444.0254 148.0623 445.5777 C 154.23 447.9766 157.9944 451.783 160.943 457.4061 C 162.688 460.734 161.9303 460.4063 166.4566 460.3853 C 175.2109 460.3445 212.2699 459.83 215.8449 460.8553 C 217.874 461.4369 219.5388 462.5546 220.8172 463.9731 C 222.266 465.5801 223.4126 466.7933 224.8044 468.4649 C 225.9967 469.8967 232.0764 477.0927 232.2507 477.6647 C 233.598 478.5591 241.1691 487.6914 242.598 489.426 C 243.2055 490.163 243.4221 490.604 244.6257 490.5077 C 245.2051 489.3803 245.9517 486.6163 246.3582 485.4742 C 246.9421 483.8335 247.5142 482.1676 248.1576 480.4662 C 251.6854 470.5308 255.3775 460.7634 258.8156 450.769 C 262.5321 439.9648 268.1413 420.4899 273.1558 411.071 C 277.5668 402.7856 287.0237 404.4387 290.5186 408.5929 C 293.288 411.8848 293.4842 413.2755 293.8586 418.682 L 296.7009 442.4797 C 297.4357 446.3116 297.4544 450.9533 298.0057 454.9677 C 299.0733 462.7449 302.4128 503.1232 304.5546 506.6966 Z M 455.8796 476.6754 C 466.3125 478.669 468.2336 461.3706 457.3037 460.5338 C 449.2077 459.9136 444.6437 474.5282 455.8796 476.6754 " fill="#231f20" fill-rule="evenodd"/>
<path transform="matrix(1,0,0,-1,9,850.8898)" d="M 394.7445 506.1739 C 390.4571 509.0012 389.9704 514.8207 393.5951 518.5414 C 395.8132 520.8182 398.4616 520.8591 400.574 520.3928 C 413.729 517.4895 405.0139 499.4008 394.7445 506.1739 Z M 191.2915 518.9267 C 195.8644 522.8745 204.3658 519.7589 204.2989 512.7948 C 204.2331 505.9318 195.7541 501.9352 190.4083 507.4659 C 189.0334 508.7126 188.3015 510.9659 188.2854 512.8007 C 188.2624 515.3771 189.525 517.2698 191.2915 518.9267 Z M 260.1249 589.1658 C 253.6483 586.2665 253.1421 586.8235 245.0826 582.3629 C 231.9457 575.0918 221.9638 567.1658 213.1605 556.302 C 206.6136 548.2233 207.5335 549.0011 202.7146 541.6716 C 202.1323 540.786 201.5374 540.174 201.1388 539.3982 C 199.6858 536.5712 200.8247 537.6784 195.7697 537.5339 C 175.6729 536.959 165.7644 515.1696 175.1145 499.9584 C 186.594 481.2829 212.9414 485.985 219.3415 503.6153 C 222.2838 511.7204 221.5505 520.4866 216.9374 526.487 C 215.5215 528.3289 214.4296 528.8159 215.9116 531.4042 C 216.6857 532.7563 217.6937 534.3843 218.6646 535.8231 C 233.3302 557.5595 252.9615 571.701 279.1791 577.0556 C 311.315 583.619 346.9017 572.4181 368.5569 547.494 C 369.61 546.2821 370.698 544.6831 371.7604 543.5266 C 373.4722 541.6631 380.1617 532.4737 380.4775 530.3251 C 380.8383 527.8686 375.0715 524.8205 374.4757 514.44 C 373.9725 505.6781 377.553 498.3358 383.1429 493.9971 C 388.7748 489.6255 395.4892 486.2954 405.0547 488.5937 C 415.6824 491.1474 424.0188 500.976 423.881 513.1312 C 423.7931 520.8746 419.8836 527.9196 414.3331 532.364 C 409.5054 536.2302 404.0181 537.3904 397.6815 537.5126 C 395.1465 537.5614 395.3163 539.1258 394.0087 541.0542 C 385.4492 553.6774 382.729 557.803 370.9276 568.7447 C 365.8572 573.4454 355.2829 580.1743 349.2944 583.2995 C 347.4567 584.2587 346.2724 584.8319 344.5234 585.648 C 343.76 586.0043 342.9422 586.5131 342.1562 586.8227 C 337.074 588.8248 334.2294 589.911 328.6029 591.5254 C 324.8674 592.5971 320.4074 593.8588 316.6004 594.2826 C 298.9329 596.249 276.7524 596.6093 260.1249 589.1658 " fill="#231f20" fill-rule="evenodd"/>
<path transform="matrix(1,0,0,-1,9,850.8898)" d="M 212.7453 425.3924 C 212.1557 422.4169 208.7884 419.5689 205.8837 419.3019 C 200.7649 418.8314 196.8296 422.5124 196.9611 427.1034 C 197.3092 439.2607 214.9773 436.659 212.7453 425.3924 Z M 389.8658 435.0662 C 398.4231 435.5399 400.9243 426.1963 396.6395 422.0099 C 392.6075 418.0703 386.7239 418.0802 383.6018 423.4932 C 382.7381 424.9911 382.3764 427.1596 382.8424 429.1668 C 382.928 429.5358 383.0417 429.8992 383.1851 430.2522 C 384.3882 433.2098 386.7273 434.8925 389.8658 435.0662 Z M 199.7325 451.6075 C 192.856 449.7551 187.9316 446.4388 184.5485 441.6259 C 173.9367 426.5289 182.8471 406.3805 200.3196 402.8003 C 205.3159 401.7764 211.1389 403.3675 211.6689 403.2842 C 212.8329 403.1008 213.942 401.2183 214.7981 400.2208 C 221.5857 392.313 229.487 385.4954 238.591 379.7691 C 241.3213 378.0516 244.0517 376.7102 246.7026 375.1546 C 249.5015 373.5119 252.1451 372.3735 255.2632 371.0599 C 264.4656 367.1827 274.8634 364.3707 285.0432 363.0603 C 295.8724 361.6662 310.4442 362.8185 320.5848 364.8362 C 324.5556 365.6262 327.0385 366.3105 330.6634 367.4701 C 332.4138 368.03 333.8388 368.0527 335.5016 368.8478 C 343.4905 372.668 348.0574 373.7659 356.8819 379.3603 C 362.4406 382.8841 373.7798 391.6545 377.8458 396.5204 C 378.8782 397.7558 383.4448 402.7598 384.1308 402.9755 C 386.5107 403.7241 395.0388 400.2446 404.8982 406.9483 C 414.15 413.2386 418.324 427.5343 412.899 438.1325 C 405.5221 452.5441 387.6789 456.6144 374.8978 446.3685 C 365.3651 438.7269 363.1136 425.4069 369.1723 414.8702 C 370.4417 412.6626 369.4816 411.9602 368.0379 410.54 C 363.8934 406.4632 360.4017 402.1954 354.9407 398.2589 L 347.3087 393.1586 C 344.6731 391.4768 341.9493 390.1246 339.1926 388.5684 L 330.1889 384.8386 C 324.1242 382.5043 316.688 381.0059 310.0504 379.9227 C 301.2432 378.4861 283.3571 379.5446 274.8591 382.1162 C 271.8479 383.0275 267.9817 383.8003 265.0343 385.0407 C 263.3485 385.7502 262.6084 386.4722 260.964 387.0207 C 258.9823 387.6817 257.9508 388.1245 256.3157 388.9488 C 253.3975 390.4203 250.9877 391.6786 248.0338 393.4086 C 246.7057 394.1867 245.7403 395.0674 244.4207 395.9875 C 242.9575 397.008 241.9696 397.5681 240.554 398.6388 C 235.3754 402.5548 231.391 406.5857 227.4786 410.9902 C 223.8386 415.0877 233.9768 424.0531 225.93 440.3665 C 222.4426 447.4369 209.5764 454.2593 199.7325 451.6075 " fill="#231f20" fill-rule="evenodd"/>
<path transform="matrix(1,0,0,-1,9,850.8898)" d="M 82.366 278.0396 L 71.8271 278.0396 L 71.8271 255.4282 L 67.0411 255.4282 L 67.0411 278.0396 L 56.4769 278.0396 L 56.4769 283.0419 L 82.366 283.0419 Z " fill="#231f20"/>
<path transform="matrix(1,0,0,-1,9,850.8898)" d="M 104.65 269.35 C 104.65 268.6598 104.5307 267.9106 104.2982 267.1087 C 104.0658 266.3067 103.6891 265.5641 103.1675 264.8738 C 102.6465 264.1901 101.9619 263.6118 101.1266 263.1515 C 100.2849 262.6849 99.2611 262.455 98.0614 262.455 L 89.4317 262.455 L 89.4317 267.2138 L 98.0614 267.2138 C 98.7083 267.2138 99.2106 267.4242 99.5689 267.8383 C 99.9269 268.259 100.1027 268.7717 100.1027 269.3894 C 100.1027 270.0468 99.9017 270.5596 99.506 270.9275 C 99.104 271.3022 98.6267 271.4865 98.0614 271.4865 L 89.4317 271.4865 C 88.7786 271.4865 88.276 271.2827 87.9245 270.862 C 87.5665 270.4479 87.3907 269.9286 87.3907 269.3106 L 87.3907 262.3235 C 87.3907 261.6531 87.5854 261.1338 87.9874 260.7656 C 88.3828 260.3908 88.8789 260.2069 89.4694 260.2069 L 98.0614 260.2069 L 98.0614 255.4282 L 89.4317 255.4282 C 88.7661 255.4282 88.0563 255.5532 87.2901 255.7964 C 86.5176 256.0397 85.8078 256.434 85.1547 256.9793 C 84.4951 257.525 83.9486 258.2348 83.5027 259.1158 C 83.0631 259.9965 82.8434 261.0615 82.8434 262.3235 L 82.8434 269.35 C 82.8434 270.0468 82.9627 270.7897 83.1951 271.5917 C 83.4276 272.4001 83.8043 273.1428 84.3256 273.8265 C 84.8469 274.5164 85.5252 275.0885 86.3668 275.5551 C 87.2084 276.0151 88.2261 276.2453 89.4317 276.2453 L 98.0614 276.2453 C 98.7211 276.2453 99.4368 276.1203 100.203 275.8771 C 100.9695 275.6339 101.6855 275.2396 102.3386 274.6939 C 102.9917 274.1485 103.5448 273.4384 103.9842 272.5577 C 104.4238 271.677 104.65 270.612 104.65 269.35 " fill="#231f20"/>
<path transform="matrix(1,0,0,-1,9,850.8898)" d="M 127.135 255.4282 L 114.1588 255.4282 C 113.4995 255.4282 112.7772 255.5532 111.992 255.7964 C 111.2071 256.0397 110.4786 256.4405 109.8128 256.9992 C 109.1407 257.5579 108.5817 258.281 108.1358 259.1748 C 107.6899 260.0688 107.4637 261.1599 107.4637 262.455 L 107.4637 269.2383 C 107.4637 269.7117 107.5141 270.2112 107.6207 270.737 C 107.7214 271.2628 107.8846 271.7887 108.1043 272.308 C 108.3305 272.8273 108.6131 273.3267 108.9646 273.8001 C 109.3105 274.2732 109.7374 274.6939 110.2334 275.0491 C 110.7298 275.4105 111.3012 275.6996 111.9543 275.9168 C 112.6012 276.1336 113.3425 276.2453 114.1588 276.2453 L 127.135 276.2453 L 127.135 271.2365 L 114.1588 271.2365 C 113.5372 271.2365 113.0598 271.0723 112.733 270.737 C 112.413 270.4017 112.2497 269.8892 112.2497 269.1989 L 112.2497 262.455 C 112.2497 261.8042 112.413 261.3047 112.7458 260.9563 C 113.0788 260.608 113.5621 260.437 114.1965 260.437 L 127.135 260.437 Z " fill="#231f20"/>
<path transform="matrix(1,0,0,-1,9,850.8898)" d="M 153.2061 255.4282 L 148.4203 255.4282 L 148.4203 269.2383 C 148.4203 269.8892 148.2633 270.3886 147.943 270.7305 C 147.6227 271.0655 147.1453 271.2365 146.5109 271.2365 L 137.8811 271.2365 L 137.8811 276.2453 L 146.5109 276.2453 C 146.9633 276.2453 147.4404 276.1926 147.943 276.0809 C 148.4453 275.9692 148.9479 275.8048 149.4439 275.5684 C 149.9403 275.3382 150.4174 275.0423 150.8698 274.6743 C 151.3222 274.3129 151.7241 273.8659 152.0631 273.3466 C 152.4084 272.8273 152.6851 272.2292 152.8923 271.5454 C 153.0995 270.8685 153.2061 270.093 153.2061 269.2383 Z M 135.9468 255.4282 L 131.161 255.4282 L 131.161 285.0466 L 135.9468 285.0466 Z " fill="#231f20"/>
<path transform="matrix(1,0,0,-1,9,850.8898)" d="M 179.6289 255.4282 L 174.8432 255.4282 L 174.8432 266.9837 C 174.8432 267.6345 174.7363 268.2261 174.5229 268.7454 C 174.3092 269.2647 174.0206 269.7117 173.6498 270.0862 C 173.2791 270.4544 172.8524 270.7435 172.3496 270.9408 C 171.8538 271.1381 171.3197 271.2365 170.7418 271.2365 L 162.3696 271.2365 L 162.3696 255.4282 L 157.5836 255.4282 L 157.5836 273.7607 C 157.5836 274.1091 157.6466 274.4311 157.7721 274.7336 C 157.8917 275.0357 158.0675 275.2988 158.2872 275.5222 C 158.5071 275.7458 158.7645 275.9233 159.0599 276.0548 C 159.3547 276.1795 159.6691 276.2453 159.9956 276.2453 L 170.7795 276.2453 C 171.3824 276.2453 172.0168 276.173 172.6824 276.035 C 173.3547 275.8904 174.0141 275.6667 174.6734 275.3512 C 175.3268 275.0357 175.955 274.6349 176.5451 274.155 C 177.1418 273.6751 177.6694 273.09 178.128 272.4066 C 178.5929 271.7164 178.9571 270.921 179.2273 270.0272 C 179.4971 269.1266 179.6289 268.1144 179.6289 266.9837 Z " fill="#231f20"/>
<path transform="matrix(1,0,0,-1,9,850.8898)" d="M 205.4682 262.455 C 205.4682 261.6004 205.3613 260.8248 205.1538 260.1346 C 204.9466 259.4509 204.6705 258.8462 204.3249 258.3269 C 203.9794 257.8076 203.5837 257.3606 203.1316 256.9992 C 202.6732 256.631 202.2021 256.3353 201.706 256.1051 C 201.2097 255.8687 200.7011 255.6978 200.1923 255.5926 C 199.6835 255.4809 199.2061 255.4282 198.7475 255.4282 L 190.118 255.4282 C 189.4584 255.4282 188.7364 255.5532 187.9512 255.7964 C 187.1663 256.0397 186.4375 256.4405 185.7719 256.9992 C 185.0998 257.5579 184.5408 258.281 184.0946 259.1748 C 183.6488 260.0688 183.4226 261.1599 183.4226 262.455 L 183.4226 269.2383 C 183.4226 270.5202 183.6488 271.6047 184.0946 272.4987 C 184.5408 273.3925 185.0998 274.1156 185.7719 274.6743 C 186.4375 275.233 187.1663 275.6339 187.9512 275.8771 C 188.7364 276.1203 189.4584 276.2453 190.118 276.2453 L 198.7475 276.2453 C 199.9786 276.2453 201.0212 276.0151 201.8755 275.5551 C 202.7358 275.0885 203.4332 274.5099 203.9607 273.8066 C 204.4882 273.1099 204.8715 272.3474 205.1101 271.5259 C 205.3485 270.7041 205.4682 269.9416 205.4682 269.2383 Z M 200.6821 269.1989 C 200.6821 269.8892 200.5189 270.4017 200.1858 270.737 C 199.853 271.0723 199.3757 271.2365 198.7475 271.2365 L 190.1557 271.2365 C 189.5213 271.2365 189.0377 271.0655 188.7049 270.7305 C 188.3721 270.3886 188.2086 269.8892 188.2086 269.2383 L 188.2086 262.455 C 188.2086 261.8042 188.3721 261.3047 188.7049 260.9563 C 189.0377 260.608 189.5213 260.437 190.1557 260.437 L 198.7475 260.437 C 199.4009 260.437 199.8845 260.608 200.2048 260.9563 C 200.5254 261.3047 200.6821 261.8042 200.6821 262.455 Z " fill="#231f20"/>
<path transform="matrix(1,0,0,-1,9,850.8898)" d="M 218.2745 255.4282 L 216.1392 255.4282 C 215.4546 255.4282 214.7196 255.5532 213.9409 255.7964 C 213.162 256.0397 212.4334 256.4405 211.7614 256.9992 C 211.0893 257.5579 210.5303 258.281 210.0844 259.1748 C 209.645 260.0688 209.425 261.1599 209.425 262.455 L 209.425 285.0466 L 214.2111 285.0466 L 214.2111 262.455 C 214.2111 261.8436 214.393 261.3506 214.7573 260.9824 C 215.1278 260.621 215.5864 260.437 216.1392 260.437 L 218.2745 260.437 Z " fill="#231f20"/>
<path transform="matrix(1,0,0,-1,9,850.8898)" d="M 242.9892 262.455 C 242.9892 261.6004 242.8826 260.8248 242.6751 260.1346 C 242.4679 259.4509 242.1916 258.8462 241.8463 258.3269 C 241.5008 257.8076 241.105 257.3606 240.6529 256.9992 C 240.1943 256.631 239.7234 256.3353 239.2271 256.1051 C 238.731 255.8687 238.2222 255.6978 237.7137 255.5926 C 237.2046 255.4809 236.7275 255.4282 236.2689 255.4282 L 227.6391 255.4282 C 226.9797 255.4282 226.2574 255.5532 225.4723 255.7964 C 224.6873 256.0397 223.9588 256.4405 223.293 256.9992 C 222.6212 257.5579 222.0619 258.281 221.616 259.1748 C 221.1701 260.0688 220.9439 261.1599 220.9439 262.455 L 220.9439 269.2383 C 220.9439 270.5202 221.1701 271.6047 221.616 272.4987 C 222.0619 273.3925 222.6212 274.1156 223.293 274.6743 C 223.9588 275.233 224.6873 275.6339 225.4723 275.8771 C 226.2574 276.1203 226.9797 276.2453 227.6391 276.2453 L 236.2689 276.2453 C 237.4999 276.2453 238.5425 276.0151 239.3966 275.5551 C 240.2572 275.0885 240.9542 274.5099 241.482 273.8066 C 242.0093 273.1099 242.3925 272.3474 242.6312 271.5259 C 242.8699 270.7041 242.9892 269.9416 242.9892 269.2383 Z M 238.2032 269.1989 C 238.2032 269.8892 238.0399 270.4017 237.7071 270.737 C 237.3741 271.0723 236.897 271.2365 236.2689 271.2365 L 227.6768 271.2365 C 227.0424 271.2365 226.5591 271.0655 226.226 270.7305 C 225.8932 270.3886 225.7299 269.8892 225.7299 269.2383 L 225.7299 262.455 C 225.7299 261.8042 225.8932 261.3047 226.226 260.9563 C 226.5591 260.608 227.0424 260.437 227.6768 260.437 L 236.2689 260.437 C 236.9222 260.437 237.4055 260.608 237.7261 260.9563 C 238.0465 261.3047 238.2032 261.8042 238.2032 262.455 Z " fill="#231f20"/>
<path transform="matrix(1,0,0,-1,9,850.8898)" d="M 268.6963 253.4236 C 268.6963 252.5624 268.5898 251.7934 268.3823 251.1031 C 268.1751 250.4194 267.8987 249.8148 267.5534 249.2955 C 267.2079 248.7762 266.8122 248.3291 266.36 247.9677 C 265.9014 247.5995 265.4306 247.3038 264.9342 247.0737 C 264.4379 246.8373 263.9293 246.6663 263.4208 246.5612 C 262.9117 246.4495 262.4346 246.3968 261.976 246.3968 L 253.3462 246.3968 L 253.3462 251.4056 L 261.976 251.4056 C 262.6294 251.4056 263.1127 251.5765 263.4333 251.9249 C 263.7536 252.2733 263.9103 252.7727 263.9103 253.4236 L 263.9103 269.2383 C 263.9103 269.8892 263.7536 270.3886 263.4333 270.7305 C 263.1127 271.0655 262.6294 271.2365 261.976 271.2365 L 253.3462 271.2365 C 252.7622 271.2365 252.2911 271.046 251.9518 270.6712 C 251.6066 270.29 251.437 269.8169 251.437 269.2383 L 251.437 262.455 C 251.437 261.8042 251.6003 261.3047 251.9331 260.9563 C 252.2662 260.608 252.7495 260.437 253.3839 260.437 L 261.976 260.437 L 261.976 255.4282 L 253.3462 255.4282 C 252.894 255.4282 252.4167 255.4809 251.9141 255.5926 C 251.4118 255.6978 250.9092 255.8687 250.4132 256.1051 C 249.9168 256.3353 249.4397 256.631 248.9873 256.9992 C 248.5352 257.3606 248.1333 257.8076 247.7942 258.3269 C 247.4487 258.8462 247.1723 259.4509 246.9651 260.1346 C 246.7576 260.8248 246.651 261.6004 246.651 262.455 L 246.651 269.2383 C 246.651 269.7117 246.7015 270.2112 246.8081 270.737 C 246.9087 271.2628 247.072 271.7887 247.2917 272.308 C 247.5176 272.8273 247.8005 273.3267 248.152 273.8001 C 248.4978 274.2732 248.9244 274.6939 249.4208 275.0491 C 249.9168 275.4105 250.4886 275.6996 251.1417 275.9168 C 251.7885 276.1336 252.5298 276.2453 253.3462 276.2453 L 261.976 276.2453 C 262.4346 276.2453 262.9117 276.1926 263.4208 276.0809 C 263.9293 275.9692 264.4379 275.8048 264.9342 275.5684 C 265.4306 275.3382 265.9014 275.0423 266.36 274.6743 C 266.8122 274.3129 267.2079 273.8659 267.5534 273.3466 C 267.8987 272.8273 268.1751 272.2292 268.3823 271.5454 C 268.5898 270.8685 268.6963 270.093 268.6963 269.2383 Z " fill="#231f20"/>
<path transform="matrix(1,0,0,-1,9,850.8898)" d="M 295.0126 253.4236 C 295.0126 252.5624 294.9058 251.7934 294.6986 251.1031 C 294.4913 250.4194 294.215 249.8148 293.8694 249.2955 C 293.5239 248.7762 293.1282 248.3291 292.6763 247.9677 C 292.2177 247.5995 291.7466 247.3038 291.2505 247.0737 C 290.7479 246.8373 290.2518 246.6663 289.7493 246.5612 C 289.247 246.4495 288.7693 246.3968 288.3112 246.3968 L 279.6814 246.3968 L 279.6814 251.4056 L 288.3112 251.4056 C 288.9516 251.4056 289.4289 251.5765 289.7493 251.9249 C 290.0696 252.2733 290.2266 252.7727 290.2266 253.4236 L 290.2266 276.2453 L 295.0126 276.2453 Z M 288.3112 255.4282 L 279.6814 255.4282 C 278.9966 255.4282 278.2619 255.5532 277.4832 255.7964 C 276.7042 256.0397 275.9757 256.4405 275.3036 256.9992 C 274.6315 257.5579 274.0725 258.281 273.6266 259.1748 C 273.1873 260.0688 272.9673 261.1599 272.9673 262.455 L 272.9673 276.2453 L 277.7533 276.2453 L 277.7533 262.455 C 277.7533 261.8042 277.9166 261.3047 278.2494 260.9563 C 278.5759 260.608 279.072 260.437 279.7191 260.437 L 288.3112 260.437 Z " fill="#231f20"/>
<path transform="matrix(1,0,0,-1,9,850.8898)" d="M 338.2174 257.9522 C 338.2174 257.5908 338.1545 257.2554 338.0292 256.9467 C 337.9099 256.6443 337.7339 256.3747 337.5142 256.1513 C 337.2945 255.9277 337.0368 255.7502 336.7414 255.6187 C 336.4464 255.494 336.1385 255.4282 335.8057 255.4282 L 325.0216 255.4282 C 324.0043 255.4282 322.9744 255.5464 321.9318 255.7766 C 320.889 256.0068 319.8779 256.3617 318.9044 256.8416 C 317.931 257.3277 317.0137 257.9391 316.1534 258.6818 C 315.2928 259.4248 314.5456 260.312 313.8985 261.3308 C 313.2578 262.3496 312.7493 263.5197 312.3788 264.8344 C 312.0146 266.1489 311.826 267.6214 311.826 269.2383 L 311.826 283.0419 L 316.6118 283.0419 L 316.6118 269.2383 C 316.6118 267.8253 316.8006 266.6288 317.1773 265.6559 C 317.5478 264.6765 318.0249 263.8616 318.6028 263.2107 C 319.1746 262.5534 319.8087 262.0409 320.4933 261.6661 C 321.1843 261.2979 321.8374 261.0218 322.4529 260.8379 C 323.0748 260.6604 323.621 260.5487 324.0921 260.5028 C 324.5635 260.4566 324.8773 260.437 325.0216 260.437 L 333.4317 260.437 L 333.4317 283.0419 L 338.2174 283.0419 Z " fill="#231f20"/>
<path transform="matrix(1,0,0,-1,9,850.8898)" d="M 365.2812 255.4282 L 360.4952 255.4282 L 360.4952 266.9837 C 360.4952 267.6345 360.3886 268.2261 360.1752 268.7454 C 359.9614 269.2647 359.6726 269.7117 359.3018 270.0862 C 358.9313 270.4544 358.5044 270.7435 358.0019 270.9408 C 357.5058 271.1381 356.972 271.2365 356.394 271.2365 L 348.0219 271.2365 L 348.0219 255.4282 L 343.2359 255.4282 L 343.2359 273.7607 C 343.2359 274.1091 343.2986 274.4311 343.4244 274.7336 C 343.5437 275.0357 343.7195 275.2988 343.9392 275.5222 C 344.1591 275.7458 344.4168 275.9233 344.7119 276.0548 C 345.007 276.1795 345.3211 276.2453 345.6479 276.2453 L 356.4315 276.2453 C 357.0344 276.2453 357.6688 276.173 358.3346 276.035 C 359.007 275.8904 359.6661 275.6667 360.3257 275.3512 C 360.9791 275.0357 361.607 274.6349 362.1974 274.155 C 362.7941 273.6751 363.3216 273.09 363.7803 272.4066 C 364.2449 271.7164 364.6091 270.921 364.8793 270.0272 C 365.1494 269.1266 365.2812 268.1144 365.2812 266.9837 Z " fill="#231f20"/>
<path transform="matrix(1,0,0,-1,9,850.8898)" d="M 388.7082 262.455 C 388.7082 261.6004 388.6016 260.8248 388.3944 260.1346 C 388.1871 259.4509 387.9108 258.8462 387.5652 258.3269 C 387.2262 257.8076 386.8243 257.3606 386.3718 256.9992 C 385.9197 256.631 385.4424 256.3353 384.9463 256.1051 C 384.4502 255.8687 383.9477 255.6978 383.4388 255.5926 C 382.93 255.4809 382.4467 255.4282 381.9943 255.4282 L 369.0371 255.4282 L 369.0371 260.437 L 381.9566 260.437 C 382.6035 260.437 383.0936 260.608 383.4264 260.9563 C 383.7591 261.3047 383.9224 261.8042 383.9224 262.455 C 383.866 263.7893 383.2191 264.4597 381.9943 264.4597 L 374.5766 264.4597 C 373.5218 264.4597 372.6235 264.6502 371.8888 265.0382 C 371.154 265.4195 370.5574 265.9056 370.0987 266.4842 C 369.6338 267.0627 369.3073 267.6804 369.1001 268.3511 C 368.8991 269.015 368.7985 269.6394 368.7985 270.2177 C 368.7985 271.3351 368.987 272.2751 369.3699 273.0376 C 369.7469 273.8001 370.2305 274.4246 370.802 274.8977 C 371.3797 275.3711 372.0078 275.7129 372.6799 275.9298 C 373.3583 276.1401 373.9864 276.2453 374.5766 276.2453 L 386.3341 276.2453 L 386.3341 271.2365 L 374.6143 271.2365 C 374.3694 271.2365 374.1746 271.2104 374.0366 271.1511 C 373.8923 271.0919 373.7917 271.0196 373.7228 270.921 C 373.6536 270.8223 373.6159 270.724 373.6032 270.612 C 373.5907 270.5003 373.5845 270.3951 373.5845 270.2965 C 373.5969 270.0862 373.6346 269.9286 373.6913 269.8169 C 373.754 269.6984 373.8294 269.6131 373.9238 269.5603 C 374.0179 269.5144 374.1185 269.4815 374.2376 269.475 C 374.3507 269.4685 374.4638 269.4685 374.5766 269.4685 L 381.9943 269.4685 C 383.2191 269.4685 384.2617 269.2383 385.122 268.7717 C 385.9761 268.3114 386.6734 267.7331 387.201 267.0299 C 387.7285 266.3331 388.1117 265.5706 388.3504 264.7488 C 388.5891 263.9273 388.7082 263.1648 388.7082 262.455 " fill="#231f20"/>
<path transform="matrix(1,0,0,-1,9,850.8898)" d="M 411.3255 255.4282 L 398.3494 255.4282 C 397.6897 255.4282 396.9677 255.5532 396.1826 255.7964 C 395.3976 256.0397 394.6689 256.4405 394.0033 256.9992 C 393.3312 257.5579 392.7722 258.281 392.326 259.1748 C 391.8801 260.0688 391.6542 261.1599 391.6542 262.455 L 391.6542 269.2383 C 391.6542 269.7117 391.7044 270.2112 391.8112 270.737 C 391.9116 271.2628 392.0749 271.7887 392.2946 272.308 C 392.5208 272.8273 392.8037 273.3267 393.1551 273.8001 C 393.5007 274.2732 393.9276 274.6939 394.4239 275.0491 C 394.92 275.4105 395.4915 275.6996 396.1449 275.9168 C 396.7917 276.1336 397.533 276.2453 398.3494 276.2453 L 411.3255 276.2453 L 411.3255 271.2365 L 398.3494 271.2365 C 397.7277 271.2365 397.2501 271.0723 396.9235 270.737 C 396.6035 270.4017 396.4402 269.8892 396.4402 269.1989 L 396.4402 262.455 C 396.4402 261.8042 396.6035 261.3047 396.9363 260.9563 C 397.2691 260.608 397.7527 260.437 398.3871 260.437 L 411.3255 260.437 Z " fill="#231f20"/>
<path transform="matrix(1,0,0,-1,9,850.8898)" d="M 432.686 271.2365 L 421.9211 271.2365 C 421.274 271.2365 420.7776 271.0655 420.4514 270.7305 C 420.1186 270.3886 419.955 269.8892 419.955 269.2383 L 419.955 255.4282 L 415.169 255.4282 L 415.169 269.2383 C 415.169 270.093 415.2696 270.8685 415.4834 271.5454 C 415.6906 272.2292 415.9667 272.8273 416.3187 273.3466 C 416.6702 273.8659 417.0722 274.3129 417.5246 274.6743 C 417.9764 275.0423 418.4541 275.3382 418.9501 275.5684 C 419.4462 275.8048 419.9488 275.9692 420.4576 276.0809 C 420.9661 276.1926 421.4435 276.2453 421.8834 276.2453 L 432.686 276.2453 Z " fill="#231f20"/>
<path transform="matrix(1,0,0,-1,9,850.8898)" d="M 440.6876 280.518 L 435.9019 280.518 L 435.9019 285.0466 L 440.6876 285.0466 Z M 440.6876 255.4282 L 435.9019 255.4282 L 435.9019 276.2453 L 440.6876 276.2453 Z " fill="#231f20"/>
<path transform="matrix(1,0,0,-1,9,850.8898)" d="M 467.2049 262.455 C 467.2049 261.6004 467.0983 260.8248 466.8908 260.1346 C 466.6836 259.4509 466.4072 258.8462 466.0617 258.3269 C 465.7164 257.8076 465.3207 257.3606 464.8686 256.9992 C 464.4099 256.631 463.9391 256.3353 463.4427 256.1051 C 462.9404 255.8687 462.4441 255.6978 461.9418 255.5926 C 461.4392 255.4809 460.9616 255.4282 460.5035 255.4282 L 451.8737 255.4282 L 451.8737 260.437 L 460.5035 260.437 C 461.1441 260.437 461.6212 260.608 461.9418 260.9563 C 462.2618 261.3047 462.4189 261.8042 462.4189 262.455 L 462.4189 269.1989 C 462.4189 269.8892 462.2556 270.4017 461.929 270.737 C 461.6025 271.0723 461.1314 271.2365 460.5035 271.2365 L 451.9114 271.2365 C 451.2643 271.2365 450.7682 271.0655 450.4416 270.7305 C 450.1089 270.3886 449.9456 269.8892 449.9456 269.2383 L 449.9456 248.9207 L 445.1596 248.9207 L 445.1596 269.2383 C 445.1596 270.093 445.2599 270.8685 445.4736 271.5454 C 445.6809 272.2292 445.9572 272.8273 446.309 273.3466 C 446.6605 273.8659 447.0625 274.3129 447.5149 274.6743 C 447.967 275.0423 448.4443 275.3382 448.9407 275.5684 C 449.4365 275.8048 449.9393 275.9692 450.4479 276.0809 C 450.9567 276.1926 451.4338 276.2453 451.8737 276.2453 L 460.5035 276.2453 C 461.3261 276.2453 462.0609 276.1336 462.7142 275.9168 C 463.3608 275.6996 463.9391 275.4105 464.4351 275.0491 C 464.9312 274.6939 465.3519 274.2732 465.7039 273.8001 C 466.0492 273.3267 466.338 272.8273 466.5577 272.308 C 466.7777 271.7887 466.941 271.2628 467.0478 270.737 C 467.1482 270.2112 467.2049 269.7117 467.2049 269.2383 Z " fill="#231f20"/>
<path transform="matrix(1,0,0,-1,9,850.8898)" d="M 489.2814 271.2365 L 480.928 271.2365 L 480.928 255.4282 L 476.0921 255.4282 L 476.0921 271.2365 L 469.8743 271.2365 L 469.8743 276.2453 L 476.0921 276.2453 L 476.0921 283.0419 L 480.928 283.0419 L 480.928 276.2453 L 489.2814 276.2453 Z " fill="#231f20"/>
<path transform="matrix(1,0,0,-1,9,850.8898)" d="M 513.7574 269.35 C 513.7574 268.6598 513.6381 267.9106 513.4056 267.1087 C 513.1732 266.3067 512.7965 265.5641 512.2752 264.8738 C 511.7539 264.1901 511.0693 263.6118 510.234 263.1515 C 509.3923 262.6849 508.3685 262.455 507.1689 262.455 L 498.5393 262.455 L 498.5393 267.2138 L 507.1689 267.2138 C 507.8157 267.2138 508.3183 267.4242 508.6763 267.8383 C 509.0343 268.259 509.2101 268.7717 509.2101 269.3894 C 509.2101 270.0468 509.0091 270.5596 508.6134 270.9275 C 508.2114 271.3022 507.7344 271.4865 507.1689 271.4865 L 498.5393 271.4865 C 497.886 271.4865 497.3837 271.2827 497.0319 270.862 C 496.6739 270.4479 496.4981 269.9286 496.4981 269.3106 L 496.4981 262.3235 C 496.4981 261.6531 496.6929 261.1338 497.0948 260.7656 C 497.4902 260.3908 497.9866 260.2069 498.577 260.2069 L 507.1689 260.2069 L 507.1689 255.4282 L 498.5393 255.4282 C 497.8735 255.4282 497.164 255.5532 496.3978 255.7964 C 495.625 256.0397 494.9152 256.434 494.2621 256.9793 C 493.6028 257.525 493.056 258.2348 492.6104 259.1158 C 492.1707 259.9965 491.9508 261.0615 491.9508 262.3235 L 491.9508 269.35 C 491.9508 270.0468 492.0701 270.7897 492.3026 271.5917 C 492.535 272.4001 492.9117 273.1428 493.433 273.8265 C 493.9543 274.5164 494.6326 275.0885 495.4742 275.5551 C 496.3158 276.0151 497.3335 276.2453 498.5393 276.2453 L 507.1689 276.2453 C 507.8285 276.2453 508.5445 276.1203 509.3107 275.8771 C 510.0769 275.6339 510.7929 275.2396 511.446 274.6939 C 512.0994 274.1485 512.6522 273.4384 513.0918 272.5577 C 513.5312 271.677 513.7574 270.612 513.7574 269.35 " fill="#231f20"/>
<path transform="matrix(1,0,0,-1,9,850.8898)" d="M 538.7987 262.455 C 538.7987 261.6004 538.6918 260.8248 538.4846 260.1346 C 538.2774 259.4509 538.001 258.8462 537.6555 258.3269 C 537.3164 257.8076 536.9145 257.3606 536.4621 256.9992 C 536.0102 256.631 535.5326 256.3353 535.0363 256.1051 C 534.5405 255.8687 534.0379 255.6978 533.5291 255.5926 C 533.0205 255.4809 532.5367 255.4282 532.0845 255.4282 L 523.455 255.4282 C 522.6321 255.4282 521.8971 255.5399 521.244 255.7568 C 520.5971 255.9739 520.0194 256.263 519.5231 256.631 C 519.027 256.9992 518.6061 257.4198 518.2546 257.8932 C 517.9028 258.3663 517.6202 258.8661 517.4002 259.3851 C 517.1805 259.9044 517.0173 260.4302 516.9104 260.9629 C 516.8098 261.4952 516.7534 261.9947 516.7534 262.455 L 516.7534 269.2383 C 516.7534 270.5202 516.9793 271.6047 517.4254 272.4987 C 517.8776 273.3925 518.4303 274.1156 519.1021 274.6743 C 519.768 275.233 520.4965 275.6339 521.282 275.8771 C 522.0669 276.1203 522.7892 276.2453 523.455 276.2453 L 532.0845 276.2453 L 532.0845 271.2365 L 523.4924 271.2365 C 522.8521 271.2365 522.3682 271.0655 522.0354 270.7305 C 521.7024 270.3886 521.5391 269.8892 521.5391 269.2383 L 521.5391 262.4944 C 521.5391 261.8172 521.7024 261.3047 522.0292 260.9563 C 522.3495 260.608 522.8269 260.437 523.455 260.437 L 532.0845 260.437 C 532.7314 260.437 533.2153 260.608 533.5353 260.9563 C 533.8556 261.3047 534.0129 261.8042 534.0129 262.455 L 534.0129 285.0466 L 538.7987 285.0466 Z " fill="#231f20"/>
</g>
</g>
</g>
</svg>
