<svg width="136" height="44" viewBox="0 0 136 44" fill="none" xmlns="http://www.w3.org/2000/svg">
<path fill-rule="evenodd" clip-rule="evenodd" d="M38.6675 30.2547C38.7378 30.4316 38.8082 30.6086 38.8785 30.7807C39.4265 32.3733 39.5955 33.8798 39.2585 35.3864C38.7945 38.5715 36.7275 41.3263 33.7755 42.5315C32.7215 43.005 31.5405 43.2202 30.3595 43.2202C30.0225 43.2202 29.6005 43.1771 29.2635 43.1341C27.8715 42.9619 26.4375 42.4885 25.0455 41.6706C23.3585 40.6806 21.6715 39.2602 19.8165 37.1942C17.9605 39.2602 16.3155 40.6806 14.5865 41.6706C13.1955 42.4885 11.7615 42.9619 10.3695 43.1341C10.0325 43.1771 9.61051 43.2202 9.27251 43.2202C8.09251 43.2202 6.95351 43.005 5.85651 42.5315C2.94651 41.3263 0.838513 38.6146 0.374513 35.3864C0.163513 33.8368 0.332513 32.3303 0.880513 30.7377C1.09151 30.1781 1.30251 29.6616 1.51351 29.1882C1.67169 28.8245 1.82988 28.4703 1.98382 28.1256C2.15784 27.736 2.32645 27.3584 2.48351 26.993L2.52551 26.9069C5.43551 20.4504 8.59851 13.9079 11.8455 7.45143L11.9715 7.19322C12.2949 6.57548 12.6173 5.91838 12.9406 5.25957L12.9845 5.17013C13.4055 4.39542 13.8695 3.57757 14.5025 2.80279C15.8945 1.16716 17.7915 0.220215 19.9005 0.220215C21.9675 0.220215 23.9075 1.16716 25.2565 2.88888C25.8812 3.6059 26.2892 4.35973 26.6802 5.08226L26.7745 5.25622L26.8202 5.34945L26.8204 5.34979C27.143 6.00722 27.4648 6.66286 27.7865 7.27922L27.9135 7.53752C31.2025 13.994 34.3235 20.5365 37.2335 26.993L37.2755 27.036C37.4327 27.4018 37.6014 27.7796 37.7756 28.1696C37.9294 28.514 38.0875 28.8679 38.2455 29.2312C38.3862 29.5469 38.5268 29.9008 38.6675 30.2547ZM71.4365 11.024C71.4365 12.5735 70.2135 13.8218 68.6945 13.8218C67.1765 13.8218 65.9535 12.5735 65.9535 11.024C65.9535 9.47443 67.1345 8.22622 68.6945 8.22622C70.2555 8.26923 71.4365 9.51752 71.4365 11.024ZM60.1335 16.6626V17.3513C60.1335 17.3513 58.8265 15.6296 56.0435 15.6296C51.4465 15.6296 47.8615 19.2022 47.8615 24.1521C47.8615 29.059 51.4035 32.6746 56.0435 32.6746C58.8685 32.6746 60.1335 30.9099 60.1335 30.9099V31.6416C60.1335 31.986 60.3865 32.2442 60.7245 32.2442H64.1405V16.06H60.7245C60.3865 16.06 60.1335 16.3613 60.1335 16.6626ZM56.7175 28.8008C58.2365 28.8008 59.5015 27.983 60.1335 27.036V21.2682C59.5435 20.3643 58.1935 19.5035 56.7175 19.5035C54.0185 19.5035 51.9525 21.2252 51.9525 24.1521C51.9525 27.079 54.0185 28.8008 56.7175 28.8008ZM66.6705 16.06H70.7195V32.2442H66.6705V16.06ZM123.056 17.3513C123.056 17.3513 124.363 15.6296 127.147 15.6296C131.701 15.6296 135.286 19.2452 135.286 24.1521C135.286 29.059 131.701 32.6746 127.104 32.6746C124.321 32.6746 123.014 30.9099 123.014 30.9099V31.6416C123.014 31.9429 122.761 32.2442 122.423 32.2442H119.007V8.26923H123.056V17.3513ZM126.472 28.7577C124.911 28.7577 123.688 27.9399 123.056 26.993V21.2252C123.688 20.3643 125.038 19.4604 126.472 19.4604C129.171 19.4604 131.237 21.1822 131.237 24.1091C131.237 27.036 129.171 28.7577 126.472 28.7577ZM116.898 32.2873V22.6456C116.898 19.9339 116.35 18.3844 114.916 17.1791C113.735 16.1461 112.259 15.6296 110.488 15.6296C108.928 15.6296 107.367 16.1031 106.186 17.3513V16.6626C106.186 16.3613 105.933 16.06 105.596 16.06H102.391V32.2442H106.44V20.9669C107.241 20.02 108.506 19.3743 109.729 19.3743C112.006 19.3743 112.85 20.4504 112.85 23.1191V32.2873H116.898ZM92.5655 15.6296C89.7815 15.6296 88.4745 17.3513 88.4745 17.3513V8.26923H84.4255V32.2442H87.8415C88.1795 32.2442 88.4325 31.9429 88.4325 31.6416V30.9099C88.4325 30.9099 89.7395 32.6746 92.5225 32.6746C97.1195 32.6746 100.704 29.059 100.704 24.1521C100.746 19.2452 97.1615 15.6296 92.5655 15.6296ZM88.4745 26.993C89.1065 27.9399 90.3295 28.7577 91.8905 28.7577C94.5895 28.7577 96.6555 27.036 96.6555 24.1091C96.6555 21.1822 94.5895 19.4604 91.8905 19.4604C90.4565 19.4604 89.1065 20.3643 88.4745 21.2252V26.993ZM80.9255 15.6296C82.1485 15.6296 82.7805 15.8448 82.7805 15.8448V19.6756C82.7805 19.6756 79.4065 18.5135 77.2985 20.9669V32.2873H73.2495V16.06H76.6655C77.0035 16.06 77.2565 16.3613 77.2565 16.6626V17.3513C78.0155 16.4474 79.6605 15.6296 80.9255 15.6296ZM19.8585 33.019C17.5815 30.0921 16.1045 27.3373 15.5985 25.013C15.3885 24.023 15.3455 23.1621 15.4725 22.3874C15.5565 21.6987 15.8095 21.0961 16.1475 20.5795C16.9485 19.4174 18.2975 18.6857 19.8585 18.6857C21.4185 18.6857 22.8105 19.3743 23.5695 20.5795C23.9075 21.0961 24.1605 21.6987 24.2445 22.3874C24.3705 23.1621 24.3285 24.066 24.1175 25.013C23.6115 27.2943 22.1355 30.049 19.8585 33.019ZM32.8475 40.078C34.9145 39.2172 36.3905 37.2802 36.6855 35.042C36.8545 33.9229 36.7275 32.8468 36.3905 31.7277C36.303 31.4313 36.1757 31.1347 36.0363 30.8101C35.9733 30.6634 35.9078 30.511 35.8425 30.3503C35.6724 30.0038 35.5133 29.6355 35.3541 29.2674C35.197 28.9038 35.0399 28.5404 34.8725 28.1982V28.1551C31.9625 21.7417 28.8415 15.1992 25.6365 8.78582L25.5095 8.52752C25.341 8.20468 25.1722 7.8711 25.0035 7.53753C24.8347 7.20395 24.666 6.87038 24.4975 6.54752C24.1605 5.85882 23.7805 5.21322 23.3165 4.65363C22.4305 3.62062 21.2505 3.06105 19.9425 3.06105C18.6355 3.06105 17.4545 3.62062 16.5685 4.65363C16.1045 5.21322 15.7255 5.85882 15.3885 6.54752C15.2195 6.87038 15.0507 7.20397 14.882 7.53755C14.7132 7.87112 14.5445 8.20468 14.3755 8.52752L14.2495 8.78582C11.0025 15.1561 7.88151 21.6987 4.97151 28.1121L4.92951 28.1982C4.59151 28.9299 4.25451 29.6616 3.95951 30.3503C3.89494 30.5084 3.83038 30.6584 3.76822 30.8028C3.62724 31.1303 3.49865 31.429 3.41051 31.7277C2.98951 32.9329 2.90451 34.009 3.03151 35.0851C3.32651 37.3233 4.80251 39.2602 6.86951 40.1211C7.83951 40.5085 8.93551 40.6806 10.0745 40.5515C11.1285 40.4224 12.1825 40.078 13.2795 39.4324C14.7975 38.5715 16.3585 37.2372 18.0875 35.2572C15.3455 31.7707 13.6165 28.5425 12.9845 25.7017C12.6465 24.4104 12.6045 23.1621 12.7735 22.043C12.9415 20.9669 13.3215 19.9769 13.9115 19.1161C15.2195 17.2222 17.4125 16.06 19.8585 16.06C22.3045 16.06 24.4975 17.1791 25.8045 19.1161C26.3955 19.9769 26.7745 20.9669 26.9435 22.043C27.0705 23.1621 27.0275 24.3673 26.7325 25.7017C26.1005 28.5425 24.4135 31.7277 21.6295 35.2142C23.4005 37.1942 24.9195 38.5285 26.4375 39.3894C27.5335 40.035 28.5885 40.3793 29.6425 40.5085C30.7395 40.6376 31.8355 40.5085 32.8475 40.078Z" fill="#9CA3AF"/>
</svg>
