<svg width="107" height="33" viewBox="0 0 107 33" fill="currentColor" xmlns="http://www.w3.org/2000/svg">
<path fill-rule="evenodd" clip-rule="evenodd" d="M65.9685 25.4847C59.8155 30.0205 50.8985 32.4405 43.2205 32.4405C32.4545 32.4405 22.7625 28.4578 15.4305 21.8339C14.8545 21.313 15.3705 20.6031 16.0615 21.0088C23.9745 25.6137 33.7585 28.3841 43.8655 28.3841C50.6815 28.3841 58.1795 26.9735 65.0745 24.0465C66.1155 23.604 66.9865 24.7287 65.9685 25.4847Z" fill="#9CA3AF"/>
<path fill-rule="evenodd" clip-rule="evenodd" d="M68.5265 22.5579C67.7425 21.553 63.3275 22.0831 61.3455 22.3182C60.7425 22.392 60.6495 21.8665 61.1935 21.4885C64.7105 19.0132 70.4805 19.7277 71.1525 20.5574C71.8255 21.3917 70.9775 27.1767 67.6735 29.9378C67.1665 30.3619 66.6825 30.136 66.9085 29.5737C67.6505 27.7206 69.3145 23.5674 68.5265 22.5579Z" fill="#9CA3AF"/>
<path fill-rule="evenodd" clip-rule="evenodd" d="M61.4841 4.01372V1.60752C61.4841 1.24332 61.7601 0.999023 62.0921 0.999023H72.8621C73.2081 0.999023 73.4841 1.24792 73.4841 1.60752V3.66792C73.4801 4.01372 73.1891 4.46542 72.6731 5.17992L67.0921 13.1498C69.1661 13.0991 71.3551 13.4079 73.2361 14.4681C73.6601 14.7078 73.7751 15.0581 73.8071 15.4039V17.9714C73.8071 18.3217 73.4201 18.732 73.0141 18.5199C69.7011 16.7821 65.3001 16.5931 61.6361 18.5384C61.2621 18.7412 60.8711 18.3355 60.8711 17.9852V15.5468C60.8711 15.1549 60.8751 14.4866 61.2671 13.8919L67.7331 4.61752H62.1061C61.7601 4.61752 61.4841 4.37322 61.4841 4.01372Z" fill="#9CA3AF"/>
<path fill-rule="evenodd" clip-rule="evenodd" d="M22.1955 19.0272H18.9195C18.6055 19.0041 18.3565 18.769 18.3335 18.4694V1.64923C18.3335 1.31273 18.6145 1.04533 18.9655 1.04533H22.0205C22.3385 1.05913 22.5925 1.30343 22.6155 1.60773V3.80643H22.6755C23.4725 1.68143 24.9705 0.69043 26.9885 0.69043C29.0395 0.69043 30.3205 1.68143 31.2425 3.80643C32.0355 1.68143 33.8375 0.69043 35.7685 0.69043C37.1415 0.69043 38.6435 1.25733 39.5615 2.52963C40.5975 3.94473 40.3855 6.00063 40.3855 7.80293L40.3815 18.4187C40.3815 18.7552 40.1005 19.0272 39.7495 19.0272H36.4775C36.1505 19.0041 35.8875 18.7414 35.8875 18.4187V9.50383C35.8875 8.79403 35.9525 7.02393 35.7955 6.35093C35.5515 5.22163 34.8185 4.90353 33.8695 4.90353C33.0765 4.90353 32.2475 5.43363 31.9105 6.28183C31.5745 7.12993 31.6065 8.54973 31.6065 9.50383V18.4187C31.6065 18.7552 31.3255 19.0272 30.9755 19.0272H27.7035C27.3715 19.0041 27.1135 18.7414 27.1135 18.4187L27.1085 9.50383C27.1085 7.62773 27.4175 4.86663 25.0905 4.86663C22.7355 4.86663 22.8275 7.55863 22.8275 9.50383V18.4187C22.8275 18.7552 22.5465 19.0272 22.1955 19.0272Z" fill="#9CA3AF"/>
<path fill-rule="evenodd" clip-rule="evenodd" d="M82.7573 0.69043C87.6193 0.69043 90.2503 4.86663 90.2503 10.1768C90.2503 15.3073 87.3423 19.3775 82.7573 19.3775C77.9823 19.3775 75.3833 15.2012 75.3833 9.99713C75.3833 4.76063 78.0153 0.69043 82.7573 0.69043ZM82.7853 4.12443C80.3703 4.12443 80.2183 7.41573 80.2183 9.46693C80.2183 11.5228 80.1853 15.9111 82.7573 15.9111C85.2963 15.9111 85.4163 12.3709 85.4163 10.2137C85.4163 8.79393 85.3563 7.09763 84.9283 5.75163C84.5593 4.58083 83.8263 4.12443 82.7853 4.12443Z" fill="#9CA3AF"/>
<path fill-rule="evenodd" clip-rule="evenodd" d="M96.5552 19.0272H93.2922C92.9652 19.0041 92.7022 18.7414 92.7022 18.4187L92.6982 1.59383C92.7252 1.28503 92.9972 1.04533 93.3292 1.04533H96.3662C96.6522 1.05913 96.8872 1.25273 96.9512 1.51553V4.08763H97.0112C97.9282 1.78743 99.2142 0.69043 101.477 0.69043C102.947 0.69043 104.38 1.22053 105.302 2.67253C106.159 4.01853 106.159 6.28183 106.159 7.90893V18.4971C106.122 18.7921 105.851 19.0272 105.528 19.0272H102.242C101.942 19.0041 101.694 18.7829 101.661 18.4971V9.36093C101.661 7.52173 101.873 4.82973 99.6112 4.82973C98.8132 4.82973 98.0802 5.36453 97.7162 6.17573C97.2562 7.20373 97.1962 8.22703 97.1962 9.36093V18.4187C97.1912 18.7552 96.9052 19.0272 96.5552 19.0272Z" fill="#9CA3AF"/>
<path fill-rule="evenodd" clip-rule="evenodd" d="M52.8982 10.9926C52.8982 12.2694 52.9302 13.3342 52.2852 14.4682C51.7642 15.3901 50.9352 15.9571 50.0172 15.9571C48.7592 15.9571 48.0222 14.9983 48.0222 13.5831C48.0222 10.7897 50.5242 10.2827 52.8982 10.2827V10.9926ZM56.2022 18.9808C55.9862 19.1744 55.6722 19.1883 55.4282 19.0592C54.3402 18.1557 54.1422 17.7363 53.5482 16.8743C51.7502 18.7089 50.4742 19.2574 48.1462 19.2574C45.3862 19.2574 43.2432 17.5565 43.2432 14.15C43.2432 11.4903 44.6812 9.67881 46.7362 8.79371C48.5152 8.01011 50.9992 7.87181 52.8982 7.65521V7.23111C52.8982 6.45211 52.9582 5.53021 52.4972 4.85721C52.1002 4.25331 51.3352 4.00441 50.6582 4.00441C49.4092 4.00441 48.2982 4.64511 48.0262 5.97271C47.9712 6.26771 47.7552 6.55811 47.4552 6.57191L44.2802 6.23081C44.0122 6.17091 43.7132 5.95421 43.7912 5.54401C44.5192 1.69041 48.0032 0.528809 51.1192 0.528809C52.7132 0.528809 54.7962 0.952909 56.0552 2.16061C57.6492 3.64951 57.4972 5.63621 57.4972 7.79811V12.9054C57.4972 14.4404 58.1332 15.1134 58.7322 15.9431C58.9402 16.2382 58.9862 16.5931 58.7182 16.8143C58.0502 17.3721 56.8612 18.4093 56.2072 18.9901L56.2022 18.9808Z" fill="#9CA3AF"/>
<path fill-rule="evenodd" clip-rule="evenodd" d="M9.94162 10.9926C9.94162 12.2694 9.97362 13.3342 9.32862 14.4682C8.80762 15.3901 7.98262 15.9571 7.06162 15.9571C5.80362 15.9571 5.07062 14.9983 5.07062 13.5831C5.07062 10.7897 7.57262 10.2827 9.94162 10.2827V10.9926ZM13.2456 18.9808C13.0296 19.1744 12.7156 19.1883 12.4716 19.0592C11.3846 18.1557 11.1906 17.7363 10.5916 16.8743C8.79362 18.7089 7.52262 19.2574 5.19062 19.2574C2.43462 19.2574 0.286621 17.5565 0.286621 14.15C0.286621 11.4903 1.72862 9.67881 3.77962 8.79371C5.55862 8.01011 8.04262 7.87181 9.94162 7.65521V7.23111C9.94162 6.45211 10.0016 5.53021 9.54562 4.85721C9.14462 4.25331 8.37962 4.00441 7.70662 4.00441C6.45762 4.00441 5.34262 4.64511 5.07062 5.97271C5.01462 6.26771 4.79862 6.55811 4.50362 6.57191L1.32362 6.23081C1.05662 6.17091 0.761621 5.95421 0.834621 5.54401C1.56762 1.69041 5.04762 0.528809 8.16262 0.528809C9.75762 0.528809 11.8406 0.952909 13.0986 2.16061C14.6926 3.64951 14.5406 5.63621 14.5406 7.79811V12.9054C14.5406 14.4404 15.1766 15.1134 15.7766 15.9431C15.9876 16.2382 16.0346 16.5931 15.7666 16.8143C15.0986 17.3721 13.9096 18.4093 13.2556 18.9901L13.2456 18.9808Z" fill="#9CA3AF"/>
</svg>
