<svg width="38" height="46" viewBox="0 0 38 46" fill="currentColor" xmlns="http://www.w3.org/2000/svg">
<path fill-rule="evenodd" clip-rule="evenodd" d="M28.0416 0C28.3336 2.66054 27.2656 5.33448 25.6786 7.25528C24.0916 9.1773 21.4876 10.6701 18.9376 10.4728C18.5906 7.86496 19.8776 5.14396 21.3486 3.44394C22.9886 1.52419 25.7546 0.0919304 28.0416 0ZM37.4856 33.3314C37.2106 33.22 31.4596 30.8907 31.3966 24.1411C31.3466 18.5111 35.8976 15.7442 36.2886 15.5067C36.2966 15.5017 36.3036 15.4978 36.3076 15.495C33.6377 11.5861 29.4786 11.0493 27.9966 10.9876C25.8316 10.7682 23.7316 11.5967 22.0166 12.2732C20.9276 12.7027 19.9946 13.0709 19.2976 13.0709C18.5206 13.0709 17.5606 12.6902 16.4836 12.263C15.0736 11.7036 13.4626 11.0646 11.7986 11.0963C7.93967 11.1524 4.38467 13.3389 2.39567 16.7916C-1.60833 23.7444 1.37367 34.0446 5.27567 39.6862C7.18567 42.4442 9.46167 45.5507 12.4506 45.4376C13.7876 45.385 14.7386 44.9801 15.7216 44.5613C16.8556 44.0784 18.0326 43.5772 19.8956 43.5772C21.6746 43.5772 22.7996 44.064 23.8816 44.5321C24.9146 44.979 25.9086 45.4089 27.3946 45.3815C30.4916 45.3244 32.4566 42.5664 34.3506 39.7983C36.4716 36.6993 37.3856 33.6959 37.4876 33.3599C37.4917 33.3487 37.4936 33.3405 37.4956 33.3353C37.4946 33.3348 37.4916 33.3335 37.4856 33.3314Z" fill="currentColor"/>
</svg>
