<svg width="18" height="16" viewBox="0 0 18 16" fill="none" xmlns="http://www.w3.org/2000/svg">
<path fill-rule="evenodd" clip-rule="evenodd" d="M8.767 0.454505C9.20634 0.015165 9.91866 0.015165 10.358 0.454505L17.108 7.2045C17.5473 7.64384 17.5473 8.35616 17.108 8.7955L10.358 15.5455C9.91866 15.9848 9.20634 15.9848 8.767 15.5455C8.32767 15.1062 8.32767 14.3938 8.767 13.9545L14.7215 8L8.767 2.0455C8.32767 1.60616 8.32767 0.893845 8.767 0.454505Z" fill="url(#paint0_linear_513_624)"/>
<path fill-rule="evenodd" clip-rule="evenodd" d="M0.5625 8C0.5625 7.37868 1.06618 6.875 1.6875 6.875H15.375C15.9963 6.875 16.5 7.37868 16.5 8C16.5 8.62132 15.9963 9.125 15.375 9.125H1.6875C1.06618 9.125 0.5625 8.62132 0.5625 8Z" fill="url(#paint1_linear_513_624)"/>
<defs>
<linearGradient id="paint0_linear_513_624" x1="5.65568" y1="-2.17187" x2="19.1801" y2="-1.88326" gradientUnits="userSpaceOnUse">
<stop stop-color="#4ADE80"/>
<stop offset="1" stop-color="#6EE7B7"/>
</linearGradient>
<linearGradient id="paint1_linear_513_624" x1="-4.36364" y1="6.54688" x2="18.0298" y2="12.4705" gradientUnits="userSpaceOnUse">
<stop stop-color="#4ADE80"/>
<stop offset="1" stop-color="#6EE7B7"/>
</linearGradient>
</defs>
</svg>
