<svg width="20" height="20" viewBox="0 0 48 48" fill="none" xmlns="http://www.w3.org/2000/svg">
<g filter="url(#filter0_biii_215_1825)">
<circle cx="24" cy="24" r="21" fill="#4B5563" fill-opacity="0.01"/>
<path fill-rule="evenodd" clip-rule="evenodd" d="M14 30.7435V17H20.3534C22.3941 17 24.0484 18.6543 24.0484 20.695C24.0484 21.9918 23.6497 22.7951 22.1876 23.6192C23.9372 24.4164 24.4231 25.5212 24.4231 27.0624C24.4231 29.1471 22.5711 30.7435 20.4863 30.7435H14ZM16.6885 19.275V22.5798H19.8351C19.8351 22.5798 21.3644 22.5798 21.3644 20.9274C21.3644 19.275 19.8351 19.275 19.8351 19.275H16.6885ZM16.6885 28.4159V24.8475H20.0636C20.6085 24.8475 21.7511 25.1287 21.7511 26.8163C21.7511 28.0679 20.6261 28.4042 20.0636 28.4159H16.6885Z" fill="white"/>
<path fill-rule="evenodd" clip-rule="evenodd" d="M30.1713 20.7868C28.2377 20.7868 25.3724 22.1755 25.3724 25.867C25.3724 28.1148 26.6029 31 30.2944 31C33.2476 31 34.607 28.832 34.9176 27.7479H32.1402C31.9995 28.2401 31.4546 28.7851 30.2944 28.7851C28.6068 28.7851 28.0092 27.3436 27.9213 26.6229H34.9176V25.867C34.9176 22.1755 32.105 20.7868 30.1713 20.7868ZM30.1713 22.8962C28.5963 22.8962 28.015 24.197 27.9213 24.8475H32.1402C32.1402 24.197 31.7464 22.8962 30.1713 22.8962Z" fill="white"/>
<path d="M26.8138 17.7808V19.4859H33.441V17.7808H26.8138Z" fill="white"/>
</g>
<defs>
<filter id="filter0_biii_215_1825" x="-50" y="-50" width="148" height="148" filterUnits="userSpaceOnUse" color-interpolation-filters="sRGB">
<feFlood flood-opacity="0" result="BackgroundImageFix"/>
<feGaussianBlur in="BackgroundImage" stdDeviation="25"/>
<feComposite in2="SourceAlpha" operator="in" result="effect1_backgroundBlur_215_1825"/>
<feBlend mode="normal" in="SourceGraphic" in2="effect1_backgroundBlur_215_1825" result="shape"/>
<feColorMatrix in="SourceAlpha" type="matrix" values="0 0 0 0 0 0 0 0 0 0 0 0 0 0 0 0 0 0 127 0" result="hardAlpha"/>
<feMorphology radius="5.2136" operator="dilate" in="SourceAlpha" result="effect2_innerShadow_215_1825"/>
<feOffset dy="2"/>
<feGaussianBlur stdDeviation="5"/>
<feComposite in2="hardAlpha" operator="arithmetic" k2="-1" k3="1"/>
<feColorMatrix type="matrix" values="0 0 0 0 1 0 0 0 0 1 0 0 0 0 1 0 0 0 0.45 0"/>
<feBlend mode="normal" in2="shape" result="effect2_innerShadow_215_1825"/>
<feColorMatrix in="SourceAlpha" type="matrix" values="0 0 0 0 0 0 0 0 0 0 0 0 0 0 0 0 0 0 127 0" result="hardAlpha"/>
<feMorphology radius="18.2476" operator="dilate" in="SourceAlpha" result="effect3_innerShadow_215_1825"/>
<feOffset dy="-1"/>
<feGaussianBlur stdDeviation="1"/>
<feComposite in2="hardAlpha" operator="arithmetic" k2="-1" k3="1"/>
<feColorMatrix type="matrix" values="0 0 0 0 1 0 0 0 0 1 0 0 0 0 1 0 0 0 0.56 0"/>
<feBlend mode="normal" in2="effect2_innerShadow_215_1825" result="effect3_innerShadow_215_1825"/>
<feColorMatrix in="SourceAlpha" type="matrix" values="0 0 0 0 0 0 0 0 0 0 0 0 0 0 0 0 0 0 127 0" result="hardAlpha"/>
<feMorphology radius="46.9224" operator="dilate" in="SourceAlpha" result="effect4_innerShadow_215_1825"/>
<feOffset dy="1"/>
<feGaussianBlur stdDeviation="1"/>
<feComposite in2="hardAlpha" operator="arithmetic" k2="-1" k3="1"/>
<feColorMatrix type="matrix" values="0 0 0 0 1 0 0 0 0 1 0 0 0 0 1 0 0 0 0.5 0"/>
<feBlend mode="normal" in2="effect3_innerShadow_215_1825" result="effect4_innerShadow_215_1825"/>
</filter>
</defs>
</svg>
