<svg width="134" height="33" viewBox="0 0 134 33" fill="none" xmlns="http://www.w3.org/2000/svg">
<g filter="currentColor">
<path fill-rule="evenodd" clip-rule="evenodd" d="M14.2586 8.42675C12.7906 8.42675 12.3646 9.08005 12.3646 10.5164V12.8997H16.2836L15.8916 16.7536H12.3646V28.4437H7.6626V16.7536H4.49561V12.8997H7.6626V10.5812C7.6626 6.69665 9.2296 4.63965 13.6056 4.63965C14.5526 4.63965 15.6626 4.70445 16.3486 4.80205V8.42675" fill="currentColor"/>
<path fill-rule="evenodd" clip-rule="evenodd" d="M21.3114 21.2262C21.3114 23.5448 22.1614 25.0785 24.3484 25.0785C26.2754 25.0785 27.2554 23.6747 27.2554 21.4555V19.8875C27.2554 17.6663 26.2754 16.2625 24.3484 16.2625C22.1614 16.2625 21.3114 17.7982 21.3114 20.1165V21.2262ZM16.6094 20.1817C16.6094 15.8387 18.6664 12.5728 22.9774 12.5728C25.3284 12.5728 26.7644 13.7819 27.4504 15.2828V12.8995H31.9574V28.4418H27.4504V26.0927C26.7964 27.5939 25.3284 28.7684 22.9774 28.7684C18.6664 28.7684 16.6094 25.5046 16.6094 21.1615V20.1817Z" fill="currentColor"/>
<path fill-rule="evenodd" clip-rule="evenodd" d="M41.7503 12.5728C43.5783 12.5728 45.3103 12.9643 46.2563 13.6178L45.2113 16.9484C44.4933 16.5893 43.3183 16.2304 42.0773 16.2304C39.5293 16.2304 38.4193 17.699 38.4193 20.2143V21.127C38.4193 23.6423 39.5293 25.1109 42.0773 25.1109C43.3183 25.1109 44.4933 24.752 45.2113 24.3928L46.2563 27.7238C45.3103 28.3767 43.5783 28.7684 41.7503 28.7684C36.2333 28.7684 33.7183 25.7966 33.7183 21.0296V20.3116C33.7183 15.5446 36.2333 12.5728 41.7503 12.5728Z" fill="currentColor"/>
<path fill-rule="evenodd" clip-rule="evenodd" d="M51.5785 19.2345H57.2605V18.8431C57.2605 17.1452 56.5755 15.8065 54.5185 15.8065C52.3945 15.8065 51.5785 17.1452 51.5785 19.2345ZM46.8765 21.2589V19.8876C46.8765 15.4798 49.3905 12.5728 54.5185 12.5728C59.3505 12.5728 61.4715 15.5121 61.4715 19.8228V22.3035H51.5785C51.6765 24.4274 52.6235 25.3727 55.2365 25.3727C56.9995 25.3727 58.8615 25.0135 60.2325 24.4274L61.0805 27.6587C59.8415 28.3119 57.2935 28.8009 55.0395 28.8009C49.0975 28.8009 46.8765 25.8312 46.8765 21.2589Z" fill="currentColor"/>
<path fill-rule="evenodd" clip-rule="evenodd" d="M74.2066 20.0821C74.2066 17.8935 73.3566 16.2624 71.1056 16.2624C69.1786 16.2624 68.1336 17.6337 68.1336 19.8529V21.4859C68.1336 23.7071 69.1786 25.0784 71.1056 25.0784C73.3566 25.0784 74.2066 23.4453 74.2066 21.2567V20.0821ZM78.9086 21.1595C78.9086 25.5026 76.8196 28.7684 72.5086 28.7684C70.1576 28.7684 68.5256 27.5919 67.8716 26.0907V28.4418H63.4316V5.09392L68.1336 4.66992V15.0538C68.8196 13.6826 70.3206 12.5728 72.5086 12.5728C76.8196 12.5728 78.9086 15.837 78.9086 20.1797V21.1595Z" fill="currentColor"/>
<path fill-rule="evenodd" clip-rule="evenodd" d="M91.2506 19.9523C91.2506 17.8956 90.4006 16.2625 88.2136 16.2625C86.0246 16.2625 85.1766 17.8956 85.1766 19.9523V21.3887C85.1766 23.4454 86.0246 25.0785 88.2136 25.0785C90.4006 25.0785 91.2506 23.4454 91.2506 21.3887V19.9523ZM80.4746 21.0622V20.2791C80.4746 15.8061 83.0206 12.5728 88.2136 12.5728C93.4046 12.5728 95.9526 15.8061 95.9526 20.2791V21.0622C95.9526 25.5368 93.4046 28.7684 88.2136 28.7684C83.0206 28.7684 80.4746 25.5368 80.4746 21.0622Z" fill="currentColor"/>
<path fill-rule="evenodd" clip-rule="evenodd" d="M108.294 19.9523C108.294 17.8956 107.444 16.2625 105.258 16.2625C103.069 16.2625 102.221 17.8956 102.221 19.9523V21.3887C102.221 23.4454 103.069 25.0785 105.258 25.0785C107.444 25.0785 108.294 23.4454 108.294 21.3887V19.9523ZM97.5186 21.0622V20.2791C97.5186 15.8061 100.065 12.5728 105.258 12.5728C110.449 12.5728 112.996 15.8061 112.996 20.2791V21.0622C112.996 25.5368 110.449 28.7684 105.258 28.7684C100.065 28.7684 97.5186 25.5368 97.5186 21.0622Z" fill="currentColor"/>
<path fill-rule="evenodd" clip-rule="evenodd" d="M119.458 20.3113L124.095 12.8992H129.091L124.225 20.5731L129.286 28.4415H124.292L119.458 20.8347V28.4415H114.756V5.09562L119.458 4.66992" fill="currentColor"/>
</g>
</svg>
