<svg width="112" height="38" viewBox="0 0 112 38" fill="none" xmlns="http://www.w3.org/2000/svg">
<path fill-rule="evenodd" clip-rule="evenodd" d="M38.6286 28.9374C43.6756 28.9374 47.7881 25.0148 47.7881 19.6916C47.7881 14.3308 43.6756 10.4458 38.6286 10.4458C33.5817 10.4458 29.4692 14.3308 29.4692 19.6916C29.4692 25.0148 33.5817 28.9374 38.6286 28.9374ZM38.6286 14.0891C41.395 14.0891 43.7785 16.3651 43.7785 19.6916C43.7785 22.9806 41.395 25.2941 38.6286 25.2941C35.8623 25.2941 33.4788 22.9847 33.4788 19.6916C33.4788 16.3651 35.8623 14.0891 38.6286 14.0891Z" fill="#9CA3AF"/>
<path fill-rule="evenodd" clip-rule="evenodd" d="M58.3884 28.9374C63.4353 28.9374 67.5478 25.0148 67.5478 19.6916C67.5478 14.3308 63.4353 10.4458 58.3884 10.4458C53.3414 10.4458 49.229 14.335 49.229 19.6916C49.229 25.0148 53.3414 28.9374 58.3884 28.9374ZM58.3884 14.0891C61.1547 14.0891 63.5383 16.3651 63.5383 19.6916C63.5383 22.9806 61.1547 25.2941 58.3884 25.2941C55.622 25.2941 53.2385 22.9847 53.2385 19.6916C53.2385 16.3651 55.622 14.0891 58.3884 14.0891Z" fill="#9CA3AF"/>
<path fill-rule="evenodd" clip-rule="evenodd" d="M86.4838 27.6035V11.0085H82.6759V12.5133H82.536C81.6344 11.4254 79.9055 10.4458 77.7278 10.4458C73.1625 10.4458 68.98 14.5059 68.98 19.7249C68.98 24.9064 73.1625 28.9332 77.7278 28.9332C79.9096 28.9332 81.6385 27.9536 82.536 26.8323H82.6759V28.1621C82.6759 31.7012 80.8111 33.5812 77.8019 33.5812C75.3484 33.5812 73.8252 31.8054 73.2036 30.3005L69.7127 31.772C70.7172 34.2231 73.3806 37.2203 77.806 37.2203C82.5071 37.2203 86.4838 34.4316 86.4838 27.6035ZM78.0859 14.0891C80.8152 14.0891 82.96 16.4693 82.96 19.7249C82.96 22.9472 80.8152 25.2941 78.0859 25.2941C75.3196 25.2941 73.0019 22.9472 73.0019 19.7249C73.0019 16.4693 75.3196 14.0891 78.0859 14.0891Z" fill="#9CA3AF"/>
<path d="M92.7614 1.2749V28.3704H88.8506V1.2749H92.7614Z" fill="#9CA3AF"/>
<path fill-rule="evenodd" clip-rule="evenodd" d="M111.113 24.8354L108.001 22.7344C106.964 24.2768 105.547 25.2939 103.506 25.2939C101.468 25.2939 100.015 24.3477 99.0806 22.4927L111.286 17.3737L110.87 16.3232C110.113 14.2598 107.795 10.4414 103.057 10.4414C98.3519 10.4414 94.4453 14.1889 94.4453 19.6872C94.4453 24.8729 98.319 28.9331 103.506 28.9331C107.688 28.9331 110.109 26.3402 111.113 24.8354ZM106.581 15.9772L98.4219 19.4079C98.319 15.8397 101.155 14.018 103.193 14.018C104.782 14.018 106.132 14.8225 106.581 15.9772Z" fill="#9CA3AF"/>
<path d="M14.6659 17.2862V13.3636H27.7196C27.8472 14.0472 27.9131 14.8559 27.9131 15.7313C27.9131 18.6743 27.1186 22.3135 24.5581 24.9063C22.0675 27.5325 18.8854 28.9331 14.67 28.9331C6.85671 28.9331 0.286621 22.4886 0.286621 14.5767C0.286621 6.66481 6.85671 0.220215 14.67 0.220215C18.9924 0.220215 22.0716 1.93761 24.3852 4.17611L21.6518 6.94411C19.9928 5.36831 17.7451 4.14281 14.6659 4.14281C8.9603 4.14281 4.4979 8.79911 4.4979 14.5767C4.4979 20.3543 8.9603 25.0105 14.6659 25.0105C18.3667 25.0105 20.4744 23.5057 21.8246 22.1384C22.9197 21.0296 23.6401 19.4455 23.9241 17.282L14.6659 17.2862Z" fill="#9CA3AF"/>
</svg>
