<?xml version="1.0" encoding="utf-8"?>
<!-- Generator: Adobe Illustrator 24.0.1, SVG Export Plug-In . SVG Version: 6.00 Build 0)  -->
<svg version="1.1" id="Layer_1" xmlns="http://www.w3.org/2000/svg" xmlns:xlink="http://www.w3.org/1999/xlink" x="0px" y="0px"
	 viewBox="0 0 307.3 409.6" style="enable-background:new 0 0 307.3 409.6;" xml:space="preserve">
<style type="text/css">
	.st0{fill:#55FF80;}
</style>
<path class="st0" d="M307.3,163.9c0-7-3.3-10.2-10.4-10.3c-7.7,0-15.4,0-23.8,0c0-1.6,0-3,0-4.4c0-10.8,0-21.6-0.1-32.4
	c-0.9-54-39-101-91.7-113.4c-6.4-1.5-13.1-2.3-19.6-3.4h-16c-8.2,1.6-16.6,2.5-24.6,4.8C88.4,14.2,64,34.3,47.9,64.3
	c-9.7,18-13.8,37.3-13.6,57.7c0.1,10.4,0,20.7,0,31.6H12.1c-9.2,0-12,2.7-12,11.9c0,68.9,0.2,137.8-0.1,206.7
	c-0.1,19.7,12.2,34.6,29.8,37c0.3,0,0.5,0.2,0.7,0.4h246.4c5.5-2.2,11.5-3.7,16.3-6.9c9.7-6.6,14-16.5,14-28.1
	C307.3,304.3,307.3,234.1,307.3,163.9z M174.3,286.1c1.5,14.7,3.2,29.4,4.8,44.1c0.8,6.9-2.7,11-9.7,11.2c-5.3,0.2-10.7,0-16,0
	c-4.9,0-9.9,0.1-14.8,0c-7.7-0.1-11.2-4.2-10.3-11.7c1.7-14.6,3.3-29.1,4.8-43.7c0.1-1.3-0.6-3.1-1.5-4c-10-9-14-20.2-11.1-33.1
	c3-13.4,11.6-22.1,25-25.9c19-5.3,40,9.2,42,28.7c1.2,12.2-2.7,22.2-11.7,30.4C174.8,282.9,174.2,284.8,174.3,286.1z M221.9,153.4
	H85.5c0-4.3-0.1-8.3,0-12.4c0.3-10.8-0.3-21.7,1.1-32.3C90.3,79.8,115,55.8,143.8,52c36.2-4.7,68.2,17.2,76.4,52.8
	c1.5,6.5,1.5,13.5,1.7,20.2C222.1,134.3,221.9,143.7,221.9,153.4z"/>
</svg>
