<svg width="80" height="32" viewBox="0 0 80 32" fill="none" xmlns="http://www.w3.org/2000/svg">
<path d="M16 2C8.26875 2 2 8.43125 2 16.3562C2 22.7 6.0125 28.075 11.575 29.975C11.653 29.9919 11.7327 30.0003 11.8125 30C12.3313 30 12.5312 29.6187 12.5312 29.2875C12.5312 28.9437 12.5188 28.0437 12.5125 26.8437C12.0494 26.9523 11.5756 27.0089 11.1 27.0125C8.40625 27.0125 7.79375 24.9187 7.79375 24.9187C7.15625 23.2625 6.2375 22.8187 6.2375 22.8187C5.01875 21.9625 6.23125 21.9375 6.325 21.9375H6.33125C7.7375 22.0625 8.475 23.425 8.475 23.425C9.175 24.65 10.1125 24.9937 10.95 24.9937C11.5038 24.9827 12.049 24.8549 12.55 24.6187C12.675 23.6937 13.0375 23.0625 13.4375 22.7C10.3313 22.3375 7.0625 21.1062 7.0625 15.6062C7.0625 14.0375 7.60625 12.7562 8.5 11.7562C8.35625 11.3938 7.875 9.93125 8.6375 7.95625C8.73978 7.93178 8.8449 7.92126 8.95 7.925C9.45625 7.925 10.6 8.11875 12.4875 9.43125C14.781 8.78957 17.2065 8.78957 19.5 9.43125C21.3875 8.11875 22.5312 7.925 23.0375 7.925C23.1426 7.92126 23.2477 7.93178 23.35 7.95625C24.1125 9.93125 23.6312 11.3938 23.4875 11.7562C24.3812 12.7625 24.925 14.0437 24.925 15.6062C24.925 21.1187 21.65 22.3312 18.5312 22.6875C19.0312 23.1312 19.4813 24.0062 19.4813 25.3437C19.4813 27.2625 19.4625 28.8125 19.4625 29.2812C19.4625 29.6187 19.6562 30 20.175 30C20.259 30.0004 20.3428 29.992 20.425 29.975C25.9937 28.075 30 22.6938 30 16.3562C30 8.43125 23.7313 2 16 2Z" fill="#9CA3AF"/>
<path d="M77.5494 7.54124C76.5315 7.99149 75.452 8.2872 74.3467 8.41857C75.5117 7.72181 76.3837 6.62525 76.8001 5.33324C75.7067 5.9839 74.5081 6.4399 73.2587 6.68657C72.4195 5.78867 71.3072 5.19319 70.0947 4.99268C68.8821 4.79218 67.6373 4.99789 66.5538 5.57784C65.4702 6.15779 64.6086 7.07948 64.1029 8.19963C63.5972 9.31977 63.4757 10.5756 63.7574 11.7719C61.5402 11.6608 59.3712 11.0846 57.3911 10.0808C55.4111 9.07698 53.6642 7.66797 52.2641 5.94524C51.7685 6.7965 51.508 7.7642 51.5094 8.74924C51.5094 10.6826 52.4934 12.3906 53.9894 13.3906C53.1041 13.3627 52.2382 13.1236 51.4641 12.6932V12.7626C51.4643 14.0502 51.9099 15.2981 52.7252 16.2946C53.5405 17.2912 54.6754 17.9752 55.9374 18.2306C55.1156 18.4533 54.2538 18.4861 53.4174 18.3266C53.7732 19.4349 54.4667 20.4042 55.4009 21.0987C56.335 21.7933 57.4629 22.1783 58.6267 22.1999C57.47 23.1083 56.1456 23.7799 54.7292 24.1761C53.3128 24.5724 51.8322 24.6856 50.3721 24.5092C52.921 26.1485 55.8882 27.0187 58.9187 27.0159C69.1761 27.0159 74.7854 18.5186 74.7854 11.1492C74.7854 10.9092 74.7787 10.6666 74.7681 10.4292C75.8599 9.64013 76.8022 8.66259 77.5507 7.54257L77.5494 7.54124Z" fill="#F9FAFB"/>
</svg>
