<svg width="54" height="54" viewBox="0 0 54 54" fill="none" xmlns="http://www.w3.org/2000/svg">
<path d="M41.9318 16.2291C42.4578 12.8 41.9318 10.5139 40.091 8.40368C38.0749 6.02968 34.3934 5.0625 29.6599 5.0625H16.0732C15.1089 5.0625 14.32 5.76591 14.1447 6.73309L8.44706 42.7827C8.3594 43.4861 8.88534 44.1016 9.58659 44.1016H18.0016L17.388 47.7945C17.3004 48.4099 17.7386 48.9375 18.4399 48.9375H25.5401C26.4166 48.9375 27.1179 48.322 27.2055 47.5307L28.6957 38.2105C28.7834 37.4192 29.5723 36.8037 30.3612 36.8037H31.413C38.2502 36.8037 43.6849 33.9901 45.2628 25.9009C45.8764 22.5597 45.6134 19.6582 43.8603 17.7238C43.3343 17.1083 42.7207 16.6687 41.9318 16.2291Z" fill="#E5E7EB"/>
<path d="M41.9318 16.2291C42.4578 12.8 41.9318 10.5139 40.091 8.40368C38.0749 6.02968 34.3934 5.0625 29.6599 5.0625H16.0732C15.1089 5.0625 14.32 5.76591 14.1447 6.73309L8.44706 42.7827C8.3594 43.4861 8.88534 44.1016 9.58659 44.1016H18.0016L20.0177 31.0886C20.193 30.1214 20.9819 29.418 21.9461 29.418H25.9783C33.8674 29.418 40.0034 26.2526 41.7565 16.9325C41.8442 16.7566 41.8442 16.4929 41.9318 16.2291Z" fill="currentColor"/>
<path d="M22.3844 16.317C22.4721 15.7015 23.261 14.9102 24.0499 14.9102H34.744C35.9712 14.9102 37.1984 14.9981 38.2502 15.174C39.2145 15.3498 40.9676 15.7895 41.8442 16.317C42.3701 12.8879 41.8442 10.6018 40.0034 8.49161C38.0749 6.02968 34.3934 5.0625 29.6599 5.0625H16.0732C15.1089 5.0625 14.32 5.76591 14.1447 6.73309L8.44706 42.7827C8.3594 43.4861 8.88534 44.1016 9.58659 44.1016H18.0016L22.3844 16.317Z" fill="currentColor"/>
</svg>
