<svg width="25" height="20" class="ml-auto mt-12 "  viewBox="0 0 25 20" fill="none" xmlns="http://www.w3.org/2000/svg">
<path fill-rule="evenodd" clip-rule="evenodd" d="M4.8822 0C3.61779 0 2.54203 0.443781 1.65491 1.33136C0.767776 2.21894 0.324219 3.29388 0.324219 4.55621C0.324219 5.81855 0.767776 6.89349 1.65491 7.78107C2.54203 8.66864 3.61779 9.11243 4.8822 9.11243C6.02426 9.11243 6.71253 9.56607 6.94706 10.4734C7.18159 11.3807 7.06433 12.3866 6.59527 13.4911C6.12621 14.5957 5.34106 15.6016 4.2398 16.5089C3.13854 17.4162 1.83336 17.8698 0.324219 17.8698V20C3.03659 20 5.29517 18.9596 7.10001 16.8787C8.90486 14.7978 10.0826 12.5099 10.6332 10.0148C11.1838 7.51971 11.0258 5.22683 10.1591 3.13609C9.29233 1.04535 7.53339 0 4.8822 0ZM18.0363 0C16.7718 0 15.6961 0.443781 14.809 1.33136C13.9218 2.21894 13.4783 3.29388 13.4783 4.55621C13.4783 5.81855 13.9218 6.89349 14.809 7.78107C15.6961 8.66864 16.7718 9.11243 18.0363 9.11243C19.1783 9.11243 19.8717 9.56607 20.1164 10.4734C20.3611 11.3807 20.2439 12.3866 19.7646 13.4911C19.2854 14.5957 18.5002 15.6016 17.4091 16.5089C16.3181 17.4162 15.0078 17.8698 13.4783 17.8698V20C16.1906 20 18.4492 18.9596 20.2541 16.8787C22.0589 14.7978 23.2366 12.5099 23.7873 10.0148C24.3379 7.51971 24.1798 5.22683 23.3131 3.13609C22.4464 1.04535 20.6874 0 18.0363 0Z" fill="#9CA3AF"/>
</svg>
