<svg width="50" height="44" viewBox="0 0 50 44" fill="none" xmlns="http://www.w3.org/2000/svg">
<path d="M29.3532 21.9608C29.3532 19.6299 27.4043 17.7401 25 17.7401C22.5959 17.7401 20.6468 19.6299 20.6468 21.9608C20.6468 24.292 22.5959 26.1818 25 26.1818C27.4043 26.1818 29.3532 24.292 29.3532 21.9608Z" fill="#9CA3AF"/>
<path fill-rule="evenodd" clip-rule="evenodd" d="M39.1381 14.1248C40.0574 10.5028 41.213 3.78616 37.1394 1.50901C33.0849 -0.758211 27.8087 3.58619 25.0227 6.19392C22.2447 3.61218 16.8203 -0.713655 12.7501 1.57072C8.6972 3.84554 9.94704 10.4508 10.8867 14.0955C7.106 15.1367 0.625 17.3792 0.625 21.9608C0.625 26.5295 7.09926 28.9693 10.8576 30.0095C9.91444 33.6743 8.72718 40.1853 12.7853 42.4549C16.8706 44.7389 22.2782 40.5161 25.09 37.8798C27.8939 40.5029 33.1195 44.7534 37.1748 42.4773C41.2429 40.194 40.1833 33.5674 39.2436 29.9015C42.8868 28.8591 49.375 26.4725 49.375 21.9608C49.375 17.4231 42.8593 15.1624 39.1381 14.1248ZM38.6764 27.9588C38.0593 26.0651 37.2266 24.0512 36.2078 21.9709C37.1802 19.9397 37.9806 17.9518 38.5804 16.0702C41.3083 16.837 47.2926 18.5896 47.2926 21.9608C47.2926 25.3637 41.55 27.1329 38.6764 27.9588ZM36.1312 40.7298C33.1056 42.4279 28.611 38.3632 26.5402 36.4314C27.9139 34.9747 29.2867 33.2811 30.6265 31.4005C32.9834 31.1978 35.2099 30.8663 37.2291 30.4138C37.8905 33.0068 39.1704 39.0239 36.1312 40.7298ZM13.8259 40.7055C10.7998 39.0138 12.1829 33.2038 12.8768 30.5042C14.8736 30.9324 17.0839 31.2405 19.4464 31.4263C20.795 33.2665 22.2076 34.9579 23.6311 36.4392C21.8723 38.0887 16.8661 42.4051 13.8259 40.7055ZM2.70742 21.9608C2.70742 18.5452 8.65586 16.8054 11.4459 16.0405C12.0561 17.9644 12.8563 19.9759 13.822 22.01C12.8438 24.0745 12.0321 26.118 11.4164 28.0645C8.756 27.3261 2.70742 25.3786 2.70742 21.9608ZM13.7935 3.31825C16.8319 1.61302 21.5464 5.76597 23.5633 7.63521C22.1471 9.10976 20.7476 10.7885 19.4106 12.618C17.1178 12.8241 14.923 13.155 12.9053 13.5982C12.1483 10.6587 10.7584 5.02165 13.7935 3.31825ZM32.1163 14.8128C33.6719 15.0031 35.162 15.2562 36.5614 15.5661C36.1413 16.8716 35.6177 18.2367 35.0011 19.6362C34.1071 17.9916 33.1476 16.3801 32.1163 14.8128ZM25.0233 9.07817C25.9838 10.0871 26.9459 11.2137 27.8921 12.436C25.9726 12.3481 24.0499 12.3476 22.1303 12.4348C23.0775 11.2238 24.0477 10.0988 25.0233 9.07817ZM15.0168 19.6347C14.4103 18.2401 13.8915 16.8689 13.4677 15.5447C14.8587 15.2429 16.342 14.9962 17.8874 14.809C16.8533 16.3729 15.8953 17.9838 15.0168 19.6347ZM17.9318 29.2568C16.3353 29.084 14.8295 28.8499 13.439 28.5565C13.8695 27.2089 14.3998 25.8082 15.0192 24.3836C15.9098 26.0516 16.8823 27.6781 17.9318 29.2568ZM25.0809 34.9862C24.0938 33.9534 23.1094 32.8113 22.1478 31.5827C24.0784 31.6563 26.0126 31.6564 27.9428 31.5729C26.9935 32.8238 26.035 33.9677 25.0809 34.9862ZM35.0209 24.311C35.6725 25.7511 36.2218 27.1442 36.658 28.469C35.2445 28.7817 33.7185 29.0336 32.1105 29.2206C33.1494 27.6237 34.1241 25.9871 35.0209 24.311ZM29.4643 29.4654C26.5115 29.6699 23.54 29.6678 20.5862 29.4821C18.9077 27.1049 17.4136 24.6048 16.1238 22.0094C17.4073 19.4193 18.8906 16.9242 20.5612 14.5507C23.5173 14.334 26.4915 14.3335 29.4475 14.5519C31.1036 16.9253 32.5847 19.414 33.898 21.9807C32.6003 24.5695 31.1092 27.0697 29.4643 29.4654ZM36.0993 3.25822C39.1385 4.95787 37.7856 10.9943 37.1217 13.6192C35.0993 13.1667 32.9029 12.8299 30.6035 12.6207C29.2639 10.7713 27.8759 9.08967 26.4826 7.63416C28.5255 5.72466 33.0894 1.57519 36.0993 3.25822Z" fill="#9CA3AF"/>
</svg>
