<svg width="32" height="32" viewBox="0 0 32 32" fill="none" xmlns="http://www.w3.org/2000/svg">
<path d="M19.1825 21.6532C18.4864 22.6685 17.7279 23.6371 16.9114 24.5532C19.085 26.7172 21.1078 27.7306 22.2284 27.0652C23.3516 26.4012 23.5063 24.0986 22.7666 21.0866C21.6577 21.3399 20.4526 21.5319 19.1825 21.6532ZM17.4795 21.7692C16.4937 21.8111 15.5066 21.8111 14.5207 21.7692C15.0108 22.4252 15.5061 23.0332 16.0001 23.5879C16.4941 23.0332 16.9881 22.4252 17.4795 21.7692ZM24.0315 11.2439C27.496 12.2626 29.758 13.9559 29.758 15.9999C29.758 18.0439 27.496 19.7372 24.0315 20.7559C24.9025 24.3426 24.6048 27.1986 22.8797 28.2199C21.1533 29.2426 18.5923 28.0799 16.0001 25.5132C13.4079 28.0799 10.8469 29.2426 9.12055 28.2199C7.39545 27.1986 7.09645 24.3426 7.96875 20.7559C4.50425 19.7372 2.24225 18.0439 2.24225 15.9999C2.24225 13.9559 4.50425 12.2626 7.96875 11.2439C7.09775 7.65724 7.39545 4.80124 9.12055 3.77991C10.8469 2.75724 13.4079 3.91991 16.0001 6.48657C18.5923 3.91991 21.1533 2.75724 22.8797 3.77991C24.6048 4.80124 24.9038 7.65724 24.0315 11.2439ZM22.7666 10.9132C23.5076 7.89991 23.3516 5.59857 22.2297 4.93457C21.1078 4.26924 19.085 5.28257 16.9127 7.44657C17.681 8.30391 18.4454 9.27857 19.1825 10.3466C20.4539 10.4666 21.6577 10.6586 22.7666 10.9132ZM9.23365 21.0866C8.49265 24.0999 8.64865 26.4012 9.77055 27.0652C10.8924 27.7306 12.9152 26.7172 15.0875 24.5532C14.2716 23.6371 13.5134 22.6684 12.8177 21.6532C11.6125 21.5427 10.4154 21.3535 9.23365 21.0866ZM14.5207 10.2306C15.5066 10.1887 16.4937 10.1887 17.4795 10.2306C17.0122 9.60319 16.5186 8.99684 16.0001 8.41324C15.5061 8.96791 15.0121 9.57591 14.5207 10.2319V10.2306ZM12.8177 10.3466C13.5143 9.3313 14.2733 8.36266 15.0901 7.44657C12.9152 5.28257 10.8911 4.26924 9.77185 4.93457C8.64865 5.59857 8.49395 7.90124 9.23365 10.9132C10.3425 10.6599 11.5476 10.4679 12.8177 10.3466ZM18.4623 20.3732C19.3877 18.9804 20.2103 17.5185 20.9232 15.9999C20.2103 14.4813 19.3877 13.0194 18.4623 11.6266C16.8232 11.5007 15.1771 11.5007 13.5379 11.6266C12.6126 13.0194 11.79 14.4813 11.077 15.9999C11.79 17.5185 12.6126 18.9804 13.5379 20.3732C15.1771 20.4991 16.8232 20.4991 18.4623 20.3732ZM20.1315 20.1986C20.931 20.0919 21.6915 19.9546 22.4065 19.7932C22.1727 19.0409 21.9073 18.2993 21.6109 17.5706C21.1533 18.4667 20.6598 19.343 20.1315 20.1972V20.1986ZM11.8687 11.7999C11.0692 11.9066 10.3087 12.0439 9.59375 12.2052C9.81475 12.9199 10.0799 13.6639 10.3893 14.4279C10.847 13.5318 11.3405 12.6555 11.8687 11.8012V11.7999ZM9.59375 19.7919C10.3087 19.9532 11.0692 20.0892 11.8687 20.1972C11.3405 19.343 10.847 18.4667 10.3893 17.5706C10.0799 18.3332 9.81475 19.0772 9.59375 19.7919ZM8.32235 19.4652C8.66165 18.3532 9.10235 17.1879 9.63535 15.9986C9.10235 14.8092 8.66165 13.6439 8.32235 12.5319C5.40775 13.3812 3.54225 14.6706 3.54225 15.9986C3.54225 17.3266 5.40775 18.6159 8.32235 19.4652ZM22.4065 12.2052C21.6915 12.0439 20.931 11.9079 20.1315 11.7999C20.6598 12.6542 21.1533 13.5305 21.6109 14.4266C21.9203 13.6639 22.1855 12.9199 22.4065 12.2052ZM23.6779 12.5319C23.3386 13.6439 22.8979 14.8092 22.3649 15.9986C22.8979 17.1879 23.3386 18.3532 23.6779 19.4652C26.5925 18.6159 28.458 17.3266 28.458 15.9986C28.458 14.6706 26.5925 13.3812 23.6779 12.5319ZM16.0001 18.5066C15.6792 18.5066 15.3614 18.4417 15.0649 18.3158C14.7683 18.1898 14.4989 18.0052 14.272 17.7724C14.045 17.5396 13.865 17.2633 13.7422 16.9592C13.6194 16.655 13.5561 16.3291 13.5561 15.9999C13.5561 15.6707 13.6194 15.3448 13.7422 15.0406C13.865 14.7365 14.045 14.4602 14.272 14.2274C14.4989 13.9947 14.7683 13.81 15.0649 13.684C15.3614 13.5581 15.6792 13.4932 16.0001 13.4932C16.6483 13.4932 17.27 13.7573 17.7283 14.2274C18.1867 14.6975 18.4441 15.3351 18.4441 15.9999C18.4441 16.6647 18.1867 17.3023 17.7283 17.7724C17.27 18.2425 16.6483 18.5066 16.0001 18.5066Z" fill="#4B5563"/>
</svg>
