<svg width="40" height="40" viewBox="0 0 40 40" fill="none" xmlns="http://www.w3.org/2000/svg">
<path d="M11.6663 11.6666V4.99992C11.6663 4.55789 11.8419 4.13397 12.1545 3.82141C12.4671 3.50885 12.891 3.33325 13.333 3.33325H34.9997C35.4417 3.33325 35.8656 3.50885 36.1782 3.82141C36.4907 4.13397 36.6663 4.55789 36.6663 4.99992V26.6666C36.6663 27.1086 36.4907 27.5325 36.1782 27.8451C35.8656 28.1577 35.4417 28.3333 34.9997 28.3333H28.333V34.9883C28.333 35.9149 27.5847 36.6666 26.6547 36.6666H5.01134C4.79088 36.6668 4.57254 36.6235 4.36881 36.5393C4.16509 36.455 3.97998 36.3314 3.82409 36.1755C3.6682 36.0196 3.54458 35.8345 3.46032 35.6308C3.37605 35.4271 3.33279 35.2087 3.33301 34.9883L3.33801 13.3449C3.33801 12.4183 4.08634 11.6666 5.01634 11.6666H11.6663ZM14.9997 11.6666H26.6547C27.5813 11.6666 28.333 12.4149 28.333 13.3449V24.9999H33.333V6.66659H14.9997V11.6666ZM24.9997 14.9999H6.67134L6.66634 33.3333H24.9997V14.9999ZM14.1713 29.9999L8.27801 24.1066L10.6347 21.7499L14.1713 25.2866L21.2413 18.2149L23.598 20.5716L14.1713 29.9999Z" fill="#F9FAFB"/>
</svg>
