<svg width="40" height="40" viewBox="0 0 40 40" fill="none" xmlns="http://www.w3.org/2000/svg">
<path d="M35 33.3333C35 33.7754 34.8244 34.1993 34.5118 34.5118C34.1993 34.8244 33.7754 35 33.3333 35H6.66667C6.22464 35 5.80072 34.8244 5.48816 34.5118C5.17559 34.1993 5 33.7754 5 33.3333V6.66667C5 6.22464 5.17559 5.80072 5.48816 5.48816C5.80072 5.17559 6.22464 5 6.66667 5H33.3333C33.7754 5 34.1993 5.17559 34.5118 5.48816C34.8244 5.80072 35 6.22464 35 6.66667V33.3333ZM18.3333 8.33333H8.33333V31.6667H18.3333V8.33333ZM31.6667 21.6667H21.6667V31.6667H31.6667V21.6667ZM31.6667 8.33333H21.6667V18.3333H31.6667V8.33333Z" fill="#F9FAFB"/>
</svg>
