<svg width="133" height="33" viewBox="0 0 133 33" fill="none" xmlns="http://www.w3.org/2000/svg">
<path fill-rule="evenodd" clip-rule="evenodd" d="M62.9069 12.998C63.9289 12.2079 65.1729 11.6819 66.4789 11.6446C68.0489 11.5222 69.6239 12.0617 70.8449 13.0356C71.3035 13.3392 71.6216 13.8207 71.9403 14.3029C72.0093 14.4074 72.0784 14.5119 72.1489 14.6146V11.9829H74.3599V31.7581H72.1489C72.1493 30.6784 72.149 29.5962 72.1486 28.5144C72.1482 27.1629 72.1478 25.8123 72.1489 24.4684C72.1229 24.1281 71.7849 24.5649 71.8089 24.6714C71.7776 24.7097 71.746 24.7487 71.714 24.7881C71.407 25.1669 71.0651 25.5885 70.6929 25.8181C69.0539 27.0789 66.7809 27.3972 64.8189 26.7779C64.2073 26.6197 63.6277 26.2528 63.1112 25.9259C63.0221 25.8696 62.935 25.8144 62.8499 25.7617C62.1369 25.1761 61.6529 24.4905 61.2019 23.7002C60.0419 21.4782 59.9129 18.7832 60.6379 16.4031C60.8889 15.5512 61.3329 14.7887 61.8559 14.075C62.0969 13.6865 62.5419 13.2576 62.9069 12.998ZM70.1449 14.5582C69.4209 13.9195 68.2689 13.6346 67.2539 13.6371C66.7959 13.6242 66.3339 13.6704 65.8969 13.8109C64.9969 14.0224 64.2619 14.6194 63.7009 15.3101C62.8669 16.4098 62.6059 17.8275 62.5509 19.1788C62.5319 20.7358 62.8389 22.436 63.9149 23.6111C64.4919 24.292 65.2559 24.804 66.1559 24.9576C67.5149 25.1932 69.0709 25.0404 70.1449 24.1263C70.8749 23.5436 71.4319 22.7935 71.7219 21.9056C72.3679 20.0696 72.2939 17.9675 71.4679 16.1998C71.1549 15.5157 70.7229 15.0238 70.1449 14.5582Z" fill="#9CA3AF"/>
<path d="M50.2362 5.98651C48.5532 6.05351 46.8402 6.49231 45.4922 7.52791C45.2152 7.71071 44.9092 8.04061 44.7182 8.32731C43.8952 9.36101 43.4742 10.7044 43.6052 12.0242C43.6532 12.9844 44.0092 13.9179 44.6602 14.6335C44.8512 14.9193 45.2192 15.2438 45.5192 15.4312C47.2602 16.7771 49.5242 17.0271 51.5792 17.6391C52.8622 18.0277 54.3472 18.2914 55.1872 19.4269C55.8982 20.2907 55.8782 21.5891 55.4902 22.6037C55.1572 23.4348 54.4312 24.0289 53.6562 24.4459C52.0352 25.1437 50.1562 25.0984 48.4782 24.631C47.2142 24.2463 46.0932 23.4992 45.2722 22.4633C45.0622 22.1229 44.8762 21.9037 44.5472 22.2969C44.0502 22.6436 43.5522 22.9902 43.0542 23.3368C43.4542 23.9614 43.9262 24.561 44.4902 24.991C45.4562 25.7253 46.5022 26.3748 47.6902 26.6794C49.9112 27.3378 52.3772 27.2692 54.5262 26.382C55.3932 25.9316 56.2212 25.4765 56.8342 24.7209C57.6282 23.7883 58.1372 22.4801 58.1622 21.2054C58.2272 19.9816 57.8302 18.7403 57.0202 17.8103C56.8662 17.5684 56.5872 17.3211 56.3202 17.1665C55.9162 16.8093 55.4582 16.5852 54.9622 16.3184C52.7522 15.2185 50.2312 14.9811 47.9722 14.0198C47.2812 13.6779 46.5882 13.2043 46.2292 12.5093C45.6912 11.3226 46.1102 9.82061 47.1632 9.06791C48.0832 8.33481 49.3462 8.11911 50.5122 8.11071C52.5362 8.09011 54.5892 8.96821 55.8112 10.592C56.4162 10.1408 57.0202 9.68971 57.6252 9.23851C57.0952 8.50391 56.4322 7.93481 55.7062 7.44821C54.1032 6.40001 52.1522 5.88831 50.2362 5.98651Z" fill="#9CA3AF"/>
<path d="M78.0918 21.5697C78.0938 22.8614 78.3578 24.2035 79.1498 25.2541C79.4968 25.8143 80.1798 26.2596 80.7868 26.5894C82.3748 27.3198 84.2798 27.2082 85.8508 26.4921C86.5668 26.1068 87.2548 25.6274 87.7118 25.0097C87.9208 24.8175 88.1568 24.2719 88.2788 24.2428C88.2788 25.0749 88.2788 25.907 88.2788 26.7391C89.0158 26.7391 89.7528 26.7391 90.4898 26.7391C90.4898 21.8204 90.4898 16.9016 90.4898 11.9829C89.7528 11.9829 89.0158 11.9829 88.2788 11.9829C88.2628 14.9966 88.3138 18.012 88.2408 21.0246C88.0618 22.2376 87.5078 23.409 86.5018 24.145C85.2828 25.069 83.5158 25.2935 82.0798 24.7277C81.0728 24.278 80.4998 23.1799 80.4278 22.1012C80.2548 20.2143 80.3778 18.3151 80.3408 16.4229C80.3408 14.9429 80.3408 13.4629 80.3408 11.9829C79.5908 11.9829 78.8408 11.9829 78.0918 11.9829C78.0918 15.1785 78.0918 18.3741 78.0918 21.5697Z" fill="#9CA3AF"/>
<path fill-rule="evenodd" clip-rule="evenodd" d="M94.18 13.4308C95.75 12.3277 97.65 11.707 99.57 11.645C101 11.5646 102.53 11.8204 103.73 12.6072C104.66 13.1184 105.22 14.204 105.39 15.2541C105.441 17.6896 105.435 20.1262 105.429 22.5627C105.426 23.9551 105.423 25.3474 105.43 26.7395H103.29V25.6117C103.264 25.5302 103.278 25.4179 103.291 25.3046C103.314 25.1081 103.338 24.9083 103.16 24.8598C103.025 24.9602 102.938 25.0936 102.849 25.2297C102.746 25.386 102.642 25.5458 102.46 25.6633C101.81 26.25 100.97 26.712 100.07 26.9171C98.53 27.2127 96.83 27.1489 95.45 26.3636C95.3512 26.2922 95.2481 26.2245 95.1458 26.1573C94.8653 25.973 94.5913 25.7929 94.43 25.5553C94.01 25.0253 93.67 24.442 93.53 23.7734C93.3 22.5887 93.35 21.2318 94.15 20.2543C94.52 19.6859 95.12 19.2443 95.76 18.944C96.7972 18.4772 97.929 18.3174 99.0563 18.1582C99.4833 18.0979 99.9097 18.0377 100.33 17.961C101.13 17.808 102.08 17.5897 102.63 17.0587C103.3 16.5518 103.38 15.5376 103 14.831C102.32 13.7896 100.93 13.5651 99.75 13.5811C98.13 13.6459 96.45 14.0527 95.15 15.0474V15.0473C94.83 14.5085 94.51 13.9696 94.18 13.4308ZM103.222 19.7869C103.213 19.3874 103.205 18.9898 103.22 18.6001V18.4686C102.98 18.7095 102.69 18.8756 102.37 19.0513C101.519 19.3803 100.623 19.5365 99.7273 19.6928C98.9281 19.8321 98.1285 19.9715 97.36 20.2338C96.67 20.4597 96.02 20.9059 95.81 21.6271C95.54 22.4585 95.65 23.487 96.21 24.1643C96.99 25.0981 98.34 25.2423 99.49 25.1467C100.79 25.0463 102.06 24.3679 102.69 23.2192C103.273 22.1623 103.247 20.9664 103.222 19.7869Z" fill="#9CA3AF"/>
<path d="M115.62 11.7014C114.44 11.7929 113.29 12.3286 112.47 13.0964C112.11 13.4895 111.78 13.9821 111.47 14.4646C111.47 13.6375 111.47 12.8104 111.47 11.9833C110.73 11.9833 109.99 11.9833 109.26 11.9833C109.26 16.9021 109.26 21.8208 109.26 26.7395C109.99 26.7395 110.73 26.7395 111.47 26.7395C111.49 23.8628 111.42 20.9828 111.51 18.1082C111.68 16.7162 112.27 15.2992 113.46 14.4835C114.52 13.6885 116.04 13.6276 117.27 14.1075C117.53 13.9742 117.43 13.523 117.57 13.2679C117.66 12.9023 117.76 12.5368 117.85 12.1713C117.19 11.787 116.39 11.6561 115.62 11.7014Z" fill="#9CA3AF"/>
<path fill-rule="evenodd" clip-rule="evenodd" d="M121.68 12.8294C122.75 12.1253 124 11.6672 125.29 11.6452C126.81 11.5523 128.43 11.9263 129.68 12.8106C129.7 12.8253 129.721 12.84 129.741 12.8547C130.192 13.179 130.653 13.5106 130.95 13.9611C132.22 15.5516 132.68 17.6731 132.43 19.6718H122.08C121.951 19.7081 121.795 19.6897 121.639 19.6714C121.384 19.6414 121.13 19.6115 121 19.8222C121.03 21.1622 121.36 22.6198 122.35 23.5718C123.54 24.9156 125.52 25.2776 127.24 24.9478C128.47 24.7328 129.59 24.0539 130.36 23.0742C130.85 23.5253 131.35 23.9765 131.85 24.4276C131.49 24.871 131.11 25.2335 130.66 25.5386C129.22 26.7367 127.28 27.1707 125.43 27.0683C124.05 27.0261 122.68 26.5901 121.55 25.7811C121.28 25.5918 120.97 25.3564 120.69 25.072C120.01 24.2911 119.37 23.317 119.07 22.2672C118.38 19.9766 118.51 17.4003 119.6 15.2543C120.01 14.5682 120.42 13.9124 120.98 13.3795C121.147 13.2349 121.329 13.0966 121.497 12.9694C121.56 12.921 121.622 12.8743 121.68 12.8294ZM129.67 15.7421C128.99 14.4361 127.56 13.6129 126.08 13.525C125.02 13.4506 123.91 13.6459 123.01 14.2289C122.922 14.3183 122.808 14.409 122.693 14.5006C122.507 14.6492 122.317 14.8005 122.23 14.9536C121.42 15.7359 121.16 16.899 121.02 17.98H130.2C130.19 17.2092 130 16.4381 129.67 15.7421Z" fill="#9CA3AF"/>
<path fill-rule="evenodd" clip-rule="evenodd" d="M27.312 0.720215H5.863C2.914 0.720215 0.5 3.12041 0.5 6.05431V27.3879C0.5 30.3204 2.914 32.7202 5.863 32.7202H27.312C30.261 32.7202 32.675 30.3204 32.675 27.3879V6.05431C32.675 3.12041 30.261 0.720215 27.312 0.720215ZM26.824 25.2076C26.824 26.1397 26.057 26.9008 25.119 26.9008H8.055C7.117 26.9008 6.349 26.1397 6.349 25.2076V8.23561C6.349 7.30301 7.117 6.53961 8.055 6.53961H25.119C26.057 6.53961 26.824 7.30301 26.824 8.23561V25.2076ZM20.002 21.0842C20.537 21.0842 20.976 20.6491 20.976 20.114V13.3268C20.976 12.7936 20.537 12.3576 20.002 12.3576H13.178C12.641 12.3576 12.204 12.7936 12.204 13.3268V20.114C12.204 20.6491 12.641 21.0842 13.178 21.0842H20.002Z" fill="#9CA3AF"/>
</svg>
