<svg width="40" height="40" viewBox="0 0 40 40" fill="none" xmlns="http://www.w3.org/2000/svg">
<path d="M33.2303 13.3333H35.0003C35.8844 13.3333 36.7322 13.6845 37.3573 14.3096C37.9825 14.9348 38.3337 15.7826 38.3337 16.6667V23.3333C38.3337 24.2174 37.9825 25.0652 37.3573 25.6903C36.7322 26.3155 35.8844 26.6667 35.0003 26.6667H33.2303C32.824 29.8888 31.2558 32.852 28.8199 35C26.384 37.148 23.248 38.3333 20.0003 38.3333V35C22.6525 35 25.196 33.9464 27.0714 32.0711C28.9468 30.1957 30.0003 27.6522 30.0003 25V15C30.0003 12.3478 28.9468 9.80429 27.0714 7.92893C25.196 6.05356 22.6525 5 20.0003 5C17.3482 5 14.8046 6.05356 12.9293 7.92893C11.0539 9.80429 10.0003 12.3478 10.0003 15V26.6667H5.00033C4.11627 26.6667 3.26842 26.3155 2.6433 25.6903C2.01818 25.0652 1.66699 24.2174 1.66699 23.3333V16.6667C1.66699 15.7826 2.01818 14.9348 2.6433 14.3096C3.26842 13.6845 4.11627 13.3333 5.00033 13.3333H6.77032C7.17704 10.1115 8.74546 7.14878 11.1813 5.00112C13.6171 2.85346 16.7529 1.66846 20.0003 1.66846C23.2477 1.66846 26.3835 2.85346 28.8194 5.00112C31.2552 7.14878 32.8236 10.1115 33.2303 13.3333V13.3333ZM5.00033 16.6667V23.3333H6.66699V16.6667H5.00033ZM33.3337 16.6667V23.3333H35.0003V16.6667H33.3337ZM12.9337 26.3083L14.7003 23.4817C16.2888 24.4767 18.1259 25.003 20.0003 25C21.8747 25.003 23.7119 24.4767 25.3003 23.4817L27.067 26.3083C24.9491 27.6352 22.4996 28.3372 20.0003 28.3333C17.5011 28.3372 15.0516 27.6352 12.9337 26.3083Z" fill="#F9FAFB"/>
</svg>
