<?xml version="1.0" encoding="utf-8"?>
<!-- Generator: Adobe Illustrator 24.0.1, SVG Export Plug-In . SVG Version: 6.00 Build 0)  -->
<svg version="1.1" id="Layer_1" xmlns="http://www.w3.org/2000/svg" xmlns:xlink="http://www.w3.org/1999/xlink" x="0px" y="0px"
	 viewBox="0 0 1200 1200" style="enable-background:new 0 0 1200 1200;" xml:space="preserve">
<style type="text/css">
	.st0{fill:#CCE9FF;}
	.st1{fill:#F7F7F7;}
	.st2{fill:#0B4870;}
	.st3{fill:#2A94F4;}
	.st4{fill:#1A9146;}
	.st5{fill:#FCD2B1;}
	.st6{fill:#0E538C;}
	.st7{fill:#F5FAFA;}
	.st8{fill:#D3D3D3;}
	.st9{fill-rule:evenodd;clip-rule:evenodd;fill:#1A9146;}
	.st10{fill-rule:evenodd;clip-rule:evenodd;fill:#0A3C5F;}
	.st11{fill-rule:evenodd;clip-rule:evenodd;fill:#CC346F;}
	.st12{fill-rule:evenodd;clip-rule:evenodd;fill:#0B4870;}
	.st13{fill:#E5AB83;}
	.st14{fill:#EFB68F;}
	.st15{fill:#FFE3CA;}
	.st16{fill:#F7B690;}
	.st17{fill:#FFFFFF;}
	.st18{fill:#231F20;}
</style>
<path class="st0" d="M232,377.8c77.2-99,192.1-152.9,317-154.5c61.5-0.8,128.1,13.6,182.4,42.6c59.7,31.9,109,87.8,121,154.4
	c8.3,45.9,11.4,84,37.1,124.5c20.9,32.8,65.9,59.7,74.2,98.7c9.9,46.5-57.6,95.6-90.4,114.5C711.7,919.7,644.8,923.8,525.8,907
	c-64.4-9.1-136.1-117.1-185-162.7c-22.6-21-39.8-48.7-46.8-78.9s3.4-67-15.2-94.3c-11.8-17.3-33.4-24.7-49.9-37.6
	C171.9,489.2,191,430.3,232,377.8z"/>
<path class="st1" d="M732,156.4h242.5c2.2,0,4,1.8,4,4V331c0,2.2-1.8,4-4,4H732c-2.2,0-4-1.8-4-4V160.4
	C728,158.2,729.8,156.4,732,156.4z"/>
<path class="st2" d="M909.5,248.3H953c0.9,0,1.5,0.7,1.5,1.5v9.3c0,0.9-0.7,1.5-1.5,1.5h-43.5c-0.9,0-1.5-0.7-1.5-1.5v-9.3
	C908,249,908.7,248.3,909.5,248.3z"/>
<path class="st3" d="M909.5,271.6H953c0.9,0,1.5,0.7,1.5,1.5v9.3c0,0.9-0.7,1.5-1.5,1.5h-43.5c-0.9,0-1.5-0.7-1.5-1.5v-9.3
	C908,272.2,908.7,271.6,909.5,271.6z"/>
<path class="st4" d="M909.5,299.7H953c0.9,0,1.5,0.5,1.5,1.1v6.8c0,0.6-0.7,1.1-1.5,1.1h-43.5c-0.9,0-1.5-0.5-1.5-1.1v-6.8
	C908,300.2,908.7,299.7,909.5,299.7z"/>
<path class="st4" d="M885.5,220.6c-12.7-36-52.1-55-88.2-42.3c-36,12.7-55,52.1-42.3,88.2c0.1,0.2,0.2,0.5,0.2,0.7
	c0.5,1.5,1.1,2.9,1.7,4.3c15.3,35,56,51,91,35.7C881.3,292.7,897.7,254.9,885.5,220.6z M837.9,292.7c-25.7,9.2-54.1-3.1-65-28.1
	c-0.5-1-0.9-2.1-1.3-3.2c-9.6-27,4.4-56.6,31.3-66.3c27-9.6,56.6,4.4,66.3,31.3S864.8,283.1,837.9,292.7
	C837.9,292.7,837.9,292.7,837.9,292.7L837.9,292.7z"/>
<path class="st2" d="M770.9,228.5l-16.5-5.2c8.8-28.1,34.5-47.6,63.9-48.5l0.5,17.3C796.8,192.8,777.5,207.4,770.9,228.5z"/>
<path class="st3" d="M772.9,264.6l-15.9,6.9c-0.6-1.4-1.2-2.8-1.7-4.3c-5.1-14.1-5.4-29.6-0.9-43.9l16.5,5.2
	c-3.4,10.7-3.1,22.3,0.7,32.9C772,262.5,772.4,263.6,772.9,264.6z"/>
<path class="st5" d="M843.5,284.9c0,0-3.3-5.9,2-21.6c5.1-15.2,22.9-13.8,28.6-4.1c5.7,9.7,3.7,15.8-4.6,26.8S846.9,290,843.5,284.9
	z"/>
<path class="st5" d="M884.8,557.2c0,0,0.9,6.4,1,7.4s9.8-0.6,9.8-0.6l0.8-7.7C896.4,556.3,886,556.3,884.8,557.2z"/>
<path class="st2" d="M885.7,563.8c0,0-3.1,3.9-6,5.6s-7.6,2.4-9.4,4.1c-1.3,1.3-4.6,6.7,7.7,6.6s18.3,0.8,19.6-1.3
	c1.3-2.1-1.9-15.4-1.9-15.4S892.6,564.2,885.7,563.8z"/>
<path class="st2" d="M881.5,394.6c0,0,5,15.4,4.3,28.7s2.6,27.8,3.9,41.7c1.5,15.5,7.5,52.1,7.7,60.4s-0.9,34.7-0.9,34.7l-12,0.3
	c0,0-10.1-64-12.7-70.6s-15.6-53.1-16-58.4S881.5,394.6,881.5,394.6z"/>
<path class="st2" d="M831.7,393c0,0-7.3,40.8-8.2,48.9s-1.5,39.4-1.9,44.5s-2.9,66.5-5.2,74.1h13.4c0,0,13.8-44.7,13.8-65.8
	s9.1-45.9,15-59.9s19.3-14.3,23-40.1C881.5,394.6,836.6,384.8,831.7,393z"/>
<path class="st5" d="M848.3,289.1c0,0,1.5,4.4,0,7.5c-1.5,3.1,19.3,1.3,19.3,1.3s-0.9-6.5,1.8-11.8S848.3,289.1,848.3,289.1z"/>
<path class="st3" d="M882.5,397.9c0,0-7.5,7.7-51.5-1.2l0.7-3.8l50,1.9L882.5,397.9z"/>
<path class="st5" d="M845.2,297.6c0,0-7.7,0.8-9.9,1.2c-2.2,0.4-17-2.6-20-3c-3-0.3-16-9.2-16.4-10.2s-7.9-19.9-8.3-24
	s-7.3-2-6.7,0.8c1.1,5.3,2.5,18,3.3,21.7c0.8,4,3.1,13,4.3,14.2s12.9,10,24.3,13.7c7,2.3,13.7,5.5,20,9.3h56.2
	c0,0,21.9-31.3,22.3-36s-15.3-36-18.4-39.9s-7.7,1.3-7.7,1.3s9.4,27.6,10.7,31.5c1.3,3.9-11,21.3-14.3,21.3c-3.3,0-12-1.1-15.8-1.2
	c-2.7-0.2-5.3-0.8-7.8-1.8L845.2,297.6z"/>
<path class="st3" d="M821,318.5c0,0,6.9,4.6,7.5,12.4c0.8,8.3,2.3,16.5,4.4,24.5c1.3,4.2-1.1,35-1.4,37.2s43.5,7.4,50.2,2.2
	c0,0,1.9-28.7,2.7-36.9c0.8-8.2,4.5-27.9,5.8-30.6c1.3-2.7,16.5-24,17.1-26.9c0,0-7.9-12.5-13.5-12.7c0,0-9,10.5-11.9,11
	S861,296,861,295.9c0-0.1-2,2.7-12.4-0.5c0,0-12.4,1.4-14.4,1.6c-2.4,0.3-19.4-2.1-19.4-2.1s-6.8,11.5-5.6,17.3L821,318.5z"/>
<path class="st5" d="M791,264.1c0,0-1.5-7.3,0.3-9.4c1-1.2,3.6-4.3,3.8-4.8s3-2,3-2.8s-2.7-1.7-5,0.5s-3.8,2.6-4.7,2.4
	s-2.3-7.9-2.4-9.8s-0.9-6.9-2-6.6s-1.1,2.5-1.1,2.5s-1.4-3.8-2.3-3.1c-0.9,0.8-0.8,2.6-0.8,2.6s-1.7-2.1-2.2-0.6c-0.3,1-0.3,2,0,3
	c0,0-1.8-1-1.9,1.4s0.5,9.5,1.8,12.1s6,9.2,6.6,11.8C784.7,266,791,264.1,791,264.1z"/>
<path class="st5" d="M889.8,251.3c0,0-5.2-8.8-7-9.6s-4.3-1.2-6.5-2.8s-5.1-2.9-4.9-3.4c0.2-0.5,2.7-0.3,5.5,0.9
	c2.8,1.2,4,0.6,4.3,0c0.3-0.6-1.5-5.1-2.3-6.1c-0.8-1-6.8-7-5.8-7.9s4.9,2.4,5.5,3.1c0,0-3.1-6.5-1.9-6.8c1.2-0.3,3.5,2,3.5,2
	s-0.3-5.5,5.7,3.5c0,0-1.3-3,0.6-2s3.6,6.6,4.2,9.4s3.2,11.8,5.4,14S889.8,251.3,889.8,251.3z"/>
<path class="st2" d="M869.4,286c0,0-2.8,0.3-8.6-1.8s-6.3-12.3-7.6-11.1c-2.6,2.5-5,0.8-6-0.7c0,0,2.9-3.8,1.5-5.6
	c-1-1.2-2.2-2.3-3.5-3.1c-3.6-2.9-2.8-25.3,22.9-10.8C889.4,265,869.4,286,869.4,286z"/>
<path class="st5" d="M848.3,296.6l0.7-2.9c0,0,12-0.2,18.5,0.7l0.7,3.4C868.2,297.9,859.8,301.7,848.3,296.6z"/>
<path class="st5" d="M851.3,270.7c1.1-1.8,5.1-3,5.6,2.1c0.4,4-7.2,8.3-7.3,4.6C849.5,275.1,850.1,272.7,851.3,270.7z"/>
<path class="st3" d="M267.3,282.5c0,0-2.5,35,4.3,39.3c4.3,2.6,21.4,11.5,20.9,13.2c-0.5,1.7-9.7,14.8-9.7,14.8
	s-32.9-21.6-33.9-28.5c-1-6.7,1.6-51.3,6.1-53.4c3.4-1.5,5.2-0.3,9.4,2.9C270.5,275.3,267.3,282.5,267.3,282.5z"/>
<path class="st3" d="M263.5,537.6c0,0-1,7.1-1.2,8.2c-0.1,1.1-11.4-0.6-11.4-0.6l-0.9-8.4C250.1,536.7,262.1,536.6,263.5,537.6z"/>
<path class="st6" d="M262.5,544.9c0,0,3.6,4.3,7,6.1s8.9,2.6,10.9,4.5c1.5,1.4,5.4,7.4-9,7.3c-14.3-0.1-21.2,0.8-22.7-1.5
	c-1.5-2.3,2.2-17,2.2-17S254.3,545.6,262.5,544.9z"/>
<path class="st3" d="M319.8,537.6c0,0-1,7.1-1.2,8.2c-0.2,1.1-11.4-0.6-11.4-0.6l-0.9-8.4C306.3,536.7,318.4,536.6,319.8,537.6z"/>
<path class="st6" d="M318.7,544.9c0,0,3.6,4.3,7,6.1s16.1,3.4,18.2,5.3c1.5,1.4,3.9,7-16.2,6.5c-14.3-0.4-21.2,0.8-22.7-1.5
	c-1.5-2.3,2.2-17,2.2-17S310.4,545.7,318.7,544.9z"/>
<path class="st6" d="M267.5,355.4c0,0-10.6,16.8-9.8,31.9s-0.9,31.4-2.5,47.2c-1.8,17.7-6.6,54.4-6.8,63.9s0.3,45,0.3,45l18.3-0.1
	c0,0,6.5-71.8,9.6-79.3s16.1-61.4,16.6-67.4C293.8,390.7,267.5,355.4,267.5,355.4z"/>
<path class="st6" d="M323.1,357.7c0,0,4.2,41.2,5.2,50.5s0.3,49.5,0.9,55.3c0.5,5.8-3.5,67.2-4.5,78.8l-20.1-0.1
	c0,0-1.4-49.6-1.4-73.7s-6.2-52.2-13.3-68.1s-23.3-16.3-27.7-45.8C262.2,354.5,317.2,348.3,323.1,357.7z"/>
<path class="st5" d="M278.7,213.9c0,0,12.6-8.4,21.4,0.6c8.8,9,13.2,30.2,6.8,34.4c-6.3,4.2-17.1,5.3-22.2-0.4
	c-5.1-5.7-10.6-14.5-11.9-20.9C271.5,221.3,275.5,216.6,278.7,213.9z"/>
<path class="st5" d="M302.7,250.4c0,0-0.2,8.8,0.8,10.7c1,1.9-18.4,1.9-18.4,1.9c-1-6.4-2.6-12.7-4.5-18.9
	C277.6,235.4,302.7,250.4,302.7,250.4z"/>
<path class="st6" d="M281.1,244c0,0,1.8,1.8,6.9-0.2c5.1-2.1,9.9-10.7,11.9-12c2-1.3,1.8-2.6,1.8-2.6l1.9,1.7l2.4-0.4
	c0,0-3.6-5.8-1-9.1s-8.2-19.6-23.8-9.7c0,0-12.2,6.7-10,14C273.4,232.9,277.3,241,281.1,244z"/>
<path class="st0" d="M304.6,260.9c0,0-0.1-3.6-1.7-4c-1.6-0.4-18-1.9-20-1.1v4.3C282.9,260,286.8,262.4,304.6,260.9z"/>
<path class="st5" d="M300.7,226.5c-0.6-1.2-4.6-4-4.9,0.1c-0.3,4.1,3.9,8.5,5.5,7.7C302.9,233.5,302.2,229.5,300.7,226.5z"/>
<path class="st6" d="M275.1,216.1c0,0-18,4.8,5.3,27.2L275.1,216.1z"/>
<path class="st5" d="M435.8,311.8l-18.3-0.2c1.6-0.9,4.1-2.6,3.6-3.3c-0.8-1.1-6,1.3-8.1,1.5c-1.9,0.2-5.2-0.1-7.6,0.8l-5.8,2.5
	l5.3,4.9c0,0,9.6,1.4,12.4,1.6c4.6,0.3,18.5-5.1,18.8-5.9C436.4,312.1,435.8,311.8,435.8,311.8z"/>
<path class="st3" d="M328.6,265.9c-11.7-2-23.9-5-23.9-5l-21.7-0.9c0,0-19.9,4.4-27.8,7.9c-0.8,0.3-0.8,17.8-2.8,22.4l6.5,13.7
	c0,0,3.8,27.2,4.5,39.3c0.4,5.6-7.8,52.1-7.8,52.1c7.7,2,15.6,3.4,23.5,4.2c14.8,1.6,51.8-0.6,52.1-2.3c0.2-1.7-7.2-65.2-7.5-68.5
	c-0.5-5,1.5-28.3,1.5-28.3c2.8,3.8,18.9,17.8,26.8,22.3c5.6,3.2,19.4,1.2,23.4,0.8c8.8-0.9,33-2.6,33.5-3.5c0.4-0.5-1.4-9.4-2.4-9.7
	s-32.2-1.8-40-1.4c-3.2,0.2-13.6-11.4-13.6-11.4S335,268.7,328.6,265.9z"/>
<polygon class="st3" points="391,236.1 448.4,236.1 448.4,277.7 448.4,286.4 439.6,277.7 391,277.7 "/>
<polygon class="st0" points="393.4,178.1 336,178.1 336,219.7 336,228.4 344.8,219.7 393.4,219.7 "/>
<path class="st4" d="M182,744.8c8.8,16.5,28.4,19.6,40.5,34.3c5,6,9,13,15.7,17.3c10.3,6.7,24.3,5.5,36.1,1.4
	c8.2-2.8,16.6-7,25.3-5.5c7.8,1.3,13.8,7,21,10.2c20,8.9,43.1-1.9,61.1-10c8.7-3.9,17.3-8.5,23.6-15.5c0.4-0.4,5.3-7.5,5.3-7.5
	l-77.3-8.3C282.8,755.7,232.2,750.9,182,744.8L182,744.8z"/>
<path class="st4" d="M182,744.8c0.9,0.1,9.5-8.3,11.7-9.5c5.9-3.3,12.7-4.7,19.4-4c7.4,0.6,15.7,1.7,21.6-2.6
	c5-3.6,6.7-9.9,10.9-14.3c5.9-6.1,15.7-7.3,24.5-7c16.5,0.6,32.1,5.4,46.4,13c13.4,7.1,23.3,5.3,38.4,5.1c17.8-0.3,27,10,38.6,20.6
	c5.3,4.8,10.3,8.7,13.8,15.1c0.3,0.5,3.2,8.2,3.3,8.2L182,744.8z"/>
<path class="st7" d="M411.6,769.6c-0.1,0.6-0.7,1-1.3,1l-228.5-24.7c-0.6-0.1-1.1-0.6-1-1.2c0.1-0.6,0.7-1,1.3-0.9l228.5,24.7
	C411.2,768.4,411.6,769,411.6,769.6z"/>
<path class="st7" d="M352.7,763.2c0,0.1,0,0.2-0.1,0.3c-0.3,0.6-0.9,0.8-1.5,0.6c-2.2-0.8-54.3-20.3-64.5-46.4
	c-0.2-0.5,0-1.1,0.5-1.3c0.1,0,0.1,0,0.2-0.1c0.6-0.2,1.2,0.1,1.5,0.6c9.9,25.2,62.7,45,63.2,45.2
	C352.5,762.3,352.8,762.7,352.7,763.2z"/>
<path class="st7" d="M284.2,755.8c-0.1,0.5-0.4,0.8-0.9,0.9c-0.4,0.1-37.2,8.8-39.7,29.2c-0.1,0.6-0.7,1-1.3,0.9
	c-0.6-0.1-1.1-0.6-1-1.2c2.7-21.9,39.8-30.7,41.4-31.1c0.6-0.2,1.2,0.2,1.4,0.8C284.2,755.6,284.2,755.7,284.2,755.8z"/>
<path class="st2" d="M155.4,597.5c15.6-7.2,38.7-16.2,55.3-10.9c8,2.5,15.9,6.8,24.6,7.5c10,0.8,17.4-4.5,27-5
	c38.7-2.1,38.1,43.2,69.6,46.8c7.7,0.9,15.7-1.1,23.5-0.3c9.9,1,18.5,6.5,24.5,13.3c11,12.4,18,28.5,22.1,43.9
	c2.8,10.4,8.6,19,8.1,30.2c0,0.6-1.5,9.5-1.4,9.5L155.4,597.5z"/>
<path class="st2" d="M155.4,597.5c4.9,2.7,3.6,19.7,4.4,24.3c2.1,11.1,6.6,22.7,14,31.8c4.9,6.1,12.3,11,21,11.7
	c3.2,0.3,6.7-0.1,9.6,1.1c4.3,1.7,6.2,6.2,6.4,10.4c1,15.3,3,27.9,21.6,33.6c14,4.3,35.7,7.2,50.6,6.6c5.3-0.2,10.8-0.9,15.5,1
	c4.3,1.7,7.1,5.2,10.3,8.2c18.5,17.4,56.9,25.1,82.4,14.6c0.9-0.4,17.7-8.1,17.4-8.2L155.4,597.5z"/>
<path class="st7" d="M409.9,733.1c0.4-0.5,0.3-1.3-0.2-1.7c-0.1,0-0.1-0.1-0.2-0.1l-253.2-135c-0.7-0.4-1.6-0.2-2.1,0.5
	c-0.4,0.5-0.3,1.3,0.2,1.7c0.1,0,0.1,0.1,0.2,0.1l253.2,135C408.5,734,409.4,733.8,409.9,733.1z"/>
<path class="st7" d="M344.7,698.4c0.1-0.1,0.1-0.2,0.2-0.3c0.2-0.6-0.1-1.3-0.7-1.6c-0.1,0-0.2,0-0.3-0.1
	c-3-0.7-73.3-17.8-107.1,0.8c-0.6,0.3-0.9,1-0.6,1.7c0,0.1,0,0.1,0.1,0.1c0.5,0.6,1.4,0.8,2.1,0.4c32.7-18,104-0.6,104.7-0.4
	C343.5,699.2,344.2,698.9,344.7,698.4z"/>
<path class="st7" d="M268.7,657.9c0.4-0.4,0.4-1.1,0-1.5C268.4,656,239,621.8,255,600c0.4-0.5,0.3-1.3-0.2-1.7
	c-0.1,0-0.1-0.1-0.2-0.1c-0.7-0.4-1.6-0.2-2.1,0.5c-17.1,23.4,12.5,58,13.8,59.5c0.6,0.6,1.5,0.7,2.1,0.2
	C268.5,658.2,268.6,658.1,268.7,657.9z"/>
<path class="st7" d="M374.1,711.4c0.4-0.4,0.4-1.1,0-1.5c-0.3-0.3-29.6-34.6-13.7-56.4c0.4-0.5,0.3-1.3-0.2-1.7
	c-0.1-0.1-0.1-0.1-0.2-0.1c-0.7-0.4-1.6-0.2-2.1,0.5c-17.1,23.4,12.5,58,13.8,59.5c0.6,0.6,1.5,0.7,2.1,0.2
	C373.9,711.7,374,711.6,374.1,711.4z"/>
<path class="st2" d="M986.1,595.8l0.2-0.2c-8.9-0.9-14.7-6-24.9-3.1c-7.4,2.2-14.3,6.2-21.6,8.5c-12.9,4-22.6-3.4-35.7-0.4
	c-18.9,4.4-37.4,14.4-48.6,30.7c-8.7,12.8-12.9,29.3-25,38.8c-7.8,6.2-17.8,8.5-26.7,13c-32.7,16.7-35.4,58.2-41.5,90.3
	c-3.2,16.7,4,9.5,12.2,2.5l68.3-58.2C890.5,677.2,938.5,636.7,986.1,595.8z"/>
<path class="st2" d="M986.1,595.8c1.1,7.8-3.2,13.3-4.2,20.5c-0.8,6,0.8,12.5,0,18.7c-1.6,13.7-7.3,26.6-16.2,37.1
	c-5.8,6.8-13.2,12.7-16.3,21.1c-2.3,6.4-1.9,13.4-3.5,19.9c-2.7,11.1-11.2,20.2-20.9,26c-18.2,10.9-39.9,13.7-58.3,24.1
	c-9.4,5.3-17.2,13.1-26.2,19c-18.1,11.9-56.9,13.7-75.3,1.6c1.8,1.2,40.3-34.3,43-36.7l90-76.6C927.5,645.7,957,620.8,986.1,595.8z"
	/>
<path class="st7" d="M764.2,784.8c-0.5-0.6-0.4-1.5,0.2-2l220.9-188.1c0.6-0.5,1.4-0.5,1.9,0.1c0,0,0,0,0.1,0.1
	c0.5,0.6,0.4,1.5-0.2,2L766.2,785C765.6,785.5,764.7,785.4,764.2,784.8C764.2,784.9,764.2,784.8,764.2,784.8z"/>
<path class="st7" d="M821,736.4c-0.1-0.1-0.1-0.2-0.2-0.3c-0.3-0.7,0-1.6,0.7-1.9c2.7-1.3,66.1-31.4,99.4-16.7c0.7,0.4,1,1.2,0.6,2
	c-0.3,0.7-1.1,1-1.8,0.7c-32.2-14.2-96.5,16.3-97.1,16.6C822.2,737,821.5,736.9,821,736.4z"/>
<path class="st7" d="M887.3,680c-0.4-0.5-0.4-1.1-0.1-1.7c0.2-0.4,23.9-42.5,6.9-63.6c-0.5-0.6-0.4-1.5,0.2-2c0.6-0.5,1.5-0.5,2,0.1
	c0,0,0,0,0,0c18.3,22.7-5.6,65.1-6.7,66.9c-0.4,0.7-1.2,0.9-1.9,0.6c0,0,0,0,0,0C887.5,680.2,887.4,680.1,887.3,680z"/>
<path class="st4" d="M1043.6,703.7c-15.2-10.3-37.8-23.6-55.9-20.2c-8.7,1.6-17.6,5.1-26.8,4.6c-10.5-0.6-17.4-7.5-27.3-9.5
	c-40-8.1-46.4,42-79.9,41.4c-8.2-0.2-16.2-3.5-24.4-3.8c-10.5-0.4-20.2,4.4-27.6,11c-13.4,12.1-23.2,28.8-29.9,45.2
	c-4.5,11.1-11.9,19.7-13.2,32.2c-0.1,0.6,0,10.7,0,10.7L1043.6,703.7z"/>
<path class="st4" d="M1043.6,703.7c-5.5,2.2-6.8,21.2-8.4,26.1c-3.9,11.9-10.4,24.1-19.5,33c-6.1,6-14.6,10.3-23.7,9.8
	c-3.4-0.2-6.9-1.1-10.1-0.2c-4.7,1.3-7.4,5.9-8.3,10.5c-3.5,16.7-7.5,30.3-27.8,33.9c-15.3,2.7-38.4,2.6-53.7-0.2
	c-5.5-1-11.2-2.5-16.3-1.2c-4.7,1.3-8.2,4.7-12,7.5c-22,16.4-63.2,19.3-88.1,3.9c-0.8-0.5-17.2-11.5-16.9-11.6L1043.6,703.7z"/>
<path class="st7" d="M757.3,815.8c-0.4-0.7-0.1-1.5,0.6-1.9c0.1,0,0.1-0.1,0.2-0.1l284.9-111.5c0.8-0.3,1.7,0.1,2.1,0.8
	c0.4,0.7,0.1,1.5-0.6,1.9c-0.1,0-0.1,0.1-0.2,0.1L759.4,816.6C758.5,816.9,757.6,816.6,757.3,815.8z"/>
<path class="st7" d="M830.6,787.1c-0.1-0.1-0.1-0.2-0.1-0.4c-0.2-0.7,0.3-1.5,1.1-1.6c0.1,0,0.1,0,0.2,0
	c3.2-0.4,79.1-8.9,111.5,16.7c0.7,0.5,0.8,1.4,0.4,2c0,0,0,0.1-0.1,0.1c-0.6,0.6-1.6,0.7-2.2,0.1c-31.3-24.7-108.2-16-109-15.9
	C831.6,788.1,831,787.7,830.6,787.1z"/>
<path class="st7" d="M916.1,753.6c-0.3-0.5-0.2-1.2,0.3-1.7c0.4-0.3,36.3-33.8,23.1-60.3c-0.4-0.7-0.1-1.5,0.6-1.9
	c0.1,0,0.1-0.1,0.2-0.1c0.8-0.3,1.7,0.1,2.1,0.8c14.1,28.4-22.1,62.2-23.7,63.6c-0.7,0.6-1.6,0.5-2.2-0.1
	C916.3,753.9,916.2,753.8,916.1,753.6z"/>
<path class="st7" d="M797.9,797.1c-0.3-0.5-0.2-1.2,0.3-1.7c0.4-0.3,36.3-33.8,23.1-60.3c-0.4-0.7-0.1-1.5,0.6-1.9
	c0.1,0,0.1-0.1,0.2-0.1c0.8-0.3,1.7,0.1,2.1,0.8c14.1,28.4-22.1,62.2-23.7,63.6c-0.7,0.6-1.6,0.5-2.2-0.1
	C798.1,797.5,798,797.3,797.9,797.1z"/>
<rect x="319" y="374" class="st1" width="537" height="366"/>
<polygon class="st8" points="333.2,410.8 333.2,413.4 837.5,413.3 837.5,410.7 "/>
<polygon class="st8" points="333.4,457.5 837.9,457.4 837.9,454.8 333.4,454.9 "/>
<polygon class="st8" points="333.6,501.6 838.3,501.5 838.2,498.9 333.6,499 "/>
<polygon class="st8" points="333.8,545.7 838.6,545.6 838.6,543 333.8,543.1 "/>
<polygon class="st8" points="334,589.9 839,589.8 838.9,587.2 334,587.3 "/>
<polygon class="st8" points="334.2,634.1 839.3,634 839.3,631.3 334.1,631.5 "/>
<polygon class="st8" points="334.4,678.3 839.6,678.2 839.6,675.5 334.4,675.7 "/>
<path class="st9" d="M334.3,663.2l73.9-64.3c7.8-6.8,20.6-6.8,28.5,0l18.4,15.9c7.9,6.8,20.6,6.8,28.5,0l0,0
	c7.8-6.8,20.6-6.8,28.5,0l27,23.3c7.9,6.8,20.6,6.8,28.5,0l80.6-70.3c7.8-6.8,20.5-6.8,28.5,0l38.4,33c7.9,6.8,20.7,6.8,28.5,0
	l13.9-12.1c7.8-6.8,20.5-6.8,28.5,0l53.6,46.1l0.7,89.1H334.6L334.3,663.2z"/>
<path class="st4" d="M667.8,517.3h-78.2c-9.9,0-18-8-18.1-18l0,0c0-9.9,7.9-17.9,17.8-17.9c0.1,0,0.1,0,0.2,0h78.2
	c9.9,0,18,8,18.1,17.9l0,0c0.1,9.9-7.9,17.9-17.7,17.9C667.9,517.3,667.9,517.3,667.8,517.3z"/>
<path class="st4" d="M820,473.9h-78.2c-9.9,0-18-8-18.1-17.9l0,0c-0.1-9.8,7.9-17.9,17.7-17.9c0.1,0,0.1,0,0.2,0h78.2
	c9.9,0,18,8,18.1,17.9l0,0c0.1,9.8-7.8,17.9-17.7,17.9C820.2,473.9,820.1,473.9,820,473.9z"/>
<path class="st4" d="M526.5,561.4h-78.2c-10,0-18.1-8-18.1-18l0,0c-0.1-9.9,7.9-17.9,17.8-18c0.1,0,0.1,0,0.2,0h78.2
	c10,0,18.1,8,18.1,18l0,0c0,9.9-7.9,17.9-17.8,17.9C526.6,561.4,526.6,561.4,526.5,561.4z"/>
<ellipse class="st1" cx="592.5" cy="1023.5" rx="282" ry="19.5"/>
<path class="st2" d="M460,875.3c2.9,6.2,6.9,13.1,12.7,14.8c4,1.2,15.3-6.4,17.5-9.4s-4.7-149.7-9.8-158.6
	c-6.8-12-60.1,4.6-58.3,25.3c2.4,26.6,9.9,54.8,18.9,81.1C446.4,844.6,452.8,860.2,460,875.3z"/>
<path class="st6" d="M364.5,1011.5c5.9,0.9,12,0.4,17.7-1.4c0.3-6.9,0.6-13.8,0.9-20.6c0.1-0.9,0-1.7-0.3-2.5
	c-0.7-1-1.9-1.6-3.1-1.7c-4.7-0.8-11.9-1.1-12.7,4.9C366,997.2,365.3,1004.3,364.5,1011.5z"/>
<path class="st6" d="M490.6,1011.5c5.8,0.9,11.7,0.4,17.3-1.4c-1.3-6.9-2.5-13.8-3.8-20.6c-0.1-0.9-0.4-1.8-0.9-2.5
	c-0.9-1-2.2-1.6-3.5-1.7c-4.9-0.8-12.2-1.1-11.6,4.9C488.8,997.2,489.7,1004.3,490.6,1011.5z"/>
<path class="st2" d="M488.6,858.5c-7.6-12.2-26-20.5-33.7,0.6c-11.8,32.2,25.6,92.5,31.1,131.5h20
	C506.6,986.8,492.8,865.2,488.6,858.5z"/>
<path class="st10" d="M391.9,757.9c4.9,3.8,11.3,4.4,17.3,4.4c49.7,0,78.4-16.2,71.6-39c-7.1-23.5-51.5-19.7-74.8-12.1
	c-5,1.6-12.3,3.2-15.7,7.9C385.4,725.8,380,748.5,391.9,757.9z"/>
<path class="st2" d="M506,667.2c3.8,3.2,8.8,6.1,13.4,4.3c2.7-1.2,4.6-3.6,5.3-6.4c0.7-2.8,0.9-5.7,0.5-8.6
	c-2.1-22.6-29.8-75.6-46.9-92.7c-6.1-8.8-23.8,33-22.9,39.3C456.2,609.4,488.4,652.5,506,667.2z"/>
<path class="st2" d="M374.6,874.7c1,6.2,9,13.8,14.3,15.5c3.6,1.2,17.2-6.4,20.4-9.4s38.8-126.1,36.4-135
	c-3.1-12-13.3-19.7-24.3-21.5c-16-2.6-33.4,3-39.8,23.2C366.1,796.4,385.3,832.9,374.6,874.7z"/>
<path class="st0" d="M593,700c2.3,2.5,4.8,5.6,4.1,8.9c-0.6,2.8-3.5,4.7-6.4,5c-0.9,0.1-10.1-3.7-20-8.3l10-16
	C585,692.8,589.1,696.3,593,700z"/>
<path class="st2" d="M580.6,689.5l-9.8,19.5c-22.9-10.7-58.1-32.5-63.4-42.1c-3.9-6.9-0.6-13.2,5.5-17
	C519.4,645.8,559.3,673,580.6,689.5z"/>
<path class="st2" d="M415.5,858.5c-3.5-12.2-21.2-21.8-33.9,0.6c-20.5,36-15.7,89.8-16.8,131.5h20
	C386.6,986.8,417.5,865.2,415.5,858.5z"/>
<path class="st6" d="M486.2,572.2c5.1,7.5,3.2,18.2,2,26.8c-2.7,18.5-1.9,149.3-1.7,152.3s-1,6.2-4,7.5c-1.8,0.7-3.8,0.9-5.7,0.8
	c-26.1-0.2-67.4-0.3-93.5-0.5c-1.7,0.1-3.4-0.2-5-0.9c-3.1-2-2-6.2-0.9-9.5c7.5-21.7,11.3-79,4.4-100.9
	c-6.8-21.7-15.1-48.6-11.4-71.4c9.2-11.2,28-37.3,65.4-37.3C462,539,481.6,565.5,486.2,572.2z"/>
<path class="st6" d="M384.6,562.8c3.6-1.1,28.6,0.5,22,18.4c-8.3,22.2-24.9,40.2-38.8,59.3c-4.3,5.9-8.6,11.8-14.2,16.5
	c-5.6,4.6-12.8,7.8-20,7.2c-3.8-0.3-9.4-2.1-11.3-5.8c-1.5-3,0.4-7.9,1-10.9C325.8,636.8,364.9,568.7,384.6,562.8z"/>
<path class="st11" d="M351.5,628.8c0,0.1-0.1,0.3-0.1,0.4L351.5,628.8z"/>
<path class="st0" d="M405,710c0.4,3.7-7,7-10.6,7.8c-1,0.2-6.4-5.1-13.9-10.3l11.5-11.7C397.3,702.5,404.9,709.3,405,710z"/>
<path class="st0" d="M457.1,668.2c-4.7-25.1-9.6-50.1-15.2-72.8c-5.4-21.5-18.2-36.6-34.5-50.7c13.4-10.5,36.8-11.5,48.3,2.2
	c14.2,16.9,9.7,47.5,9,67.7C464.2,630.7,459.6,668.3,457.1,668.2z"/>
<path class="st3" d="M441.1,558.6c-1.9-2.7-4.4-5.6-3.8-8.8c0.4-2.2,2.2-3.9,4.4-4.2c7.9-1.1,4.3,7.5,3.2,11.3
	c7.6,11.4,16.8,35.3,19.8,63.9c-0.8,17-5.2,51.4-7.5,51.4c-3.2-17.1-6.5-34.2-10.1-50.5C446.4,602.9,444.6,563.7,441.1,558.6z"/>
<path class="st6" d="M322,652.9c1-3.4,4.4-5.4,7.8-6.6c5.6-2,12.6-3.4,18.5-2.2c4.1,0.8,5.3,4.5,7.7,7.5
	c5.8,7.5,28.7,34.6,40.1,48.9l-12.5,15.7c-18.5-12.8-52-45.2-57.6-52.6C323.5,660.5,321,656.7,322,652.9z"/>
<path class="st12" d="M440,471.9c-2.9-2.9-22.8-10.5-29.2,3.9c-2.2,5-3.1,13.5-1.9,18.9c1.5,7.1,13.8,33.4,17.7,30.3
	c3.9-3.2,6.2-8,6.2-13.1c-0.1-5.6-3-11.3-1.4-16.7c1-3.3,3.5-5.8,5.9-8.3c1.9-2,5.2-4.1,5.7-6.9C443.2,477,442.1,474,440,471.9z"/>
<path class="st12" d="M458.4,481c-0.3-2.4-1.1-4.9-2.9-6.5c-2.9-2.6-7.4-2.2-10.9-0.5c-1.9,0.9-3.8,2.4-3.8,4.5
	c0,1.8,1.3,3.2,2.6,4.3c3,2.7,7.3,6.6,11.3,7.7C459.6,491.9,458.8,483.9,458.4,481z"/>
<path class="st13" d="M446.3,512.8c-2.6-11.3-11.1-13.9-16.1-11.2c-3.2,21.1-6.4,30.5-14.7,42c10.3,6.6,27.9,5.4,31.7,0
	C447.4,542,447.6,518.7,446.3,512.8z"/>
<path class="st14" d="M425.4,486.2c4.8-11.5,20.5-14.2,29.3-4.4c8.1,9,9.1,32.8,6,38.7c-5.3,10.3-24.1,5.8-28.1,0.4
	C426.8,513,421.4,495.9,425.4,486.2z"/>
<path class="st12" d="M457,484.1c0.3,2.7,0.2,5.4,0.8,8s2.2,5.2,4.7,6c-1.3-2.1-1.3-4.7-0.8-7.1s1.4-4.7,1.8-7.1
	c1.4-8.9-4.7-17.3-13.7-18.7c-2-0.3-4.1-0.2-6.1,0.2c-2.9,0.5-5.5,2.2-7.1,4.7c-1.5,2.5-1.3,6.1,0.9,8.1c1.9,1.5,4.5,2,6.8,1.3
	c1.9-0.4,2.5-1.8,4.1-2.6C453.2,474.1,456.5,480.1,457,484.1z"/>
<path class="st14" d="M417.5,507.4c0.6,2.8,2.2,5.3,4.5,7c6.7,4.6,9.3-5,6.6-9.8C425.5,498.9,416,499.8,417.5,507.4z"/>
<path class="st12" d="M441.7,477.8c0,2.2-5.8,5.7-7.4,7.2s-3.4,2.8-4.4,4.8c-1.3,2.5-1,5.5-0.3,8.2s1.8,5.3,2,8.1s-0.6,5.9-3,7.4
	c1-2.6-0.1-5.6-1.7-7.8s-3.9-4-5.4-6.3c-3-4.5-3.5-10.3-1.1-15.2c1.7-3.4,6.3-8.9,9.9-10.3C433.2,472.7,441.8,472.9,441.7,477.8z"/>
<path class="st12" d="M546,1021.6c0.3-2.9-2.5-5.2-5.3-5.9s-5.7-0.2-8.6-0.2c-8.4-0.2-16-4.9-19.9-12.3c-0.4-1.1-1.1-2-2-2.7
	c-1.3-0.7-3-0.2-4.2,0.8s-2,2.3-3,3.3c-1.9,1.9-4.6,3-7.3,2.9c-2.3,0-4.8-1.8-6.9-0.6c-1.9,1-2.4,3.6-2.9,5.5
	c-0.8,3.2-1.6,6.5-2.4,9.8c-0.2,0.7-0.3,1.5-0.4,2.2h15.6c0.7-1,1.3-4,1.6-5.2c0,1.3,0.5,4.3,1.4,5.2h42.9
	C545.4,1023.6,545.9,1022.6,546,1021.6z"/>
<path class="st12" d="M389.3,1021.6c0.1-2.9-1.1-5.2-2.3-5.9s-3.1-5.5-5.7-12.5c-1.2-3.2-7.6-4.1-10.9,1.4c-1,1.8-2,3-3.2,2.9
	c-1,0-2.1-1.8-3-0.6s-1.1,3.6-1.3,5.5c-0.4,3.2-0.7,6.5-1,9.8c-0.1,0.7-0.2,1.5-0.2,2.2h27C389.1,1023.5,389.3,1022.5,389.3,1021.6z
	"/>
<path class="st0" d="M452.4,554.5l-5-3.6c-1.2-0.9-2.5-1.8-3.9-1.6s-2.5,1.3-3.5,2.4l-4.9,5.5c-0.7,1-1.7,1.7-2.8,2
	c-1.5,0.3-2.9-0.7-4.1-1.6c-5.3-4.1-10.3-8.6-14.9-13.4c-0.8-0.5-1.1-1.6-0.6-2.4c0.1-0.2,0.3-0.3,0.4-0.5l6.2-7.5
	c4.6,2.2,9.3,4.4,14.3,5.2c3.9,0.6,8,0,11.5-1.7c0.6-0.3,1.7-1.4,2.4-1s0.8,2.5,1,3.1l1.8,7.1L452.4,554.5z"/>
<rect x="455.9" y="686.2" transform="matrix(0.9998 -1.867394e-02 1.867394e-02 0.9998 -13.4023 8.6582)" class="st2" width="2.1" height="71.6"/>
<path class="st2" d="M450.7,672.2c-11.9-22.7-27.9-43.1-47.2-59.9l-1-0.9l12.4-8.9l-10.9-3.6l-0.1-0.6c-4-16.6-5.2-31,1.8-47.7
	l2,0.8c-6.7,15.9-5.6,29.9-1.8,45.8l13.7,4.6l-13.6,9.8c19.1,16.9,34.9,37.1,46.7,59.7L450.7,672.2z"/>
<path class="st2" d="M464.8,672.7l-1.9-1c10.3-19.8,16.6-41.4,18.5-63.6l-11-4.3l5.1-0.2c2.6-0.1,4.7-2.5,5.3-4.9
	c0.8-2.7,0.3-5.7-0.3-8.4c-2.9-13.1-9.2-25.2-18.3-35.1l1.5-1.4c9.4,10.1,15.9,22.5,18.8,36c0.7,3.1,1.2,6.3,0.3,9.5
	c-0.6,2.3-2.1,4.2-4.1,5.5l4.9,1.9l-0.1,0.8C481.7,630.2,475.3,652.4,464.8,672.7z"/>
<path class="st14" d="M410.3,720.5c0.6,3.3,0.5,7-1.4,9.8c-1.9,2.4-4.6,3.9-7.6,4.3c-3,0.3-6,0.1-8.9-0.6c-2.1-0.4-4.3-1-5.8-2.5
	s-1.8-4.3-0.1-5.6c2-1.5,5.2-0.1,7.2-1.7s1.1-4.7,1.2-7.2c0.1-3.8,4.1-8.4,8.2-7.7C407.6,710,409.5,716.7,410.3,720.5z"/>
<path class="st15" d="M602,721.8c20.6-5.1,9.5-23.6-3.5-23.5c-4.3,0-8.9,0.6-12.2,3.3C575.1,710.6,592.5,723.9,602,721.8z"/>
<path class="st2" d="M439.4,696.9c-2.7,0-4.8-2.2-4.8-4.8c0-2.7,2.2-4.8,4.8-4.8c2.7,0,4.8,2.2,4.8,4.8S442.1,696.9,439.4,696.9
	C439.4,696.9,439.4,696.9,439.4,696.9z M439.4,689.3c-1.5,0-2.7,1.2-2.7,2.7c0,1.5,1.2,2.7,2.7,2.7s2.7-1.2,2.7-2.7c0,0,0,0,0,0
	C442.1,690.5,440.9,689.3,439.4,689.3z"/>
<path class="st2" d="M440.8,723.4c-2.7,0-4.8-2.2-4.8-4.8c0-2.7,2.2-4.8,4.8-4.8c2.7,0,4.8,2.2,4.8,4.8S443.5,723.4,440.8,723.4
	C440.8,723.4,440.8,723.4,440.8,723.4z M440.8,715.8c-1.5,0-2.7,1.2-2.7,2.7c0,1.5,1.2,2.7,2.7,2.7s2.7-1.2,2.7-2.7c0,0,0,0,0,0
	C443.5,717.1,442.3,715.8,440.8,715.8z"/>
<path class="st2" d="M456,705.4c-0.8,18.5-1,36.7-8.5,53.6c4.1,0.2,9.2,2.3,12.7-0.4c3.9-3,1.2-10.5,0.7-14.5
	C459.4,731.8,455.4,717.7,456,705.4z"/>
<path class="st6" d="M682.5,1010.9c-5.9,0.9-11.9,0.4-17.6-1.4l2.3-20.8c0-0.9,0.3-1.8,0.7-2.5c0.9-1,2.1-1.6,3.4-1.7
	c4.9-0.8,12.2-1.1,12,4.9C683.2,996.5,682.8,1003.7,682.5,1010.9z"/>
<path class="st12" d="M757.7,755.6c-0.8-6-3.8-11.6-8.5-15.5c-4-18.7-49.7-32.2-56.8-21c-5.2,8.1-20.2,128.6-21.7,154.9
	c-3.1,35.6-6,112.8-5.4,115.8h20.2c2.1-30.8,23-74.7,25.1-108c15.1-31.8,28.9-64.2,41.4-97.2C755.5,775.3,759,765.5,757.7,755.6z"/>
<path class="st10" d="M799.4,755.1c-4.9,3.9-11.4,4.5-17.5,4.5c-50.1,0-79.1-16.3-72.2-39.3c7.1-23.7,52-19.8,75.4-12.2
	c5,1.6,12.4,3.2,15.9,8C806,722.8,811.4,745.7,799.4,755.1z"/>
<path class="st2" d="M716.3,603.7c-6,22.3-15,44.6-31.4,60.8c-3.5,3.5-8.3,6.9-13.1,5.5c-2.8-1-4.9-3.2-5.9-6
	c-0.9-2.8-1.3-5.7-1.2-8.6c0.2-22.9,11.4-44.1,22.3-64.2c4.5-8.3,11.3-23.2,21.2-26.2c10.3-3.1,12,13.1,11.7,19.6
	C719.3,591,718.1,597.4,716.3,603.7z"/>
<path class="st11" d="M863,612.5c0.1,0.1,0.2,0.3,0.2,0.4L863,612.5z"/>
<path class="st15" d="M750.9,520.1c7.4-11.4,20.7-14,27-11.3c-2.4,21.3-0.8,30.8,7.4,42.4c-17.1,6.7-42.1,5.4-45.9,0
	C739.7,549.4,747,526,750.9,520.1z"/>
<path class="st12" d="M741.6,489.3c-2.2,1.6-4.4,3.7-4.8,6.4c-0.3,2.1,0.4,4.1,1.1,6.1l2.8,7.6c2.1-2.7,3.1-6.1,4.2-9.4
	s2.6-6.6,5.4-8.6c1.7-1.3,4.1-2.2,4.6-4.3c0.7-3-2.5-4.4-4.7-3.2C747.1,485.5,744.3,487.3,741.6,489.3z"/>
<path class="st15" d="M774.9,493.9c-5.7-11.2-21.7-12.7-29.8-2.1c-7.4,9.7-6.5,33.7-3.1,39.4c6.1,9.9,24.7,3.9,28.3-1.8
	C775.6,521,779.7,503.3,774.9,493.9z"/>
<path class="st12" d="M744.6,517c2.5-1.8,6.4-2,8.5,0.3c1.1,1.2,1.5,2.9,2.1,4.4c0.5,1.6,1.4,3.2,2.9,3.8c2.1,0.9,4.4-0.4,6.3-1.7
	l6.5-4.3c1-0.7,2.5-1.4,3.4-0.6s0.7,2.1,0.4,3.2c-2.9,8.8-10.4,15.4-19.5,17.1c-3.4,0.6-7.2,0.4-10.2-1.4c-3.7-2.2-5.6-6.5-6.2-10.6
	C738.2,523.5,741.6,519,744.6,517z"/>
<path class="st12" d="M770.2,496.2c-0.8,1.6-1.6,25.6-0.9,25.5c2.5-0.5,6.7-6.3,10.9-5.2c1.3,0.4,3,1.7,3.7-1.1
	c4-17.3,4.5-16.3,1.7-18.5C779.5,492,771.7,493.3,770.2,496.2z"/>
<path class="st15" d="M784.5,514.6c-0.3,2.9-1.8,5.5-4,7.4c-6.4,5.2-9.7-4.3-7.4-9.3C775.8,506.7,785.4,506.8,784.5,514.6z"/>
<path class="st12" d="M748.6,494.2c0.1,1.6,0.6,3.5,2.1,4s19.1-8.3,20.1-8.2s-1.6,6.3-0.7,7.2s2,0.6,3.1,0.4
	c4.8-0.8,9.5,0.5,14.2,1.8c0.6-1.7,0.7-3.5,0.3-5.2c-0.5-1.4-1.2-2.6-2.1-3.8c-3.7-5.2-9-9.6-15.2-10.8c-3.8-0.6-7.6-0.6-11.3,0.2
	C744.7,482.3,748.5,491.7,748.6,494.2z"/>
<path class="st12" d="M626.5,1021.1c-0.3-2.9,2.5-5.3,5.3-6s5.8-0.2,8.7-0.2c8.4-0.2,16.1-4.9,20.1-12.4c0.4-1.1,1.1-2,2-2.7
	c1.4-0.6,3.1-0.3,4.2,0.8c1.2,1,2,2.3,3.1,3.3c2,1.9,4.6,3,7.3,2.9c2.3,0,4.8-1.8,7-0.6c1.9,1,2.4,3.7,2.9,5.6
	c0.8,3.3,1.6,6.6,2.4,9.8c0.2,0.7,0.3,1.5,0.4,2.2h-15.7c-0.7-1-1.3-4-1.7-5.3c0,1.3-0.5,4.3-1.4,5.3h-43.3
	C627.1,1023.2,626.7,1022.2,626.5,1021.1z"/>
<path class="st6" d="M792.8,1014.7c-5.9,1.1-11.9,0.8-17.7-0.8c0.2-7,0.3-13.9,0.5-20.9c-0.1-0.9,0.1-1.8,0.5-2.5
	c0.8-1,2-1.7,3.3-1.8c4.8-1,12.1-1.5,12.5,4.5C792.2,1000.3,792.5,1007.5,792.8,1014.7z"/>
<path class="st12" d="M811.3,738.7c-0.2-21.1-18.4-28.2-35.1-27.3c-3.5,0.2-7,0.9-10.3,2.2c-5.8-2-12.5-0.4-17.6,3.2
	s-8.7,9.1-11.2,14.9c-6.9,16-6,34.3-3.7,51.6c1.9,14.2,4.7,28.3,8.4,42.1c2.9,11,6,25,10,36.3c-2.1,8.2,20.4,128.7,22,132.4
	l20.2-0.7c1.7-41.4,10-95-7.1-130.8c5.3-14,9.8-28.3,13.4-42.9C806.6,793.8,811.5,765.7,811.3,738.7z"/>
<path class="st12" d="M767.6,1025.7c-0.2-2.9,0.9-5.3,2.1-6s3-5.6,5.3-12.8c1.1-3.3,7.6-4.4,11,1.1c1.1,1.8,2.1,2.9,3.3,2.8
	c1-0.1,2-1.8,3-0.7s1.2,3.6,1.5,5.5c0.5,3.3,0.9,6.5,1.4,9.8c0.1,0.7,0.2,1.5,0.3,2.2l-27.2,0.9
	C767.9,1027.7,767.7,1026.7,767.6,1025.7z"/>
<path class="st16" d="M785.1,712.9c-2.1,2.5,4.9,4.1,7.4,6.2l-19.8,1.1c-1.2-0.1-2.3,0.3-3.3,1c-0.9,1-1.1,2.6-0.4,3.8
	c0.7,1.2,1.7,2.2,2.8,2.9c6.4,4.3,14.2,6.1,21.8,5c3-0.3,5.8-1.4,8.2-3.2c2.4-1.8,3.7-4.8,3.5-7.8c-0.6-4.5-4-4.6-7.5-5.5
	C795.7,715.7,785.8,712,785.1,712.9z"/>
<path class="st6" d="M830.4,583.2c-7.3-8.6-20.2-25.3-43.2-34.5c-13.7,7-31.5,5.5-43.5-5.1c-23.3,5-40.8,23.8-45.4,29.3
	c-6.1,7.2-4.5,18-3.5,26.7c2.2,18.6-8,149.3-8.5,152.2s4.2,6.2,7.5,7.7c2.1,0.7,4.3,1.1,6.5,1.1c29.9,1.2,77.1,3.2,107,4.4
	c2,0.1,4.1,0.1,5.8-0.7c3.7-1.8,2.6-6.1,1.5-9.4C806.9,732.8,833.6,606.1,830.4,583.2z"/>
<path class="st17" d="M781.1,545.4c-10.3,8.1-25.7,4.1-37-1c-3.8,1.4-7.4,3.5-10.4,6.1c-17.8,16.1-13.8,46.9-14,67.2
	c-0.1,16.1,3.7,53.9,6.7,54c6.8-24.8,13.8-49.5,21.6-71.9c7.4-21.2,23.6-35.6,43.7-48.8C788.4,548.7,784.9,546.8,781.1,545.4z"/>
<path class="st4" d="M749.4,563.6c2.3-2.6,5.2-5.3,4.7-8.6c-0.5-2.3-2.4-4.1-4.8-4.4c-9-1.5-5.3,7.3-4.1,11.1
	c-9.2,11-20.8,34.4-25.6,62.8c0.2,17.1,3.5,51.6,6.3,51.7c4.5-16.9,9-33.8,13.8-49.9C741.4,607.5,745.2,568.4,749.4,563.6z"/>
<path class="st17" d="M735,558.8l6.8-3.3c1.6-1,3.4-1.4,5.3-1.4c1.7,0.4,3.3,1.3,4.5,2.6l6.3,5.8c1,1,2.2,1.8,3.6,2.2
	c2,0.4,3.8-0.5,5.5-1.4c7.1-3.7,13.9-7.9,20.4-12.5c0.6-0.4,1.2-0.9,1.2-1.5c-0.1-0.5-0.4-1-0.8-1.3l-7.8-7.9
	c-6.2,2-22.8,6.5-29.5,6.9c-5.2,0.3-7.1-6.6-8-6.3c-0.9,0.3-1.2,2.4-1.4,3.1l-2.7,7C737.1,553.5,736,556.1,735,558.8z"/>
<path class="st2" d="M734.1,676.5c15.1-22.6,34.4-42,56.8-57.4l1.2-0.8l-13.7-9.5c0,0,46-18.3,13-51.3c20.4,29.1,3.4,40.8-18.2,50.4
	l15.1,10.5C751.8,643,734.1,676.5,734.1,676.5z"/>
<path class="st2" d="M716,676.4c0,0-14.9-43.3-16-65.4l12.7-3.7l-5.8-0.5c-2.8-0.4-5.1-2.4-5.9-5.2c-0.8-2.7-0.1-5.7,0.7-8.4
	c3.9-12.9,20.8-35.6,20.8-35.6c-10.9,9.2-19,21.4-23.2,35c-0.9,3-1.6,6.3-0.7,9.4c0.7,2.4,2.3,4.4,4.5,5.7l-5.7,1.6v0.8
	C698.7,633.4,705,656,716,676.4z"/>
<path class="st17" d="M603.5,699.2c-2.1,2.7-4.3,6-3.3,9.2c0.9,2.8,3.9,4.3,6.8,4.4c0.9,0,9.7-4.5,19.3-10l-11.3-15.1
	C610.9,691.3,607,695.1,603.5,699.2z"/>
<path class="st2" d="M614.9,687.7l11.4,18.5c21.9-12.5,58.4-37.3,62.9-47.3c3.3-7.2-7.5-16.8-13.8-20.1
	C668.6,635.3,634.7,669.5,614.9,687.7z"/>
<path class="st14" d="M596.4,721.7c-6.9-1.1-12.1-6.7-12.8-13.6c0-5.1,1.4-9.2,14.3-10.2c4.3-0.3,8.9-0.2,12.4,2.3
	C622.2,708.2,606,722.9,596.4,721.7z"/>
<path class="st15" d="M807.6,766.2c-1.2,10.1,2.7,18.8,8.7,19.7c5,0.6,6-7.5,13.2-17c6.1-8.2-2.7-19-8.7-19.7
	S808.9,756.1,807.6,766.2z"/>
<path class="st17" d="M813.3,753.9c1.8,3.2,9.7,1.7,13.2,0.3c1-0.4,2.3-7.9,5.5-16.4l-16.1-3C815.3,743.3,812.9,753.3,813.3,753.9z"
	/>
<path class="st6" d="M848.5,659.6c-2.7-2.2-6.7-1.9-10.1-1c-5.7,1.5-10.9,9-15.1,13.4c-2.9,3-6.9,50.8-8.1,69l19.3,5.7
	c7.8-21.1,16.7-66.9,17.1-76.1C851.7,666.7,851.6,662.1,848.5,659.6z"/>
<path class="st6" d="M846.3,612.7c5.8,22.4,8.9,46.2,2.7,68.4c-1.3,4.8-3.8,10.1-8.7,11.2c-2.9,0.5-5.9-0.4-8.1-2.3
	c-2.2-1.9-4-4.3-5.3-6.9c-11.1-20-11.9-44-12.3-66.8c-0.2-9.4-1.7-25.7,5.5-33.2c7.5-7.8,17,5.5,19.8,11.2
	C842.7,600.2,844.9,606.3,846.3,612.7z"/>
</svg>
