<svg width="40" height="40" viewBox="0 0 40 40" fill="none" xmlns="http://www.w3.org/2000/svg">
<path d="M9.10467 7.38827C12.1289 4.7677 15.998 3.32769 19.9997 3.33327C29.2047 3.33327 36.6663 10.7949 36.6663 19.9999C36.6663 23.5599 35.5497 26.8599 33.6497 29.5666L28.333 19.9999H33.333C33.3332 17.386 32.5651 14.8296 31.1241 12.6487C29.6831 10.4678 27.6329 8.75853 25.2283 7.73347C22.8237 6.70842 20.1709 6.41277 17.5996 6.8833C15.0283 7.35382 12.6521 8.56977 10.7663 10.3799L9.10467 7.38827ZM30.8947 32.6116C27.8704 35.2322 24.0014 36.6722 19.9997 36.6666C10.7947 36.6666 3.33301 29.2049 3.33301 19.9999C3.33301 16.4399 4.44967 13.1399 6.34967 10.4333L11.6663 19.9999H6.66634C6.66613 22.6139 7.43426 25.1703 8.87524 27.3512C10.3162 29.5321 12.3665 31.2413 14.771 32.2664C17.1756 33.2915 19.8285 33.5871 22.3997 33.1166C24.971 32.646 27.3473 31.4301 29.233 29.6199L30.8947 32.6116Z" fill="#F9FAFB"/>
</svg>
