<svg width="41" height="42" viewBox="0 0 41 42" fill="none" xmlns="http://www.w3.org/2000/svg">
<path d="M30.1899 2.48039C30.1899 1.21688 28.7752 1.21687 28.1465 1.37481C29.0267 0.679876 30.0589 0.84836 30.4257 1.05894L38.9261 5.22698C39.7361 5.62414 40.2499 6.45049 40.2499 7.35607V34.7758C40.2499 35.6934 39.7224 36.5286 38.896 36.9193L30.8973 40.7015C30.3471 40.9383 29.1525 41.5227 28.1465 40.7014C29.404 40.9383 30.0851 40.0434 30.1899 39.4379V2.48039Z" fill="currentColor"/>
<path d="M28.2486 1.35193C28.9159 1.22006 30.19 1.28121 30.19 2.48029V11.9185L4.41828 31.415C3.96781 31.7557 3.33385 31.6992 2.95016 31.284L0.294015 28.4099C-0.122095 27.9596 -0.0929809 27.2548 0.358834 26.8408L28.1466 1.37471L28.2486 1.35193Z" fill="currentColor"/>
<path d="M30.19 30.1577L4.41828 10.6612C3.96781 10.3204 3.33385 10.377 2.95017 10.7921L0.294015 13.6663C-0.122095 14.1166 -0.0929809 14.8213 0.358834 15.2354L28.1466 40.7015C29.4041 40.9384 30.0852 40.0434 30.19 39.4379V30.1577Z" fill="currentColor"/>
</svg>
