<svg width="48" height="38" viewBox="0 0 48 38" fill="none" xmlns="http://www.w3.org/2000/svg">
<path d="M39.5611 0.4375C35.8749 0.4375 32.8027 2.9486 31.8605 6.70673C30.1619 1.0597 25.8143 0.44185 24.0007 0.44185C22.1875 0.44185 17.8416 1.0597 16.1399 6.70541C15.1973 2.95087 12.1247 0.44185 8.43943 0.44185C3.91727 0.44185 0.375 3.75423 0.375 7.9827C0.375 9.85269 0.825905 11.3456 1.37076 12.9648L7.51086 30.7562C9.56679 36.6566 13.7552 37.5377 16.0686 37.5377C19.6977 37.5377 22.5255 35.6333 24.0002 32.2581C25.4762 35.6484 28.3044 37.5625 31.9315 37.5625C34.2422 37.5625 38.4264 36.6799 40.4928 30.7577C42.6413 24.5453 44.8664 18.3543 46.9238 12.1111C47.2525 11.1145 47.625 9.98489 47.625 8.60055C47.625 3.87073 44.2337 0.4375 39.5611 0.4375ZM42.4716 11.3826L36.2977 29.2345C35.5439 31.3943 34.2903 33.0021 31.9315 33.0021C29.7217 33.0021 28.417 31.7403 27.765 29.5784L24.0498 17.6971H23.9489L20.2361 29.5784C19.5829 31.7407 18.2778 32.9772 16.0685 32.9772C13.7093 32.9772 12.4546 31.3827 11.7021 29.2228L5.57859 11.4791C5.07656 9.98696 4.82573 9.06369 4.82573 7.98232C4.82573 6.33625 6.33238 5.00222 8.43943 5.00222C10.1965 5.00222 11.4512 6.18912 11.8529 7.93769L16.0192 22.0906H16.1188L20.3354 8.24955C20.8885 6.24396 21.8918 5.00222 24.0007 5.00222C26.1085 5.00222 27.112 6.24188 27.6641 8.24747L31.8808 22.0906H31.9805L36.148 7.93769C36.5491 6.18912 37.8036 4.99787 39.5611 4.99787C41.6682 4.99787 43.1743 6.33682 43.1743 8.60055C43.1743 9.42302 42.8217 10.2495 42.4716 11.3826Z" fill="#9CA3AF"/>
</svg>
