<svg width="60" height="60" viewBox="0 0 60 60" fill="none" xmlns="http://www.w3.org/2000/svg">
<path d="M4.20845 18.6396C4.44944 14.9294 7.4324 12.0217 11.1459 11.8377C16.5232 11.5713 24.209 11.25 30 11.25C35.791 11.25 43.4768 11.5713 48.8541 11.8377C52.5676 12.0217 55.5506 14.9294 55.7915 18.6396C56.0224 22.1942 56.25 26.5681 56.25 30C56.25 33.4319 56.0224 37.8058 55.7915 41.3604C55.5506 45.0706 52.5676 47.9783 48.8541 48.1623C43.4768 48.4287 35.791 48.75 30 48.75C24.209 48.75 16.5232 48.4287 11.1459 48.1623C7.4324 47.9783 4.44944 45.0706 4.20845 41.3604C3.97756 37.8058 3.75 33.4319 3.75 30C3.75 26.5681 3.97756 22.1942 4.20845 18.6396Z" fill="#9CA3AF"/>
<path d="M24.375 22.5V37.5L39.375 30L24.375 22.5Z" fill="white"/>
</svg>
